<ttFont>
    <TTGlyph name=".notdef" xMin="50" yMin="0" xMax="450" yMax="750">
      <contour>
        <pt x="50" y="0" on="1"/>
        <pt x="50" y="750" on="1"/>
        <pt x="450" y="750" on="1"/>
        <pt x="450" y="0" on="1"/>
      </contour>
      <contour>
        <pt x="400" y="50" on="1"/>
        <pt x="400" y="700" on="1"/>
        <pt x="100" y="700" on="1"/>
        <pt x="100" y="50" on="1"/>
      </contour>
    </TTGlyph>
    <TTGlyph name="A" xMin="9" yMin="0" xMax="491" yMax="619">
      <contour>
        <pt x="404" y="0" on="1"/>
        <pt x="367" y="162" on="1"/>
        <pt x="129" y="162" on="1"/>
        <pt x="93" y="0" on="1"/>
        <pt x="9" y="0" on="1"/>
        <pt x="26" y="66" on="0"/>
        <pt x="68" y="220" on="0"/>
        <pt x="117" y="382" on="0"/>
        <pt x="171" y="545" on="0"/>
        <pt x="201" y="619" on="1"/>
        <pt x="303" y="619" on="1"/>
        <pt x="332" y="545" on="0"/>
        <pt x="385" y="382" on="0"/>
        <pt x="432" y="220" on="0"/>
        <pt x="474" y="66" on="0"/>
        <pt x="491" y="0" on="1"/>
      </contour>
      <contour>
        <pt x="249" y="547" on="1"/>
        <pt x="226" y="484" on="0"/>
        <pt x="172" y="318" on="0"/>
        <pt x="148" y="230" on="1"/>
        <pt x="348" y="230" on="1"/>
        <pt x="325" y="320" on="0"/>
        <pt x="272" y="487" on="0"/>
      </contour>
    </TTGlyph>
    <TTGlyph name="AE" xMin="27" yMin="0" xMax="482" yMax="619">
      <contour>
        <pt x="263" y="0" on="1"/>
        <pt x="263" y="162" on="1"/>
        <pt x="145" y="162" on="1"/>
        <pt x="108" y="0" on="1"/>
        <pt x="27" y="0" on="1"/>
        <pt x="72" y="174" on="0"/>
        <pt x="164" y="479" on="0"/>
        <pt x="219" y="619" on="1"/>
        <pt x="469" y="619" on="1"/>
        <pt x="469" y="549" on="1"/>
        <pt x="341" y="549" on="1"/>
        <pt x="341" y="359" on="1"/>
        <pt x="446" y="359" on="1"/>
        <pt x="446" y="289" on="1"/>
        <pt x="341" y="289" on="1"/>
        <pt x="341" y="70" on="1"/>
        <pt x="482" y="70" on="1"/>
        <pt x="482" y="0" on="1"/>
      </contour>
      <contour>
        <pt x="263" y="566" on="1"/>
        <pt x="235" y="478" on="0"/>
        <pt x="184" y="304" on="0"/>
        <pt x="163" y="230" on="1"/>
        <pt x="263" y="230" on="1"/>
      </contour>
    </TTGlyph>
    <TTGlyph name="AEacute" xMin="27" yMin="0" xMax="482" yMax="830">
      <component glyphName="AE" x="0" y="0" flags="0x204"/>
      <component glyphName="acute" x="101" y="137" flags="0x4"/>
    </TTGlyph>
    <TTGlyph name="Aacute" xMin="9" yMin="0" xMax="491" yMax="830">
      <component glyphName="A" x="0" y="0" flags="0x204"/>
      <component glyphName="acute" x="-3" y="137" flags="0x4"/>
    </TTGlyph>
    <TTGlyph name="Abreve" xMin="9" yMin="0" xMax="491" yMax="808">
      <component glyphName="A" x="0" y="0" flags="0x204"/>
      <component glyphName="breve" x="0" y="139" flags="0x4"/>
    </TTGlyph>
    <TTGlyph name="Acircumflex" xMin="9" yMin="0" xMax="491" yMax="826">
      <component glyphName="A" x="0" y="0" flags="0x204"/>
      <component glyphName="circumflex" x="0" y="139" flags="0x4"/>
    </TTGlyph>
    <TTGlyph name="Adieresis" xMin="9" yMin="0" xMax="491" yMax="794">
      <component glyphName="A" x="0" y="0" flags="0x204"/>
      <component glyphName="dieresis" x="0" y="139" flags="0x4"/>
    </TTGlyph>
    <TTGlyph name="Agrave" xMin="9" yMin="0" xMax="491" yMax="830">
      <component glyphName="A" x="0" y="0" flags="0x204"/>
      <component glyphName="grave" x="4" y="137" flags="0x4"/>
    </TTGlyph>
    <TTGlyph name="Alpha" xMin="9" yMin="0" xMax="491" yMax="619">
      <component glyphName="A" x="0" y="0" flags="0x204"/>
    </TTGlyph>
    <TTGlyph name="Alphatonos" xMin="9" yMin="0" xMax="491" yMax="633">
      <component glyphName="A" x="0" y="0" flags="0x204"/>
      <component glyphName="tonos.cap" x="-194" y="0" flags="0x4"/>
    </TTGlyph>
    <TTGlyph name="Amacron" xMin="9" yMin="0" xMax="491" yMax="774">
      <component glyphName="A" x="0" y="0" flags="0x204"/>
      <component glyphName="macron" x="0" y="139" flags="0x4"/>
    </TTGlyph>
    <TTGlyph name="Aogonek" xMin="9" yMin="-167" xMax="496" yMax="619">
      <contour>
        <pt x="490" y="2" on="1"/>
        <pt x="476" y="-6" on="0"/>
        <pt x="455" y="-24" on="0"/>
        <pt x="444" y="-35" on="1"/>
        <pt x="431" y="-49" on="0"/>
        <pt x="417" y="-70" on="0"/>
        <pt x="417" y="-83" on="1"/>
        <pt x="417" y="-109" on="0"/>
        <pt x="453" y="-109" on="1"/>
        <pt x="459" y="-109" on="0"/>
        <pt x="479" y="-106" on="0"/>
        <pt x="489" y="-103" on="1"/>
        <pt x="496" y="-157" on="1"/>
        <pt x="473" y="-167" on="0"/>
        <pt x="437" y="-167" on="1"/>
        <pt x="386" y="-167" on="0"/>
        <pt x="342" y="-133" on="0"/>
        <pt x="342" y="-101" on="1"/>
        <pt x="342" y="-72" on="0"/>
        <pt x="382" y="-22" on="0"/>
        <pt x="405" y="-3" on="1"/>
        <pt x="367" y="162" on="1"/>
        <pt x="129" y="162" on="1"/>
        <pt x="93" y="0" on="1"/>
        <pt x="9" y="0" on="1"/>
        <pt x="26" y="66" on="0"/>
        <pt x="68" y="220" on="0"/>
        <pt x="117" y="382" on="0"/>
        <pt x="171" y="545" on="0"/>
        <pt x="201" y="619" on="1"/>
        <pt x="303" y="619" on="1"/>
        <pt x="332" y="545" on="0"/>
        <pt x="385" y="383" on="0"/>
        <pt x="432" y="221" on="0"/>
        <pt x="473" y="68" on="0"/>
      </contour>
      <contour>
        <pt x="249" y="547" on="1"/>
        <pt x="226" y="484" on="0"/>
        <pt x="172" y="318" on="0"/>
        <pt x="148" y="230" on="1"/>
        <pt x="348" y="230" on="1"/>
        <pt x="325" y="320" on="0"/>
        <pt x="272" y="487" on="0"/>
      </contour>
    </TTGlyph>
    <TTGlyph name="Aring" xMin="9" yMin="0" xMax="491" yMax="749">
      <contour>
        <pt x="404" y="0" on="1"/>
        <pt x="367" y="162" on="1"/>
        <pt x="129" y="162" on="1"/>
        <pt x="93" y="0" on="1"/>
        <pt x="9" y="0" on="1"/>
        <pt x="25" y="63" on="0"/>
        <pt x="68" y="218" on="0"/>
        <pt x="116" y="377" on="0"/>
        <pt x="167" y="527" on="0"/>
        <pt x="193" y="586" on="1"/>
        <pt x="179" y="598" on="0"/>
        <pt x="159" y="635" on="0"/>
        <pt x="159" y="658" on="1"/>
        <pt x="159" y="700" on="0"/>
        <pt x="214" y="749" on="0"/>
        <pt x="251" y="749" on="1"/>
        <pt x="288" y="749" on="0"/>
        <pt x="343" y="700" on="0"/>
        <pt x="343" y="658" on="1"/>
        <pt x="343" y="636" on="0"/>
        <pt x="324" y="598" on="0"/>
        <pt x="310" y="587" on="1"/>
        <pt x="335" y="528" on="0"/>
        <pt x="386" y="377" on="0"/>
        <pt x="433" y="217" on="0"/>
        <pt x="474" y="62" on="0"/>
        <pt x="491" y="0" on="1"/>
      </contour>
      <contour>
        <pt x="249" y="547" on="1"/>
        <pt x="226" y="484" on="0"/>
        <pt x="172" y="318" on="0"/>
        <pt x="148" y="230" on="1"/>
        <pt x="348" y="230" on="1"/>
        <pt x="325" y="320" on="0"/>
        <pt x="272" y="487" on="0"/>
      </contour>
      <contour>
        <pt x="298" y="658" on="1"/>
        <pt x="298" y="681" on="0"/>
        <pt x="271" y="707" on="0"/>
        <pt x="251" y="707" on="1"/>
        <pt x="231" y="707" on="0"/>
        <pt x="204" y="681" on="0"/>
        <pt x="204" y="658" on="1"/>
        <pt x="204" y="635" on="0"/>
        <pt x="231" y="609" on="0"/>
        <pt x="251" y="609" on="1"/>
        <pt x="271" y="609" on="0"/>
        <pt x="298" y="635" on="0"/>
      </contour>
    </TTGlyph>
    <TTGlyph name="Aringacute" xMin="9" yMin="0" xMax="491" yMax="830">
      <contour>
        <pt x="334" y="622" on="1"/>
        <pt x="334" y="587" on="0"/>
        <pt x="311" y="564" on="1"/>
        <pt x="335" y="507" on="0"/>
        <pt x="384" y="363" on="0"/>
        <pt x="432" y="211" on="0"/>
        <pt x="474" y="62" on="0"/>
        <pt x="491" y="0" on="1"/>
        <pt x="404" y="0" on="1"/>
        <pt x="367" y="162" on="1"/>
        <pt x="129" y="162" on="1"/>
        <pt x="93" y="0" on="1"/>
        <pt x="9" y="0" on="1"/>
        <pt x="25" y="62" on="0"/>
        <pt x="68" y="212" on="0"/>
        <pt x="117" y="364" on="0"/>
        <pt x="167" y="506" on="0"/>
        <pt x="191" y="562" on="1"/>
        <pt x="180" y="573" on="0"/>
        <pt x="168" y="603" on="0"/>
        <pt x="168" y="622" on="1"/>
        <pt x="168" y="660" on="0"/>
        <pt x="216" y="704" on="0"/>
        <pt x="251" y="704" on="1"/>
        <pt x="284" y="704" on="0"/>
        <pt x="334" y="660" on="0"/>
      </contour>
      <contour>
        <pt x="249" y="537" on="1"/>
        <pt x="226" y="474" on="0"/>
        <pt x="176" y="325" on="0"/>
        <pt x="148" y="230" on="1"/>
        <pt x="348" y="230" on="1"/>
        <pt x="322" y="324" on="0"/>
        <pt x="272" y="477" on="0"/>
      </contour>
      <contour>
        <pt x="294" y="622" on="1"/>
        <pt x="294" y="643" on="0"/>
        <pt x="269" y="666" on="0"/>
        <pt x="251" y="666" on="1"/>
        <pt x="233" y="666" on="0"/>
        <pt x="208" y="643" on="0"/>
        <pt x="208" y="622" on="1"/>
        <pt x="208" y="601" on="0"/>
        <pt x="233" y="577" on="0"/>
        <pt x="251" y="577" on="1"/>
        <pt x="269" y="577" on="0"/>
        <pt x="294" y="601" on="0"/>
      </contour>
      <contour>
        <pt x="335" y="765" on="1"/>
        <pt x="195" y="721" on="1"/>
        <pt x="176" y="770" on="1"/>
        <pt x="310" y="830" on="1"/>
      </contour>
    </TTGlyph>
    <TTGlyph name="At" xMin="40" yMin="-75" xMax="468" yMax="693">
      <component glyphName="at" x="0" y="60" flags="0x204"/>
    </TTGlyph>
    <TTGlyph name="Atilde" xMin="9" yMin="0" xMax="491" yMax="796">
      <component glyphName="A" x="0" y="0" flags="0x204"/>
      <component glyphName="tilde" x="0" y="139" flags="0x4"/>
    </TTGlyph>
    <TTGlyph name="B" xMin="54" yMin="-5" xMax="451" yMax="625">
      <contour>
        <pt x="204" y="-5" on="1"/>
        <pt x="189" y="-5" on="0"/>
        <pt x="149" y="-3" on="0"/>
        <pt x="109" y="0" on="0"/>
        <pt x="69" y="6" on="0"/>
        <pt x="54" y="10" on="1"/>
        <pt x="54" y="610" on="1"/>
        <pt x="69" y="614" on="0"/>
        <pt x="108" y="620" on="0"/>
        <pt x="149" y="623" on="0"/>
        <pt x="188" y="625" on="0"/>
        <pt x="204" y="625" on="1"/>
        <pt x="250" y="625" on="0"/>
        <pt x="330" y="609" on="0"/>
        <pt x="389" y="571" on="0"/>
        <pt x="422" y="509" on="0"/>
        <pt x="422" y="463" on="1"/>
        <pt x="422" y="441" on="0"/>
        <pt x="408" y="400" on="0"/>
        <pt x="383" y="364" on="0"/>
        <pt x="350" y="337" on="0"/>
        <pt x="331" y="330" on="1"/>
        <pt x="382" y="316" on="0"/>
        <pt x="451" y="241" on="0"/>
        <pt x="451" y="181" on="1"/>
        <pt x="451" y="89" on="0"/>
        <pt x="333" y="-5" on="0"/>
      </contour>
      <contour>
        <pt x="136" y="289" on="1"/>
        <pt x="136" y="68" on="1"/>
        <pt x="138" y="67" on="0"/>
        <pt x="179" y="64" on="0"/>
        <pt x="210" y="64" on="1"/>
        <pt x="241" y="64" on="0"/>
        <pt x="298" y="74" on="0"/>
        <pt x="342" y="101" on="0"/>
        <pt x="369" y="145" on="0"/>
        <pt x="369" y="180" on="1"/>
        <pt x="369" y="211" on="0"/>
        <pt x="344" y="253" on="0"/>
        <pt x="303" y="278" on="0"/>
        <pt x="249" y="289" on="0"/>
        <pt x="220" y="289" on="1"/>
      </contour>
      <contour>
        <pt x="136" y="357" on="1"/>
        <pt x="201" y="357" on="1"/>
        <pt x="226" y="357" on="0"/>
        <pt x="276" y="367" on="0"/>
        <pt x="316" y="389" on="0"/>
        <pt x="340" y="427" on="0"/>
        <pt x="340" y="456" on="1"/>
        <pt x="340" y="483" on="0"/>
        <pt x="318" y="521" on="0"/>
        <pt x="282" y="545" on="0"/>
        <pt x="235" y="555" on="0"/>
        <pt x="209" y="555" on="1"/>
        <pt x="183" y="555" on="0"/>
        <pt x="144" y="554" on="0"/>
        <pt x="136" y="552" on="1"/>
      </contour>
    </TTGlyph>
    <TTGlyph name="Backslash" xMin="70" yMin="-123" xMax="430" yMax="741">
      <component glyphName="backslash" x="0" y="42" flags="0x204"/>
    </TTGlyph>
    <TTGlyph name="Beta" xMin="54" yMin="-5" xMax="450" yMax="625">
      <contour>
        <pt x="204" y="-5" on="1"/>
        <pt x="189" y="-5" on="0"/>
        <pt x="149" y="-3" on="0"/>
        <pt x="109" y="0" on="0"/>
        <pt x="69" y="6" on="0"/>
        <pt x="54" y="10" on="1"/>
        <pt x="54" y="610" on="1"/>
        <pt x="69" y="614" on="0"/>
        <pt x="108" y="620" on="0"/>
        <pt x="149" y="623" on="0"/>
        <pt x="188" y="625" on="0"/>
        <pt x="204" y="625" on="1"/>
        <pt x="250" y="625" on="0"/>
        <pt x="330" y="609" on="0"/>
        <pt x="389" y="571" on="0"/>
        <pt x="422" y="509" on="0"/>
        <pt x="422" y="463" on="1"/>
        <pt x="422" y="441" on="0"/>
        <pt x="408" y="401" on="0"/>
        <pt x="384" y="367" on="0"/>
        <pt x="354" y="339" on="0"/>
        <pt x="338" y="330" on="1"/>
        <pt x="386" y="313" on="0"/>
        <pt x="450" y="241" on="0"/>
        <pt x="450" y="181" on="1"/>
        <pt x="450" y="89" on="0"/>
        <pt x="333" y="-5" on="0"/>
      </contour>
      <contour>
        <pt x="136" y="289" on="1"/>
        <pt x="136" y="68" on="1"/>
        <pt x="138" y="67" on="0"/>
        <pt x="179" y="64" on="0"/>
        <pt x="210" y="64" on="1"/>
        <pt x="241" y="64" on="0"/>
        <pt x="298" y="74" on="0"/>
        <pt x="342" y="101" on="0"/>
        <pt x="368" y="145" on="0"/>
        <pt x="368" y="180" on="1"/>
        <pt x="368" y="211" on="0"/>
        <pt x="348" y="253" on="0"/>
        <pt x="312" y="278" on="0"/>
        <pt x="263" y="289" on="0"/>
        <pt x="233" y="289" on="1"/>
      </contour>
      <contour>
        <pt x="136" y="357" on="1"/>
        <pt x="214" y="357" on="1"/>
        <pt x="239" y="357" on="0"/>
        <pt x="285" y="367" on="0"/>
        <pt x="320" y="389" on="0"/>
        <pt x="340" y="427" on="0"/>
        <pt x="340" y="456" on="1"/>
        <pt x="340" y="483" on="0"/>
        <pt x="318" y="521" on="0"/>
        <pt x="282" y="545" on="0"/>
        <pt x="235" y="555" on="0"/>
        <pt x="209" y="555" on="1"/>
        <pt x="183" y="555" on="0"/>
        <pt x="144" y="554" on="0"/>
        <pt x="136" y="552" on="1"/>
      </contour>
    </TTGlyph>
    <TTGlyph name="Braceleft" xMin="79" yMin="-123" xMax="427" yMax="741">
      <component glyphName="braceleft" x="0" y="42" flags="0x204"/>
    </TTGlyph>
    <TTGlyph name="Braceright" xMin="73" yMin="-123" xMax="421" yMax="741">
      <component glyphName="braceright" x="0" y="42" flags="0x204"/>
    </TTGlyph>
    <TTGlyph name="Bracketleft" xMin="143" yMin="-123" xMax="382" yMax="741">
      <component glyphName="bracketleft" x="0" y="42" flags="0x204"/>
    </TTGlyph>
    <TTGlyph name="Bracketright" xMin="118" yMin="-123" xMax="357" yMax="741">
      <component glyphName="bracketright" x="0" y="42" flags="0x204"/>
    </TTGlyph>
    <TTGlyph name="Bullet" xMin="114" yMin="196" xMax="386" yMax="482">
      <component glyphName="bullet" x="0" y="23" flags="0x204"/>
    </TTGlyph>
    <TTGlyph name="C" xMin="46" yMin="-13" xMax="460" yMax="633">
      <contour>
        <pt x="460" y="26" on="1"/>
        <pt x="425" y="6" on="0"/>
        <pt x="346" y="-13" on="0"/>
        <pt x="301" y="-13" on="1"/>
        <pt x="246" y="-13" on="0"/>
        <pt x="153" y="26" on="0"/>
        <pt x="85" y="105" on="0"/>
        <pt x="46" y="227" on="0"/>
        <pt x="46" y="310" on="1"/>
        <pt x="46" y="389" on="0"/>
        <pt x="87" y="509" on="0"/>
        <pt x="157" y="591" on="0"/>
        <pt x="251" y="633" on="0"/>
        <pt x="304" y="633" on="1"/>
        <pt x="341" y="633" on="0"/>
        <pt x="418" y="613" on="0"/>
        <pt x="455" y="590" on="1"/>
        <pt x="431" y="522" on="1"/>
        <pt x="365" y="560" on="0"/>
        <pt x="307" y="560" on="1"/>
        <pt x="266" y="560" on="0"/>
        <pt x="201" y="525" on="0"/>
        <pt x="155" y="459" on="0"/>
        <pt x="130" y="367" on="0"/>
        <pt x="130" y="310" on="1"/>
        <pt x="130" y="246" on="0"/>
        <pt x="157" y="152" on="0"/>
        <pt x="205" y="90" on="0"/>
        <pt x="272" y="60" on="0"/>
        <pt x="311" y="60" on="1"/>
        <pt x="340" y="60" on="0"/>
        <pt x="404" y="75" on="0"/>
        <pt x="438" y="94" on="1"/>
      </contour>
    </TTGlyph>
    <TTGlyph name="Cacute" xMin="46" yMin="-13" xMax="460" yMax="830">
      <component glyphName="C" x="0" y="0" flags="0x204"/>
      <component glyphName="acute" x="54" y="137" flags="0x4"/>
    </TTGlyph>
    <TTGlyph name="Ccaron" xMin="46" yMin="-13" xMax="460" yMax="829">
      <component glyphName="C" x="0" y="0" flags="0x204"/>
      <component glyphName="caron" x="54" y="139" flags="0x4"/>
    </TTGlyph>
    <TTGlyph name="Ccedilla" xMin="46" yMin="-169" xMax="460" yMax="633">
      <contour>
        <pt x="317" y="-33" on="1"/>
        <pt x="343" y="-45" on="0"/>
        <pt x="366" y="-75" on="0"/>
        <pt x="366" y="-104" on="1"/>
        <pt x="366" y="-114" on="0"/>
        <pt x="357" y="-137" on="0"/>
        <pt x="336" y="-156" on="0"/>
        <pt x="301" y="-169" on="0"/>
        <pt x="275" y="-169" on="1"/>
        <pt x="252" y="-169" on="0"/>
        <pt x="212" y="-162" on="0"/>
        <pt x="201" y="-157" on="1"/>
        <pt x="211" y="-106" on="1"/>
        <pt x="222" y="-110" on="0"/>
        <pt x="246" y="-115" on="0"/>
        <pt x="261" y="-115" on="1"/>
        <pt x="293" y="-115" on="0"/>
        <pt x="293" y="-95" on="1"/>
        <pt x="293" y="-75" on="0"/>
        <pt x="256" y="-64" on="1"/>
        <pt x="249" y="-62" on="1"/>
        <pt x="253" y="-51" on="0"/>
        <pt x="265" y="-24" on="0"/>
        <pt x="271" y="-11" on="1"/>
        <pt x="222" y="-6" on="0"/>
        <pt x="139" y="37" on="0"/>
        <pt x="79" y="117" on="0"/>
        <pt x="46" y="233" on="0"/>
        <pt x="46" y="310" on="1"/>
        <pt x="46" y="389" on="0"/>
        <pt x="87" y="509" on="0"/>
        <pt x="157" y="591" on="0"/>
        <pt x="251" y="633" on="0"/>
        <pt x="304" y="633" on="1"/>
        <pt x="341" y="633" on="0"/>
        <pt x="418" y="613" on="0"/>
        <pt x="455" y="590" on="1"/>
        <pt x="431" y="522" on="1"/>
        <pt x="365" y="560" on="0"/>
        <pt x="307" y="560" on="1"/>
        <pt x="266" y="560" on="0"/>
        <pt x="201" y="525" on="0"/>
        <pt x="155" y="459" on="0"/>
        <pt x="130" y="367" on="0"/>
        <pt x="130" y="310" on="1"/>
        <pt x="130" y="246" on="0"/>
        <pt x="157" y="152" on="0"/>
        <pt x="205" y="90" on="0"/>
        <pt x="272" y="60" on="0"/>
        <pt x="311" y="60" on="1"/>
        <pt x="340" y="60" on="0"/>
        <pt x="404" y="75" on="0"/>
        <pt x="438" y="94" on="1"/>
        <pt x="460" y="26" on="1"/>
        <pt x="402" y="-7" on="0"/>
        <pt x="328" y="-12" on="1"/>
      </contour>
    </TTGlyph>
    <TTGlyph name="Ccircumflex" xMin="46" yMin="-13" xMax="460" yMax="826">
      <component glyphName="C" x="0" y="0" flags="0x204"/>
      <component glyphName="circumflex" x="54" y="139" flags="0x4"/>
    </TTGlyph>
    <TTGlyph name="Cdotaccent" xMin="46" yMin="-13" xMax="460" yMax="802">
      <component glyphName="C" x="0" y="0" flags="0x204"/>
      <component glyphName="dotaccent" x="54" y="139" flags="0x4"/>
    </TTGlyph>
    <TTGlyph name="Chi" xMin="22" yMin="0" xMax="472" yMax="619">
      <contour>
        <pt x="381" y="0" on="1"/>
        <pt x="370" y="27" on="0"/>
        <pt x="340" y="95" on="0"/>
        <pt x="306" y="167" on="0"/>
        <pt x="267" y="239" on="0"/>
        <pt x="246" y="270" on="1"/>
        <pt x="211" y="214" on="0"/>
        <pt x="142" y="69" on="0"/>
        <pt x="112" y="0" on="1"/>
        <pt x="22" y="0" on="1"/>
        <pt x="55" y="74" on="0"/>
        <pt x="144" y="247" on="0"/>
        <pt x="194" y="326" on="1"/>
        <pt x="32" y="619" on="1"/>
        <pt x="123" y="619" on="1"/>
        <pt x="245" y="382" on="1"/>
        <pt x="374" y="619" on="1"/>
        <pt x="463" y="619" on="1"/>
        <pt x="299" y="330" on="1"/>
        <pt x="347" y="252" on="0"/>
        <pt x="437" y="84" on="0"/>
        <pt x="472" y="0" on="1"/>
      </contour>
    </TTGlyph>
    <TTGlyph name="D" xMin="54" yMin="-5" xMax="460" yMax="625">
      <contour>
        <pt x="460" y="310" on="1"/>
        <pt x="460" y="224" on="0"/>
        <pt x="417" y="104" on="0"/>
        <pt x="342" y="29" on="0"/>
        <pt x="239" y="-5" on="0"/>
        <pt x="179" y="-5" on="1"/>
        <pt x="117" y="-5" on="0"/>
        <pt x="54" y="10" on="1"/>
        <pt x="54" y="610" on="1"/>
        <pt x="117" y="625" on="0"/>
        <pt x="179" y="625" on="1"/>
        <pt x="239" y="625" on="0"/>
        <pt x="342" y="591" on="0"/>
        <pt x="417" y="515" on="0"/>
        <pt x="460" y="395" on="0"/>
      </contour>
      <contour>
        <pt x="136" y="69" on="1"/>
        <pt x="161" y="66" on="0"/>
        <pt x="187" y="66" on="1"/>
        <pt x="232" y="66" on="0"/>
        <pt x="302" y="93" on="0"/>
        <pt x="350" y="152" on="0"/>
        <pt x="376" y="245" on="0"/>
        <pt x="376" y="310" on="1"/>
        <pt x="376" y="436" on="0"/>
        <pt x="279" y="554" on="0"/>
        <pt x="184" y="554" on="1"/>
        <pt x="171" y="554" on="0"/>
        <pt x="146" y="553" on="0"/>
        <pt x="136" y="551" on="1"/>
      </contour>
    </TTGlyph>
    <TTGlyph name="Dcaron" xMin="54" yMin="-5" xMax="460" yMax="829">
      <component glyphName="D" x="0" y="0" flags="0x204"/>
      <component glyphName="caron" x="-35" y="139" flags="0x4"/>
    </TTGlyph>
    <TTGlyph name="Dcroat" xMin="18" yMin="-5" xMax="460" yMax="625">
      <component glyphName="Eth" x="0" y="0" flags="0x204"/>
    </TTGlyph>
    <TTGlyph name="Delta" xMin="9" yMin="0" xMax="491" yMax="619">
      <contour>
        <pt x="9" y="0" on="1"/>
        <pt x="32" y="89" on="0"/>
        <pt x="76" y="246" on="0"/>
        <pt x="121" y="395" on="0"/>
        <pt x="171" y="541" on="0"/>
        <pt x="201" y="619" on="1"/>
        <pt x="303" y="619" on="1"/>
        <pt x="330" y="551" on="0"/>
        <pt x="383" y="389" on="0"/>
        <pt x="432" y="224" on="0"/>
        <pt x="474" y="66" on="0"/>
        <pt x="491" y="0" on="1"/>
      </contour>
      <contour>
        <pt x="249" y="547" on="1"/>
        <pt x="239" y="520" on="0"/>
        <pt x="206" y="424" on="0"/>
        <pt x="168" y="299" on="0"/>
        <pt x="128" y="150" on="0"/>
        <pt x="110" y="70" on="1"/>
        <pt x="387" y="70" on="1"/>
        <pt x="369" y="150" on="0"/>
        <pt x="329" y="299" on="0"/>
        <pt x="291" y="424" on="0"/>
        <pt x="259" y="520" on="0"/>
      </contour>
    </TTGlyph>
    <TTGlyph name="E" xMin="91" yMin="0" xMax="460" yMax="619">
      <contour>
        <pt x="91" y="0" on="1"/>
        <pt x="91" y="619" on="1"/>
        <pt x="438" y="619" on="1"/>
        <pt x="438" y="549" on="1"/>
        <pt x="173" y="549" on="1"/>
        <pt x="173" y="359" on="1"/>
        <pt x="405" y="359" on="1"/>
        <pt x="405" y="289" on="1"/>
        <pt x="173" y="289" on="1"/>
        <pt x="173" y="70" on="1"/>
        <pt x="460" y="70" on="1"/>
        <pt x="460" y="0" on="1"/>
      </contour>
    </TTGlyph>
    <TTGlyph name="Eacute" xMin="91" yMin="0" xMax="460" yMax="830">
      <component glyphName="E" x="0" y="0" flags="0x204"/>
      <component glyphName="acute" x="26" y="137" flags="0x4"/>
    </TTGlyph>
    <TTGlyph name="Ebreve" xMin="91" yMin="0" xMax="460" yMax="808">
      <component glyphName="E" x="0" y="0" flags="0x204"/>
      <component glyphName="breve" x="18" y="139" flags="0x4"/>
    </TTGlyph>
    <TTGlyph name="Ecaron" xMin="91" yMin="0" xMax="460" yMax="829">
      <component glyphName="E" x="0" y="0" flags="0x204"/>
      <component glyphName="caron" x="27" y="139" flags="0x4"/>
    </TTGlyph>
    <TTGlyph name="Ecircumflex" xMin="91" yMin="0" xMax="460" yMax="826">
      <component glyphName="E" x="0" y="0" flags="0x204"/>
      <component glyphName="circumflex" x="18" y="139" flags="0x4"/>
    </TTGlyph>
    <TTGlyph name="Edieresis" xMin="91" yMin="0" xMax="460" yMax="794">
      <component glyphName="E" x="0" y="0" flags="0x204"/>
      <component glyphName="dieresis" x="18" y="139" flags="0x4"/>
    </TTGlyph>
    <TTGlyph name="Edotaccent" xMin="91" yMin="0" xMax="460" yMax="802">
      <component glyphName="E" x="0" y="0" flags="0x204"/>
      <component glyphName="dotaccent" x="22" y="139" flags="0x4"/>
    </TTGlyph>
    <TTGlyph name="Egrave" xMin="91" yMin="0" xMax="460" yMax="830">
      <component glyphName="E" x="0" y="0" flags="0x204"/>
      <component glyphName="grave" x="14" y="137" flags="0x4"/>
    </TTGlyph>
    <TTGlyph name="Emacron" xMin="91" yMin="0" xMax="460" yMax="774">
      <component glyphName="E" x="0" y="0" flags="0x204"/>
      <component glyphName="macron" x="18" y="139" flags="0x4"/>
    </TTGlyph>
    <TTGlyph name="Emdash" xMin="0" yMin="274" xMax="500" yMax="344">
      <component glyphName="emdash" x="0" y="38" flags="0x204"/>
    </TTGlyph>
    <TTGlyph name="Endash" xMin="69" yMin="274" xMax="431" yMax="344">
      <component glyphName="endash" x="0" y="38" flags="0x204"/>
    </TTGlyph>
    <TTGlyph name="Eng" xMin="55" yMin="-167" xMax="445" yMax="619">
      <contour>
        <pt x="370" y="21" on="1"/>
        <pt x="350" y="65" on="0"/>
        <pt x="295" y="180" on="0"/>
        <pt x="231" y="306" on="0"/>
        <pt x="162" y="435" on="0"/>
        <pt x="130" y="494" on="1"/>
        <pt x="130" y="0" on="1"/>
        <pt x="55" y="0" on="1"/>
        <pt x="55" y="619" on="1"/>
        <pt x="139" y="619" on="1"/>
        <pt x="167" y="570" on="0"/>
        <pt x="231" y="452" on="0"/>
        <pt x="294" y="331" on="0"/>
        <pt x="350" y="216" on="0"/>
        <pt x="370" y="169" on="1"/>
        <pt x="370" y="619" on="1"/>
        <pt x="445" y="619" on="1"/>
        <pt x="445" y="0" on="1"/>
        <pt x="445" y="-37" on="0"/>
        <pt x="437" y="-99" on="0"/>
        <pt x="412" y="-143" on="0"/>
        <pt x="363" y="-167" on="0"/>
        <pt x="323" y="-167" on="1"/>
        <pt x="310" y="-167" on="0"/>
        <pt x="278" y="-162" on="0"/>
        <pt x="268" y="-160" on="1"/>
        <pt x="276" y="-95" on="1"/>
        <pt x="284" y="-97" on="0"/>
        <pt x="307" y="-99" on="0"/>
        <pt x="314" y="-99" on="1"/>
        <pt x="347" y="-99" on="0"/>
        <pt x="370" y="-56" on="0"/>
        <pt x="370" y="-15" on="1"/>
      </contour>
    </TTGlyph>
    <TTGlyph name="Eogonek" xMin="91" yMin="-167" xMax="463" yMax="619">
      <contour>
        <pt x="460" y="2" on="1"/>
        <pt x="435" y="-12" on="0"/>
        <pt x="412" y="-35" on="1"/>
        <pt x="399" y="-49" on="0"/>
        <pt x="385" y="-70" on="0"/>
        <pt x="385" y="-83" on="1"/>
        <pt x="385" y="-109" on="0"/>
        <pt x="421" y="-109" on="1"/>
        <pt x="427" y="-109" on="0"/>
        <pt x="447" y="-106" on="0"/>
        <pt x="457" y="-103" on="1"/>
        <pt x="463" y="-157" on="1"/>
        <pt x="441" y="-167" on="0"/>
        <pt x="405" y="-167" on="1"/>
        <pt x="354" y="-167" on="0"/>
        <pt x="310" y="-133" on="0"/>
        <pt x="310" y="-101" on="1"/>
        <pt x="310" y="-80" on="0"/>
        <pt x="331" y="-42" on="0"/>
        <pt x="347" y="-26" on="1"/>
        <pt x="355" y="-18" on="0"/>
        <pt x="369" y="-4" on="0"/>
        <pt x="374" y="0" on="1"/>
        <pt x="91" y="0" on="1"/>
        <pt x="91" y="619" on="1"/>
        <pt x="438" y="619" on="1"/>
        <pt x="438" y="549" on="1"/>
        <pt x="173" y="549" on="1"/>
        <pt x="173" y="359" on="1"/>
        <pt x="405" y="359" on="1"/>
        <pt x="405" y="289" on="1"/>
        <pt x="173" y="289" on="1"/>
        <pt x="173" y="70" on="1"/>
        <pt x="460" y="70" on="1"/>
      </contour>
    </TTGlyph>
    <TTGlyph name="Epsilon" xMin="91" yMin="0" xMax="460" yMax="619">
      <component glyphName="E" x="0" y="0" flags="0x204"/>
    </TTGlyph>
    <TTGlyph name="Epsilontonos" xMin="-68" yMin="0" xMax="460" yMax="633">
      <component glyphName="tonos.cap" x="-274" y="0" flags="0x214"/>
      <component glyphName="E" x="0" y="0" flags="0x4"/>
    </TTGlyph>
    <TTGlyph name="Eta" xMin="45" yMin="0" xMax="455" yMax="619">
      <component glyphName="H" x="0" y="0" flags="0x204"/>
    </TTGlyph>
    <TTGlyph name="Etatonos" xMin="-120" yMin="0" xMax="455" yMax="633">
      <component glyphName="H" x="0" y="0" flags="0x204"/>
      <component glyphName="tonos.cap" x="-326" y="0" flags="0x4"/>
    </TTGlyph>
    <TTGlyph name="Eth" xMin="18" yMin="-5" xMax="460" yMax="625">
      <contour>
        <pt x="460" y="310" on="1"/>
        <pt x="460" y="224" on="0"/>
        <pt x="419" y="104" on="0"/>
        <pt x="348" y="29" on="0"/>
        <pt x="250" y="-5" on="0"/>
        <pt x="193" y="-5" on="1"/>
        <pt x="132" y="-5" on="0"/>
        <pt x="71" y="10" on="1"/>
        <pt x="71" y="291" on="1"/>
        <pt x="18" y="291" on="1"/>
        <pt x="18" y="355" on="1"/>
        <pt x="71" y="355" on="1"/>
        <pt x="71" y="610" on="1"/>
        <pt x="132" y="625" on="0"/>
        <pt x="193" y="625" on="1"/>
        <pt x="250" y="625" on="0"/>
        <pt x="348" y="591" on="0"/>
        <pt x="419" y="515" on="0"/>
        <pt x="460" y="395" on="0"/>
      </contour>
      <contour>
        <pt x="154" y="69" on="1"/>
        <pt x="165" y="67" on="0"/>
        <pt x="189" y="66" on="0"/>
        <pt x="200" y="66" on="1"/>
        <pt x="242" y="66" on="0"/>
        <pt x="307" y="93" on="0"/>
        <pt x="352" y="152" on="0"/>
        <pt x="376" y="245" on="0"/>
        <pt x="376" y="310" on="1"/>
        <pt x="376" y="436" on="0"/>
        <pt x="285" y="554" on="0"/>
        <pt x="197" y="554" on="1"/>
        <pt x="172" y="554" on="0"/>
        <pt x="154" y="551" on="1"/>
        <pt x="154" y="355" on="1"/>
        <pt x="252" y="355" on="1"/>
        <pt x="252" y="291" on="1"/>
        <pt x="154" y="291" on="1"/>
      </contour>
    </TTGlyph>
    <TTGlyph name="Euro" xMin="36" yMin="-12" xMax="467" yMax="630">
      <contour>
        <pt x="106" y="421" on="1"/>
        <pt x="124" y="527" on="0"/>
        <pt x="239" y="630" on="0"/>
        <pt x="334" y="630" on="1"/>
        <pt x="374" y="630" on="0"/>
        <pt x="425" y="620" on="0"/>
        <pt x="449" y="611" on="1"/>
        <pt x="433" y="541" on="1"/>
        <pt x="412" y="549" on="0"/>
        <pt x="361" y="559" on="0"/>
        <pt x="334" y="559" on="1"/>
        <pt x="266" y="559" on="0"/>
        <pt x="202" y="484" on="0"/>
        <pt x="192" y="421" on="1"/>
        <pt x="391" y="421" on="1"/>
        <pt x="379" y="357" on="1"/>
        <pt x="183" y="357" on="1"/>
        <pt x="182" y="346" on="0"/>
        <pt x="182" y="323" on="0"/>
        <pt x="182" y="310" on="1"/>
        <pt x="182" y="299" on="0"/>
        <pt x="182" y="277" on="0"/>
        <pt x="183" y="267" on="1"/>
        <pt x="362" y="267" on="1"/>
        <pt x="350" y="203" on="1"/>
        <pt x="190" y="203" on="1"/>
        <pt x="203" y="123" on="0"/>
        <pt x="276" y="61" on="0"/>
        <pt x="336" y="61" on="1"/>
        <pt x="374" y="61" on="0"/>
        <pt x="428" y="74" on="0"/>
        <pt x="449" y="85" on="1"/>
        <pt x="467" y="14" on="1"/>
        <pt x="452" y="6" on="0"/>
        <pt x="377" y="-12" on="0"/>
        <pt x="331" y="-12" on="1"/>
        <pt x="227" y="-12" on="0"/>
        <pt x="118" y="102" on="0"/>
        <pt x="104" y="203" on="1"/>
        <pt x="36" y="203" on="1"/>
        <pt x="36" y="267" on="1"/>
        <pt x="97" y="267" on="1"/>
        <pt x="96" y="277" on="0"/>
        <pt x="96" y="299" on="0"/>
        <pt x="96" y="310" on="1"/>
        <pt x="96" y="323" on="0"/>
        <pt x="96" y="346" on="0"/>
        <pt x="97" y="357" on="1"/>
        <pt x="36" y="357" on="1"/>
        <pt x="36" y="421" on="1"/>
      </contour>
    </TTGlyph>
    <TTGlyph name="Exclamdown" xMin="182" yMin="-6" xMax="316" yMax="624">
      <component glyphName="exclamdown" x="0" y="159" flags="0x204"/>
    </TTGlyph>
    <TTGlyph name="F" xMin="91" yMin="0" xMax="442" yMax="619">
      <contour>
        <pt x="91" y="0" on="1"/>
        <pt x="91" y="619" on="1"/>
        <pt x="442" y="619" on="1"/>
        <pt x="442" y="549" on="1"/>
        <pt x="173" y="549" on="1"/>
        <pt x="173" y="356" on="1"/>
        <pt x="410" y="356" on="1"/>
        <pt x="410" y="287" on="1"/>
        <pt x="173" y="287" on="1"/>
        <pt x="173" y="0" on="1"/>
      </contour>
    </TTGlyph>
    <TTGlyph name="G" xMin="46" yMin="-13" xMax="455" yMax="633">
      <contour>
        <pt x="373" y="305" on="1"/>
        <pt x="455" y="305" on="1"/>
        <pt x="455" y="15" on="1"/>
        <pt x="436" y="8" on="0"/>
        <pt x="352" y="-13" on="0"/>
        <pt x="295" y="-13" on="1"/>
        <pt x="239" y="-13" on="0"/>
        <pt x="147" y="30" on="0"/>
        <pt x="82" y="112" on="0"/>
        <pt x="46" y="233" on="0"/>
        <pt x="46" y="310" on="1"/>
        <pt x="46" y="388" on="0"/>
        <pt x="86" y="508" on="0"/>
        <pt x="155" y="590" on="0"/>
        <pt x="247" y="633" on="0"/>
        <pt x="300" y="633" on="1"/>
        <pt x="334" y="633" on="0"/>
        <pt x="386" y="623" on="0"/>
        <pt x="423" y="609" on="0"/>
        <pt x="447" y="594" on="0"/>
        <pt x="453" y="590" on="1"/>
        <pt x="426" y="521" on="1"/>
        <pt x="403" y="539" on="0"/>
        <pt x="340" y="562" on="0"/>
        <pt x="305" y="562" on="1"/>
        <pt x="267" y="562" on="0"/>
        <pt x="202" y="526" on="0"/>
        <pt x="156" y="460" on="0"/>
        <pt x="130" y="367" on="0"/>
        <pt x="130" y="310" on="1"/>
        <pt x="130" y="254" on="0"/>
        <pt x="153" y="162" on="0"/>
        <pt x="197" y="96" on="0"/>
        <pt x="262" y="59" on="0"/>
        <pt x="304" y="59" on="1"/>
        <pt x="333" y="59" on="0"/>
        <pt x="365" y="67" on="0"/>
        <pt x="373" y="71" on="1"/>
      </contour>
    </TTGlyph>
    <TTGlyph name="Gamma" xMin="54" yMin="0" xMax="460" yMax="619">
      <component glyphName="afii10020" x="0" y="0" flags="0x204"/>
    </TTGlyph>
    <TTGlyph name="Gbreve" xMin="46" yMin="-13" xMax="455" yMax="808">
      <component glyphName="G" x="0" y="0" flags="0x204"/>
      <component glyphName="breve" x="54" y="139" flags="0x4"/>
    </TTGlyph>
    <TTGlyph name="Gcaron" xMin="46" yMin="-13" xMax="455" yMax="829">
      <component glyphName="G" x="0" y="0" flags="0x204"/>
      <component glyphName="caron" x="54" y="139" flags="0x4"/>
    </TTGlyph>
    <TTGlyph name="Gcircumflex" xMin="46" yMin="-13" xMax="455" yMax="826">
      <component glyphName="G" x="0" y="0" flags="0x204"/>
      <component glyphName="circumflex" x="45" y="139" flags="0x4"/>
    </TTGlyph>
    <TTGlyph name="Gcommaaccent" xMin="46" yMin="-170" xMax="455" yMax="633">
      <component glyphName="G" x="0" y="0" flags="0x204"/>
      <component glyphName="commaaccent" x="18" y="0" flags="0x4"/>
    </TTGlyph>
    <TTGlyph name="Gdotaccent" xMin="46" yMin="-13" xMax="455" yMax="802">
      <component glyphName="G" x="0" y="0" flags="0x204"/>
      <component glyphName="dotaccent" x="45" y="139" flags="0x4"/>
    </TTGlyph>
    <TTGlyph name="Guillemotleft" xMin="63" yMin="133" xMax="413" yMax="484">
      <component glyphName="guillemotleft" x="0" y="54" flags="0x204"/>
    </TTGlyph>
    <TTGlyph name="Guillemotright" xMin="85" yMin="133" xMax="437" yMax="484">
      <component glyphName="guillemotright" x="0" y="54" flags="0x204"/>
    </TTGlyph>
    <TTGlyph name="Guilsinglleft" xMin="144" yMin="111" xMax="341" yMax="506">
      <component glyphName="guilsinglleft" x="0" y="55" flags="0x204"/>
    </TTGlyph>
    <TTGlyph name="Guilsinglright" xMin="159" yMin="111" xMax="356" yMax="506">
      <component glyphName="guilsinglright" x="0" y="55" flags="0x204"/>
    </TTGlyph>
    <TTGlyph name="H" xMin="45" yMin="0" xMax="455" yMax="619">
      <contour>
        <pt x="373" y="619" on="1"/>
        <pt x="455" y="619" on="1"/>
        <pt x="455" y="0" on="1"/>
        <pt x="373" y="0" on="1"/>
        <pt x="373" y="288" on="1"/>
        <pt x="127" y="288" on="1"/>
        <pt x="127" y="0" on="1"/>
        <pt x="45" y="0" on="1"/>
        <pt x="45" y="619" on="1"/>
        <pt x="127" y="619" on="1"/>
        <pt x="127" y="358" on="1"/>
        <pt x="373" y="358" on="1"/>
      </contour>
    </TTGlyph>
    <TTGlyph name="Hbar" xMin="18" yMin="0" xMax="482" yMax="619">
      <contour>
        <pt x="429" y="468" on="1"/>
        <pt x="429" y="0" on="1"/>
        <pt x="346" y="0" on="1"/>
        <pt x="346" y="288" on="1"/>
        <pt x="154" y="288" on="1"/>
        <pt x="154" y="0" on="1"/>
        <pt x="71" y="0" on="1"/>
        <pt x="71" y="468" on="1"/>
        <pt x="18" y="468" on="1"/>
        <pt x="18" y="529" on="1"/>
        <pt x="71" y="529" on="1"/>
        <pt x="71" y="619" on="1"/>
        <pt x="154" y="619" on="1"/>
        <pt x="154" y="529" on="1"/>
        <pt x="346" y="529" on="1"/>
        <pt x="346" y="619" on="1"/>
        <pt x="429" y="619" on="1"/>
        <pt x="429" y="529" on="1"/>
        <pt x="482" y="529" on="1"/>
        <pt x="482" y="468" on="1"/>
      </contour>
      <contour>
        <pt x="346" y="468" on="1"/>
        <pt x="154" y="468" on="1"/>
        <pt x="154" y="358" on="1"/>
        <pt x="346" y="358" on="1"/>
      </contour>
    </TTGlyph>
    <TTGlyph name="Hcircumflex" xMin="45" yMin="0" xMax="455" yMax="826">
      <component glyphName="H" x="0" y="0" flags="0x204"/>
      <component glyphName="circumflex" x="0" y="139" flags="0x4"/>
    </TTGlyph>
    <TTGlyph name="Hyphen" xMin="140" yMin="269" xMax="360" yMax="347">
      <component glyphName="hyphen" x="0" y="54" flags="0x204"/>
    </TTGlyph>
    <TTGlyph name="I" xMin="89" yMin="0" xMax="411" yMax="619">
      <contour>
        <pt x="291" y="549" on="1"/>
        <pt x="291" y="70" on="1"/>
        <pt x="411" y="70" on="1"/>
        <pt x="411" y="0" on="1"/>
        <pt x="89" y="0" on="1"/>
        <pt x="89" y="70" on="1"/>
        <pt x="209" y="70" on="1"/>
        <pt x="209" y="549" on="1"/>
        <pt x="89" y="549" on="1"/>
        <pt x="89" y="619" on="1"/>
        <pt x="411" y="619" on="1"/>
        <pt x="411" y="549" on="1"/>
      </contour>
    </TTGlyph>
    <TTGlyph name="IJ" xMin="42" yMin="-13" xMax="471" yMax="619">
      <contour>
        <pt x="124" y="0" on="1"/>
        <pt x="42" y="0" on="1"/>
        <pt x="42" y="619" on="1"/>
        <pt x="124" y="619" on="1"/>
      </contour>
      <contour>
        <pt x="471" y="619" on="1"/>
        <pt x="471" y="171" on="1"/>
        <pt x="471" y="73" on="0"/>
        <pt x="384" y="-13" on="0"/>
        <pt x="309" y="-13" on="1"/>
        <pt x="274" y="-13" on="0"/>
        <pt x="204" y="12" on="0"/>
        <pt x="177" y="37" on="1"/>
        <pt x="210" y="104" on="1"/>
        <pt x="227" y="85" on="0"/>
        <pt x="274" y="58" on="0"/>
        <pt x="308" y="58" on="1"/>
        <pt x="347" y="58" on="0"/>
        <pt x="388" y="109" on="0"/>
        <pt x="388" y="172" on="1"/>
        <pt x="388" y="619" on="1"/>
      </contour>
    </TTGlyph>
    <TTGlyph name="Iacute" xMin="89" yMin="0" xMax="411" yMax="830">
      <component glyphName="I" x="0" y="0" flags="0x204"/>
      <component glyphName="acute" x="10" y="137" flags="0x4"/>
    </TTGlyph>
    <TTGlyph name="Ibreve" xMin="89" yMin="0" xMax="411" yMax="808">
      <component glyphName="I" x="0" y="0" flags="0x204"/>
      <component glyphName="breve" x="0" y="139" flags="0x4"/>
    </TTGlyph>
    <TTGlyph name="Icircumflex" xMin="89" yMin="0" xMax="411" yMax="826">
      <component glyphName="I" x="0" y="0" flags="0x204"/>
      <component glyphName="circumflex" x="0" y="139" flags="0x4"/>
    </TTGlyph>
    <TTGlyph name="Idieresis" xMin="89" yMin="0" xMax="411" yMax="794">
      <component glyphName="I" x="0" y="0" flags="0x204"/>
      <component glyphName="dieresis" x="0" y="139" flags="0x4"/>
    </TTGlyph>
    <TTGlyph name="Idotaccent" xMin="89" yMin="0" xMax="411" yMax="802">
      <component glyphName="I" x="0" y="0" flags="0x204"/>
      <component glyphName="dotaccent" x="0" y="139" flags="0x4"/>
    </TTGlyph>
    <TTGlyph name="Igrave" xMin="89" yMin="0" xMax="411" yMax="830">
      <component glyphName="I" x="0" y="0" flags="0x204"/>
      <component glyphName="grave" x="5" y="137" flags="0x4"/>
    </TTGlyph>
    <TTGlyph name="Imacron" xMin="89" yMin="0" xMax="411" yMax="774">
      <component glyphName="I" x="0" y="0" flags="0x204"/>
      <component glyphName="macron" x="0" y="139" flags="0x4"/>
    </TTGlyph>
    <TTGlyph name="Iogonek" xMin="89" yMin="-167" xMax="411" yMax="619">
      <contour>
        <pt x="291" y="549" on="1"/>
        <pt x="291" y="70" on="1"/>
        <pt x="411" y="70" on="1"/>
        <pt x="411" y="0" on="1"/>
        <pt x="292" y="0" on="1"/>
        <pt x="276" y="-12" on="0"/>
        <pt x="253" y="-35" on="1"/>
        <pt x="240" y="-49" on="0"/>
        <pt x="224" y="-70" on="0"/>
        <pt x="224" y="-83" on="1"/>
        <pt x="224" y="-109" on="0"/>
        <pt x="260" y="-109" on="1"/>
        <pt x="266" y="-109" on="0"/>
        <pt x="286" y="-106" on="0"/>
        <pt x="296" y="-103" on="1"/>
        <pt x="303" y="-157" on="1"/>
        <pt x="280" y="-167" on="0"/>
        <pt x="244" y="-167" on="1"/>
        <pt x="193" y="-167" on="0"/>
        <pt x="146" y="-131" on="0"/>
        <pt x="146" y="-99" on="1"/>
        <pt x="146" y="-78" on="0"/>
        <pt x="168" y="-41" on="0"/>
        <pt x="184" y="-24" on="1"/>
        <pt x="197" y="-8" on="0"/>
        <pt x="208" y="0" on="1"/>
        <pt x="89" y="0" on="1"/>
        <pt x="89" y="70" on="1"/>
        <pt x="209" y="70" on="1"/>
        <pt x="209" y="549" on="1"/>
        <pt x="89" y="549" on="1"/>
        <pt x="89" y="619" on="1"/>
        <pt x="411" y="619" on="1"/>
        <pt x="411" y="549" on="1"/>
      </contour>
    </TTGlyph>
    <TTGlyph name="Iota" xMin="89" yMin="0" xMax="411" yMax="619">
      <component glyphName="I" x="0" y="0" flags="0x204"/>
    </TTGlyph>
    <TTGlyph name="Iotadieresis" xMin="89" yMin="0" xMax="411" yMax="794">
      <component glyphName="I" x="0" y="0" flags="0x204"/>
      <component glyphName="dieresis" x="0" y="139" flags="0x4"/>
    </TTGlyph>
    <TTGlyph name="Iotatonos" xMin="-74" yMin="0" xMax="411" yMax="633">
      <component glyphName="I" x="0" y="0" flags="0x204"/>
      <component glyphName="tonos.cap" x="-280" y="0" flags="0x4"/>
    </TTGlyph>
    <TTGlyph name="Itilde" xMin="89" yMin="0" xMax="411" yMax="796">
      <component glyphName="I" x="0" y="0" flags="0x204"/>
      <component glyphName="tilde" x="0" y="139" flags="0x4"/>
    </TTGlyph>
    <TTGlyph name="J" xMin="54" yMin="-13" xMax="420" yMax="619">
      <contour>
        <pt x="127" y="549" on="1"/>
        <pt x="127" y="619" on="1"/>
        <pt x="420" y="619" on="1"/>
        <pt x="420" y="199" on="1"/>
        <pt x="420" y="155" on="0"/>
        <pt x="401" y="77" on="0"/>
        <pt x="354" y="20" on="0"/>
        <pt x="275" y="-13" on="0"/>
        <pt x="215" y="-13" on="1"/>
        <pt x="155" y="-13" on="0"/>
        <pt x="73" y="21" on="0"/>
        <pt x="54" y="37" on="1"/>
        <pt x="87" y="104" on="1"/>
        <pt x="106" y="90" on="0"/>
        <pt x="169" y="58" on="0"/>
        <pt x="211" y="58" on="1"/>
        <pt x="275" y="58" on="0"/>
        <pt x="338" y="126" on="0"/>
        <pt x="338" y="207" on="1"/>
        <pt x="338" y="549" on="1"/>
      </contour>
    </TTGlyph>
    <TTGlyph name="Jcircumflex" xMin="54" yMin="-13" xMax="421" yMax="826">
      <component glyphName="J" x="0" y="0" flags="0x204"/>
      <component glyphName="circumflex" x="50" y="139" flags="0x4"/>
    </TTGlyph>
    <TTGlyph name="K" xMin="64" yMin="0" xMax="491" yMax="619">
      <contour>
        <pt x="470" y="619" on="1"/>
        <pt x="421" y="546" on="0"/>
        <pt x="304" y="402" on="0"/>
        <pt x="236" y="330" on="1"/>
        <pt x="268" y="303" on="0"/>
        <pt x="340" y="231" on="0"/>
        <pt x="409" y="146" on="0"/>
        <pt x="470" y="50" on="0"/>
        <pt x="491" y="0" on="1"/>
        <pt x="398" y="0" on="1"/>
        <pt x="373" y="46" on="0"/>
        <pt x="315" y="134" on="0"/>
        <pt x="250" y="210" on="0"/>
        <pt x="181" y="273" on="0"/>
        <pt x="146" y="296" on="1"/>
        <pt x="146" y="0" on="1"/>
        <pt x="64" y="0" on="1"/>
        <pt x="64" y="619" on="1"/>
        <pt x="146" y="619" on="1"/>
        <pt x="146" y="343" on="1"/>
        <pt x="211" y="410" on="0"/>
        <pt x="330" y="556" on="0"/>
        <pt x="375" y="619" on="1"/>
      </contour>
    </TTGlyph>
    <TTGlyph name="Kappa" xMin="64" yMin="0" xMax="464" yMax="619">
      <contour>
        <pt x="443" y="619" on="1"/>
        <pt x="413" y="569" on="0"/>
        <pt x="361" y="492" on="0"/>
        <pt x="311" y="424" on="0"/>
        <pt x="259" y="362" on="0"/>
        <pt x="228" y="328" on="1"/>
        <pt x="258" y="301" on="0"/>
        <pt x="324" y="230" on="0"/>
        <pt x="387" y="145" on="0"/>
        <pt x="443" y="50" on="0"/>
        <pt x="464" y="0" on="1"/>
        <pt x="371" y="0" on="1"/>
        <pt x="349" y="46" on="0"/>
        <pt x="297" y="134" on="0"/>
        <pt x="239" y="212" on="0"/>
        <pt x="177" y="275" on="0"/>
        <pt x="146" y="298" on="1"/>
        <pt x="146" y="0" on="1"/>
        <pt x="64" y="0" on="1"/>
        <pt x="64" y="619" on="1"/>
        <pt x="146" y="619" on="1"/>
        <pt x="146" y="343" on="1"/>
        <pt x="174" y="375" on="0"/>
        <pt x="231" y="445" on="0"/>
        <pt x="283" y="516" on="0"/>
        <pt x="329" y="586" on="0"/>
        <pt x="348" y="619" on="1"/>
      </contour>
    </TTGlyph>
    <TTGlyph name="Kcommaaccent" xMin="64" yMin="-170" xMax="491" yMax="619">
      <component glyphName="K" x="0" y="0" flags="0x204"/>
      <component glyphName="commaaccent" x="-17" y="0" flags="0x4"/>
    </TTGlyph>
    <TTGlyph name="L" xMin="91" yMin="0" xMax="460" yMax="619">
      <contour>
        <pt x="460" y="70" on="1"/>
        <pt x="460" y="0" on="1"/>
        <pt x="91" y="0" on="1"/>
        <pt x="91" y="619" on="1"/>
        <pt x="173" y="619" on="1"/>
        <pt x="173" y="70" on="1"/>
      </contour>
    </TTGlyph>
    <TTGlyph name="Lacute" xMin="91" yMin="0" xMax="460" yMax="830">
      <component glyphName="L" x="0" y="0" flags="0x204"/>
      <component glyphName="acute" x="-62" y="137" flags="0x4"/>
    </TTGlyph>
    <TTGlyph name="Lambda" xMin="9" yMin="0" xMax="491" yMax="619">
      <contour>
        <pt x="402" y="0" on="1"/>
        <pt x="382" y="101" on="0"/>
        <pt x="335" y="279" on="0"/>
        <pt x="292" y="422" on="0"/>
        <pt x="257" y="523" on="0"/>
        <pt x="249" y="547" on="1"/>
        <pt x="240" y="522" on="0"/>
        <pt x="204" y="419" on="0"/>
        <pt x="160" y="275" on="0"/>
        <pt x="113" y="98" on="0"/>
        <pt x="93" y="0" on="1"/>
        <pt x="9" y="0" on="1"/>
        <pt x="32" y="89" on="0"/>
        <pt x="76" y="246" on="0"/>
        <pt x="121" y="395" on="0"/>
        <pt x="171" y="541" on="0"/>
        <pt x="201" y="619" on="1"/>
        <pt x="303" y="619" on="1"/>
        <pt x="329" y="549" on="0"/>
        <pt x="383" y="386" on="0"/>
        <pt x="432" y="221" on="0"/>
        <pt x="475" y="64" on="0"/>
        <pt x="491" y="0" on="1"/>
      </contour>
    </TTGlyph>
    <TTGlyph name="Lcaron" xMin="91" yMin="0" xMax="460" yMax="620">
      <component glyphName="L" x="0" y="0" flags="0x204"/>
      <component glyphName="caron.alt" x="44" y="-73" flags="0x4"/>
    </TTGlyph>
    <TTGlyph name="Lcommaaccent" xMin="91" yMin="-170" xMax="460" yMax="619">
      <component glyphName="L" x="0" y="0" flags="0x204"/>
      <component glyphName="commaaccent" x="0" y="0" flags="0x4"/>
    </TTGlyph>
    <TTGlyph name="Ldot" xMin="91" yMin="0" xMax="460" yMax="619">
      <component glyphName="L" x="0" y="0" flags="0x204"/>
      <component glyphName="dotaccent" x="113" y="-278" flags="0x4"/>
    </TTGlyph>
    <TTGlyph name="Lslash" xMin="18" yMin="0" xMax="460" yMax="619">
      <contour>
        <pt x="460" y="70" on="1"/>
        <pt x="460" y="0" on="1"/>
        <pt x="113" y="0" on="1"/>
        <pt x="113" y="256" on="1"/>
        <pt x="47" y="222" on="1"/>
        <pt x="18" y="281" on="1"/>
        <pt x="113" y="330" on="1"/>
        <pt x="113" y="619" on="1"/>
        <pt x="196" y="619" on="1"/>
        <pt x="196" y="373" on="1"/>
        <pt x="303" y="428" on="1"/>
        <pt x="331" y="369" on="1"/>
        <pt x="196" y="299" on="1"/>
        <pt x="196" y="70" on="1"/>
      </contour>
    </TTGlyph>
    <TTGlyph name="M" xMin="32" yMin="0" xMax="468" yMax="619">
      <contour>
        <pt x="251" y="311" on="1"/>
        <pt x="347" y="619" on="1"/>
        <pt x="424" y="619" on="1"/>
        <pt x="444" y="473" on="0"/>
        <pt x="461" y="167" on="0"/>
        <pt x="468" y="0" on="1"/>
        <pt x="388" y="0" on="1"/>
        <pt x="387" y="54" on="0"/>
        <pt x="385" y="180" on="0"/>
        <pt x="382" y="314" on="0"/>
        <pt x="379" y="452" on="0"/>
        <pt x="377" y="517" on="1"/>
        <pt x="287" y="235" on="1"/>
        <pt x="215" y="235" on="1"/>
        <pt x="123" y="517" on="1"/>
        <pt x="122" y="452" on="0"/>
        <pt x="119" y="315" on="0"/>
        <pt x="116" y="180" on="0"/>
        <pt x="113" y="54" on="0"/>
        <pt x="112" y="0" on="1"/>
        <pt x="32" y="0" on="1"/>
        <pt x="35" y="76" on="0"/>
        <pt x="43" y="236" on="0"/>
        <pt x="54" y="394" on="0"/>
        <pt x="69" y="548" on="0"/>
        <pt x="78" y="619" on="1"/>
        <pt x="154" y="619" on="1"/>
      </contour>
    </TTGlyph>
    <TTGlyph name="Mu" xMin="34" yMin="0" xMax="467" yMax="619">
      <contour>
        <pt x="250" y="311" on="1"/>
        <pt x="341" y="619" on="1"/>
        <pt x="432" y="619" on="1"/>
        <pt x="438" y="560" on="0"/>
        <pt x="448" y="414" on="0"/>
        <pt x="456" y="253" on="0"/>
        <pt x="464" y="83" on="0"/>
        <pt x="467" y="0" on="1"/>
        <pt x="388" y="0" on="1"/>
        <pt x="386" y="54" on="0"/>
        <pt x="384" y="184" on="0"/>
        <pt x="381" y="322" on="0"/>
        <pt x="378" y="463" on="0"/>
        <pt x="376" y="528" on="1"/>
        <pt x="291" y="235" on="1"/>
        <pt x="209" y="235" on="1"/>
        <pt x="122" y="528" on="1"/>
        <pt x="122" y="463" on="0"/>
        <pt x="120" y="322" on="0"/>
        <pt x="117" y="184" on="0"/>
        <pt x="114" y="54" on="0"/>
        <pt x="113" y="0" on="1"/>
        <pt x="34" y="0" on="1"/>
        <pt x="40" y="161" on="0"/>
        <pt x="54" y="464" on="0"/>
        <pt x="68" y="619" on="1"/>
        <pt x="159" y="619" on="1"/>
      </contour>
    </TTGlyph>
    <TTGlyph name="N" xMin="55" yMin="0" xMax="445" yMax="619">
      <contour>
        <pt x="361" y="0" on="1"/>
        <pt x="327" y="83" on="0"/>
        <pt x="267" y="218" on="0"/>
        <pt x="212" y="336" on="0"/>
        <pt x="158" y="441" on="0"/>
        <pt x="130" y="494" on="1"/>
        <pt x="130" y="0" on="1"/>
        <pt x="55" y="0" on="1"/>
        <pt x="55" y="619" on="1"/>
        <pt x="139" y="619" on="1"/>
        <pt x="180" y="544" on="0"/>
        <pt x="241" y="432" on="0"/>
        <pt x="292" y="327" on="0"/>
        <pt x="340" y="216" on="0"/>
        <pt x="370" y="143" on="1"/>
        <pt x="370" y="619" on="1"/>
        <pt x="445" y="619" on="1"/>
        <pt x="445" y="0" on="1"/>
      </contour>
    </TTGlyph>
    <TTGlyph name="Nacute" xMin="55" yMin="0" xMax="445" yMax="830">
      <component glyphName="N" x="0" y="0" flags="0x204"/>
      <component glyphName="acute" x="9" y="137" flags="0x4"/>
    </TTGlyph>
    <TTGlyph name="Ncaron" xMin="55" yMin="0" xMax="445" yMax="829">
      <component glyphName="N" x="0" y="0" flags="0x204"/>
      <component glyphName="caron" x="0" y="139" flags="0x4"/>
    </TTGlyph>
    <TTGlyph name="Ncommaaccent" xMin="55" yMin="-170" xMax="445" yMax="619">
      <component glyphName="N" x="0" y="0" flags="0x204"/>
      <component glyphName="commaaccent" x="-8" y="0" flags="0x4"/>
    </TTGlyph>
    <TTGlyph name="Ntilde" xMin="55" yMin="0" xMax="445" yMax="796">
      <component glyphName="N" x="0" y="0" flags="0x204"/>
      <component glyphName="tilde" x="0" y="139" flags="0x4"/>
    </TTGlyph>
    <TTGlyph name="Nu" xMin="55" yMin="0" xMax="446" yMax="619">
      <contour>
        <pt x="363" y="0" on="1"/>
        <pt x="346" y="42" on="0"/>
        <pt x="297" y="151" on="0"/>
        <pt x="237" y="278" on="0"/>
        <pt x="167" y="420" on="0"/>
        <pt x="130" y="494" on="1"/>
        <pt x="130" y="0" on="1"/>
        <pt x="55" y="0" on="1"/>
        <pt x="55" y="619" on="1"/>
        <pt x="138" y="619" on="1"/>
        <pt x="169" y="565" on="0"/>
        <pt x="239" y="434" on="0"/>
        <pt x="303" y="302" on="0"/>
        <pt x="356" y="181" on="0"/>
        <pt x="371" y="138" on="1"/>
        <pt x="371" y="619" on="1"/>
        <pt x="446" y="619" on="1"/>
        <pt x="446" y="0" on="1"/>
      </contour>
    </TTGlyph>
    <TTGlyph name="O" xMin="29" yMin="-13" xMax="472" yMax="633">
      <contour>
        <pt x="29" y="310" on="1"/>
        <pt x="29" y="393" on="0"/>
        <pt x="61" y="515" on="0"/>
        <pt x="119" y="594" on="0"/>
        <pt x="200" y="633" on="0"/>
        <pt x="250" y="633" on="1"/>
        <pt x="299" y="633" on="0"/>
        <pt x="381" y="594" on="0"/>
        <pt x="439" y="515" on="0"/>
        <pt x="472" y="393" on="0"/>
        <pt x="472" y="310" on="1"/>
        <pt x="472" y="227" on="0"/>
        <pt x="439" y="105" on="0"/>
        <pt x="381" y="25" on="0"/>
        <pt x="299" y="-13" on="0"/>
        <pt x="250" y="-13" on="1"/>
        <pt x="200" y="-13" on="0"/>
        <pt x="119" y="25" on="0"/>
        <pt x="61" y="105" on="0"/>
        <pt x="29" y="227" on="0"/>
      </contour>
      <contour>
        <pt x="113" y="310" on="1"/>
        <pt x="113" y="188" on="0"/>
        <pt x="179" y="58" on="0"/>
        <pt x="248" y="58" on="1"/>
        <pt x="318" y="58" on="0"/>
        <pt x="388" y="188" on="0"/>
        <pt x="388" y="310" on="1"/>
        <pt x="388" y="432" on="0"/>
        <pt x="318" y="562" on="0"/>
        <pt x="248" y="562" on="1"/>
        <pt x="179" y="562" on="0"/>
        <pt x="113" y="432" on="0"/>
      </contour>
    </TTGlyph>
    <TTGlyph name="OE" xMin="27" yMin="-6" xMax="482" yMax="625">
      <contour>
        <pt x="220" y="554" on="1"/>
        <pt x="193" y="554" on="0"/>
        <pt x="150" y="518" on="0"/>
        <pt x="122" y="452" on="0"/>
        <pt x="107" y="359" on="0"/>
        <pt x="107" y="301" on="1"/>
        <pt x="107" y="185" on="0"/>
        <pt x="164" y="65" on="0"/>
        <pt x="220" y="65" on="1"/>
        <pt x="240" y="65" on="0"/>
        <pt x="260" y="71" on="0"/>
        <pt x="263" y="72" on="1"/>
        <pt x="263" y="547" on="1"/>
        <pt x="250" y="552" on="0"/>
        <pt x="229" y="554" on="0"/>
      </contour>
      <contour>
        <pt x="220" y="-6" on="1"/>
        <pt x="131" y="-6" on="0"/>
        <pt x="27" y="141" on="0"/>
        <pt x="27" y="301" on="1"/>
        <pt x="27" y="461" on="0"/>
        <pt x="131" y="625" on="0"/>
        <pt x="221" y="625" on="1"/>
        <pt x="232" y="625" on="0"/>
        <pt x="262" y="621" on="0"/>
        <pt x="276" y="619" on="1"/>
        <pt x="469" y="619" on="1"/>
        <pt x="469" y="549" on="1"/>
        <pt x="341" y="549" on="1"/>
        <pt x="341" y="359" on="1"/>
        <pt x="446" y="359" on="1"/>
        <pt x="446" y="289" on="1"/>
        <pt x="341" y="289" on="1"/>
        <pt x="341" y="70" on="1"/>
        <pt x="482" y="70" on="1"/>
        <pt x="482" y="0" on="1"/>
        <pt x="276" y="0" on="1"/>
        <pt x="247" y="-6" on="0"/>
      </contour>
    </TTGlyph>
    <TTGlyph name="Oacute" xMin="29" yMin="-13" xMax="472" yMax="830">
      <component glyphName="O" x="0" y="0" flags="0x204"/>
      <component glyphName="acute" x="9" y="137" flags="0x4"/>
    </TTGlyph>
    <TTGlyph name="Obreve" xMin="29" yMin="-13" xMax="472" yMax="808">
      <component glyphName="O" x="0" y="0" flags="0x204"/>
      <component glyphName="breve" x="0" y="139" flags="0x4"/>
    </TTGlyph>
    <TTGlyph name="Ocircumflex" xMin="29" yMin="-13" xMax="472" yMax="826">
      <component glyphName="O" x="0" y="0" flags="0x204"/>
      <component glyphName="circumflex" x="0" y="139" flags="0x4"/>
    </TTGlyph>
    <TTGlyph name="Odieresis" xMin="29" yMin="-13" xMax="472" yMax="794">
      <component glyphName="O" x="0" y="0" flags="0x204"/>
      <component glyphName="dieresis" x="0" y="139" flags="0x4"/>
    </TTGlyph>
    <TTGlyph name="Ograve" xMin="29" yMin="-13" xMax="472" yMax="830">
      <component glyphName="O" x="0" y="0" flags="0x204"/>
      <component glyphName="grave" x="5" y="137" flags="0x4"/>
    </TTGlyph>
    <TTGlyph name="Ohorn" xMin="29" yMin="-13" xMax="494" yMax="715">
      <contour>
        <pt x="29" y="310" on="1"/>
        <pt x="29" y="393" on="0"/>
        <pt x="61" y="515" on="0"/>
        <pt x="119" y="594" on="0"/>
        <pt x="200" y="633" on="0"/>
        <pt x="250" y="633" on="1"/>
        <pt x="330" y="633" on="0"/>
        <pt x="383" y="584" on="1"/>
        <pt x="403" y="607" on="0"/>
        <pt x="413" y="652" on="0"/>
        <pt x="413" y="681" on="1"/>
        <pt x="413" y="690" on="0"/>
        <pt x="412" y="710" on="0"/>
        <pt x="411" y="715" on="1"/>
        <pt x="493" y="715" on="1"/>
        <pt x="494" y="705" on="0"/>
        <pt x="494" y="688" on="0"/>
        <pt x="494" y="683" on="1"/>
        <pt x="494" y="640" on="0"/>
        <pt x="458" y="564" on="0"/>
        <pt x="424" y="532" on="1"/>
        <pt x="447" y="493" on="0"/>
        <pt x="472" y="382" on="0"/>
        <pt x="472" y="310" on="1"/>
        <pt x="472" y="227" on="0"/>
        <pt x="439" y="105" on="0"/>
        <pt x="381" y="25" on="0"/>
        <pt x="299" y="-13" on="0"/>
        <pt x="250" y="-13" on="1"/>
        <pt x="200" y="-13" on="0"/>
        <pt x="119" y="25" on="0"/>
        <pt x="61" y="105" on="0"/>
        <pt x="29" y="227" on="0"/>
      </contour>
      <contour>
        <pt x="113" y="310" on="1"/>
        <pt x="113" y="188" on="0"/>
        <pt x="179" y="58" on="0"/>
        <pt x="248" y="58" on="1"/>
        <pt x="318" y="58" on="0"/>
        <pt x="388" y="188" on="0"/>
        <pt x="388" y="310" on="1"/>
        <pt x="388" y="432" on="0"/>
        <pt x="318" y="562" on="0"/>
        <pt x="248" y="562" on="1"/>
        <pt x="179" y="562" on="0"/>
        <pt x="113" y="432" on="0"/>
      </contour>
    </TTGlyph>
    <TTGlyph name="Ohungarumlaut" xMin="29" yMin="-13" xMax="472" yMax="830">
      <component glyphName="O" x="0" y="0" flags="0x204"/>
      <component glyphName="hungarumlaut" x="36" y="137" flags="0x4"/>
    </TTGlyph>
    <TTGlyph name="Omacron" xMin="29" yMin="-13" xMax="472" yMax="774">
      <component glyphName="O" x="0" y="0" flags="0x204"/>
      <component glyphName="macron" x="0" y="139" flags="0x4"/>
    </TTGlyph>
    <TTGlyph name="Omega" xMin="18" yMin="0" xMax="482" yMax="633">
      <contour>
        <pt x="18" y="70" on="1"/>
        <pt x="127" y="70" on="1"/>
        <pt x="79" y="131" on="0"/>
        <pt x="33" y="280" on="0"/>
        <pt x="33" y="354" on="1"/>
        <pt x="33" y="409" on="0"/>
        <pt x="60" y="511" on="0"/>
        <pt x="115" y="587" on="0"/>
        <pt x="197" y="633" on="0"/>
        <pt x="251" y="633" on="1"/>
        <pt x="305" y="633" on="0"/>
        <pt x="387" y="587" on="0"/>
        <pt x="442" y="511" on="0"/>
        <pt x="469" y="409" on="0"/>
        <pt x="469" y="354" on="1"/>
        <pt x="469" y="280" on="0"/>
        <pt x="422" y="131" on="0"/>
        <pt x="375" y="70" on="1"/>
        <pt x="482" y="70" on="1"/>
        <pt x="482" y="0" on="1"/>
        <pt x="285" y="0" on="1"/>
        <pt x="285" y="60" on="1"/>
        <pt x="309" y="86" on="0"/>
        <pt x="347" y="154" on="0"/>
        <pt x="372" y="231" on="0"/>
        <pt x="386" y="313" on="0"/>
        <pt x="386" y="353" on="1"/>
        <pt x="386" y="395" on="0"/>
        <pt x="370" y="471" on="0"/>
        <pt x="337" y="528" on="0"/>
        <pt x="286" y="562" on="0"/>
        <pt x="251" y="562" on="1"/>
        <pt x="216" y="562" on="0"/>
        <pt x="165" y="528" on="0"/>
        <pt x="132" y="471" on="0"/>
        <pt x="116" y="395" on="0"/>
        <pt x="116" y="353" on="1"/>
        <pt x="116" y="313" on="0"/>
        <pt x="130" y="231" on="0"/>
        <pt x="155" y="154" on="0"/>
        <pt x="193" y="86" on="0"/>
        <pt x="217" y="60" on="1"/>
        <pt x="217" y="0" on="1"/>
        <pt x="18" y="0" on="1"/>
      </contour>
    </TTGlyph>
    <TTGlyph name="Omegatonos" xMin="-74" yMin="0" xMax="482" yMax="633">
      <component glyphName="Omega" x="0" y="0" flags="0x204"/>
      <component glyphName="tonos.cap" x="-280" y="0" flags="0x4"/>
    </TTGlyph>
    <TTGlyph name="Omicron" xMin="29" yMin="-13" xMax="472" yMax="633">
      <component glyphName="O" x="0" y="0" flags="0x204"/>
    </TTGlyph>
    <TTGlyph name="Omicrontonos" xMin="-72" yMin="-13" xMax="472" yMax="633">
      <component glyphName="tonos.cap" x="-278" y="0" flags="0x214"/>
      <component glyphName="O" x="0" y="0" flags="0x4"/>
    </TTGlyph>
    <TTGlyph name="Oslash" xMin="29" yMin="-33" xMax="472" yMax="651">
      <contour>
        <pt x="29" y="310" on="1"/>
        <pt x="29" y="393" on="0"/>
        <pt x="61" y="515" on="0"/>
        <pt x="119" y="594" on="0"/>
        <pt x="200" y="633" on="0"/>
        <pt x="250" y="633" on="1"/>
        <pt x="306" y="633" on="0"/>
        <pt x="353" y="606" on="1"/>
        <pt x="374" y="651" on="1"/>
        <pt x="436" y="620" on="1"/>
        <pt x="406" y="559" on="1"/>
        <pt x="437" y="518" on="0"/>
        <pt x="472" y="395" on="0"/>
        <pt x="472" y="310" on="1"/>
        <pt x="472" y="227" on="0"/>
        <pt x="439" y="105" on="0"/>
        <pt x="381" y="25" on="0"/>
        <pt x="299" y="-13" on="0"/>
        <pt x="250" y="-13" on="1"/>
        <pt x="188" y="-13" on="0"/>
        <pt x="142" y="15" on="1"/>
        <pt x="119" y="-33" on="1"/>
        <pt x="58" y="-2" on="1"/>
        <pt x="90" y="64" on="1"/>
        <pt x="60" y="104" on="0"/>
        <pt x="29" y="225" on="0"/>
      </contour>
      <contour>
        <pt x="388" y="310" on="1"/>
        <pt x="388" y="360" on="0"/>
        <pt x="377" y="444" on="0"/>
        <pt x="365" y="475" on="1"/>
        <pt x="174" y="81" on="1"/>
        <pt x="189" y="68" on="0"/>
        <pt x="228" y="58" on="0"/>
        <pt x="248" y="58" on="1"/>
        <pt x="318" y="58" on="0"/>
        <pt x="388" y="188" on="0"/>
      </contour>
      <contour>
        <pt x="113" y="310" on="1"/>
        <pt x="113" y="262" on="0"/>
        <pt x="119" y="179" on="0"/>
        <pt x="130" y="148" on="1"/>
        <pt x="320" y="540" on="1"/>
        <pt x="305" y="552" on="0"/>
        <pt x="269" y="562" on="0"/>
        <pt x="248" y="562" on="1"/>
        <pt x="179" y="562" on="0"/>
        <pt x="113" y="432" on="0"/>
      </contour>
    </TTGlyph>
    <TTGlyph name="Oslashacute" xMin="29" yMin="-33" xMax="472" yMax="830">
      <component glyphName="Oslash" x="0" y="0" flags="0x204"/>
      <component glyphName="acute" x="21" y="137" flags="0x4"/>
    </TTGlyph>
    <TTGlyph name="Otilde" xMin="29" yMin="-13" xMax="472" yMax="796">
      <component glyphName="O" x="0" y="0" flags="0x204"/>
      <component glyphName="tilde" x="0" y="139" flags="0x4"/>
    </TTGlyph>
    <TTGlyph name="P" xMin="73" yMin="0" xMax="455" yMax="625">
      <contour>
        <pt x="235" y="625" on="1"/>
        <pt x="290" y="625" on="0"/>
        <pt x="373" y="597" on="0"/>
        <pt x="428" y="546" on="0"/>
        <pt x="455" y="476" on="0"/>
        <pt x="455" y="433" on="1"/>
        <pt x="455" y="336" on="0"/>
        <pt x="341" y="231" on="0"/>
        <pt x="227" y="231" on="1"/>
        <pt x="155" y="231" on="1"/>
        <pt x="155" y="0" on="1"/>
        <pt x="73" y="0" on="1"/>
        <pt x="73" y="610" on="1"/>
        <pt x="91" y="614" on="0"/>
        <pt x="134" y="620" on="0"/>
        <pt x="177" y="624" on="0"/>
        <pt x="218" y="625" on="0"/>
      </contour>
      <contour>
        <pt x="241" y="554" on="1"/>
        <pt x="215" y="554" on="0"/>
        <pt x="167" y="553" on="0"/>
        <pt x="155" y="551" on="1"/>
        <pt x="155" y="301" on="1"/>
        <pt x="223" y="301" on="1"/>
        <pt x="298" y="301" on="0"/>
        <pt x="371" y="361" on="0"/>
        <pt x="371" y="430" on="1"/>
        <pt x="371" y="554" on="0"/>
      </contour>
    </TTGlyph>
    <TTGlyph name="Parenleft" xMin="113" yMin="-125" xMax="386" yMax="743">
      <component glyphName="parenleft" x="0" y="42" flags="0x204"/>
    </TTGlyph>
    <TTGlyph name="Parenright" xMin="113" yMin="-125" xMax="386" yMax="743">
      <component glyphName="parenright" x="0" y="42" flags="0x204"/>
    </TTGlyph>
    <TTGlyph name="Phi" xMin="42" yMin="0" xMax="468" yMax="659">
      <component glyphName="afii10038" x="0" y="0" flags="0x204"/>
    </TTGlyph>
    <TTGlyph name="Pi" xMin="45" yMin="0" xMax="455" yMax="619">
      <component glyphName="afii10033" x="0" y="0" flags="0x204"/>
    </TTGlyph>
    <TTGlyph name="Psi" xMin="43" yMin="0" xMax="457" yMax="619">
      <contour>
        <pt x="287" y="0" on="1"/>
        <pt x="213" y="0" on="1"/>
        <pt x="213" y="158" on="1"/>
        <pt x="166" y="158" on="0"/>
        <pt x="101" y="194" on="0"/>
        <pt x="61" y="260" on="0"/>
        <pt x="43" y="353" on="0"/>
        <pt x="43" y="410" on="1"/>
        <pt x="43" y="619" on="1"/>
        <pt x="125" y="619" on="1"/>
        <pt x="125" y="413" on="1"/>
        <pt x="125" y="312" on="0"/>
        <pt x="164" y="228" on="0"/>
        <pt x="213" y="228" on="1"/>
        <pt x="213" y="475" on="1"/>
        <pt x="287" y="475" on="1"/>
        <pt x="287" y="228" on="1"/>
        <pt x="336" y="228" on="0"/>
        <pt x="375" y="312" on="0"/>
        <pt x="375" y="413" on="1"/>
        <pt x="375" y="619" on="1"/>
        <pt x="457" y="619" on="1"/>
        <pt x="457" y="410" on="1"/>
        <pt x="457" y="353" on="0"/>
        <pt x="439" y="260" on="0"/>
        <pt x="399" y="194" on="0"/>
        <pt x="334" y="158" on="0"/>
        <pt x="287" y="158" on="1"/>
      </contour>
    </TTGlyph>
    <TTGlyph name="Q" xMin="29" yMin="-165" xMax="472" yMax="632">
      <contour>
        <pt x="29" y="309" on="1"/>
        <pt x="29" y="392" on="0"/>
        <pt x="61" y="514" on="0"/>
        <pt x="119" y="593" on="0"/>
        <pt x="200" y="632" on="0"/>
        <pt x="250" y="632" on="1"/>
        <pt x="299" y="632" on="0"/>
        <pt x="381" y="593" on="0"/>
        <pt x="439" y="514" on="0"/>
        <pt x="472" y="392" on="0"/>
        <pt x="472" y="309" on="1"/>
        <pt x="472" y="235" on="0"/>
        <pt x="446" y="122" on="0"/>
        <pt x="398" y="42" on="0"/>
        <pt x="330" y="-4" on="0"/>
        <pt x="289" y="-11" on="1"/>
        <pt x="292" y="-31" on="0"/>
        <pt x="320" y="-60" on="0"/>
        <pt x="363" y="-81" on="0"/>
        <pt x="418" y="-95" on="0"/>
        <pt x="448" y="-99" on="1"/>
        <pt x="429" y="-165" on="1"/>
        <pt x="388" y="-158" on="0"/>
        <pt x="313" y="-136" on="0"/>
        <pt x="253" y="-100" on="0"/>
        <pt x="211" y="-48" on="0"/>
        <pt x="204" y="-10" on="1"/>
        <pt x="123" y="7" on="0"/>
        <pt x="29" y="162" on="0"/>
      </contour>
      <contour>
        <pt x="113" y="309" on="1"/>
        <pt x="113" y="187" on="0"/>
        <pt x="179" y="57" on="0"/>
        <pt x="248" y="57" on="1"/>
        <pt x="318" y="57" on="0"/>
        <pt x="388" y="187" on="0"/>
        <pt x="388" y="309" on="1"/>
        <pt x="388" y="431" on="0"/>
        <pt x="318" y="561" on="0"/>
        <pt x="248" y="561" on="1"/>
        <pt x="179" y="561" on="0"/>
        <pt x="113" y="431" on="0"/>
      </contour>
    </TTGlyph>
    <TTGlyph name="Questiondown" xMin="92" yMin="-8" xMax="410" yMax="627">
      <component glyphName="questiondown" x="0" y="162" flags="0x204"/>
    </TTGlyph>
    <TTGlyph name="R" xMin="55" yMin="0" xMax="463" yMax="625">
      <contour>
        <pt x="431" y="430" on="1"/>
        <pt x="431" y="373" on="0"/>
        <pt x="371" y="286" on="0"/>
        <pt x="320" y="262" on="1"/>
        <pt x="335" y="238" on="0"/>
        <pt x="372" y="177" on="0"/>
        <pt x="410" y="108" on="0"/>
        <pt x="447" y="35" on="0"/>
        <pt x="463" y="0" on="1"/>
        <pt x="375" y="0" on="1"/>
        <pt x="345" y="72" on="0"/>
        <pt x="274" y="204" on="0"/>
        <pt x="241" y="245" on="1"/>
        <pt x="235" y="244" on="0"/>
        <pt x="212" y="244" on="0"/>
        <pt x="208" y="244" on="1"/>
        <pt x="138" y="244" on="1"/>
        <pt x="138" y="0" on="1"/>
        <pt x="55" y="0" on="1"/>
        <pt x="55" y="610" on="1"/>
        <pt x="70" y="614" on="0"/>
        <pt x="109" y="620" on="0"/>
        <pt x="150" y="623" on="0"/>
        <pt x="190" y="625" on="0"/>
        <pt x="206" y="625" on="1"/>
        <pt x="318" y="625" on="0"/>
        <pt x="431" y="527" on="0"/>
      </contour>
      <contour>
        <pt x="213" y="554" on="1"/>
        <pt x="190" y="554" on="0"/>
        <pt x="147" y="553" on="0"/>
        <pt x="138" y="551" on="1"/>
        <pt x="138" y="312" on="1"/>
        <pt x="191" y="312" on="1"/>
        <pt x="227" y="312" on="0"/>
        <pt x="284" y="322" on="0"/>
        <pt x="325" y="349" on="0"/>
        <pt x="347" y="396" on="0"/>
        <pt x="347" y="434" on="1"/>
        <pt x="347" y="470" on="0"/>
        <pt x="325" y="516" on="0"/>
        <pt x="289" y="543" on="0"/>
        <pt x="240" y="554" on="0"/>
      </contour>
    </TTGlyph>
    <TTGlyph name="Racute" xMin="55" yMin="0" xMax="463" yMax="830">
      <component glyphName="R" x="0" y="0" flags="0x204"/>
      <component glyphName="acute" x="0" y="137" flags="0x4"/>
    </TTGlyph>
    <TTGlyph name="Rcaron" xMin="55" yMin="0" xMax="463" yMax="829">
      <component glyphName="R" x="0" y="0" flags="0x204"/>
      <component glyphName="caron" x="-26" y="139" flags="0x4"/>
    </TTGlyph>
    <TTGlyph name="Rcommaaccent" xMin="55" yMin="-170" xMax="463" yMax="625">
      <component glyphName="R" x="0" y="0" flags="0x204"/>
      <component glyphName="commaaccent" x="-35" y="0" flags="0x4"/>
    </TTGlyph>
    <TTGlyph name="Rho" xMin="73" yMin="0" xMax="455" yMax="625">
      <contour>
        <pt x="235" y="625" on="1"/>
        <pt x="341" y="625" on="0"/>
        <pt x="455" y="526" on="0"/>
        <pt x="455" y="428" on="1"/>
        <pt x="455" y="321" on="0"/>
        <pt x="333" y="230" on="0"/>
        <pt x="227" y="230" on="1"/>
        <pt x="155" y="230" on="1"/>
        <pt x="155" y="0" on="1"/>
        <pt x="73" y="0" on="1"/>
        <pt x="73" y="609" on="1"/>
        <pt x="91" y="613" on="0"/>
        <pt x="134" y="620" on="0"/>
        <pt x="177" y="623" on="0"/>
        <pt x="218" y="625" on="0"/>
      </contour>
      <contour>
        <pt x="241" y="554" on="1"/>
        <pt x="215" y="554" on="0"/>
        <pt x="167" y="552" on="0"/>
        <pt x="155" y="550" on="1"/>
        <pt x="155" y="300" on="1"/>
        <pt x="223" y="300" on="1"/>
        <pt x="256" y="300" on="0"/>
        <pt x="310" y="312" on="0"/>
        <pt x="349" y="342" on="0"/>
        <pt x="371" y="391" on="0"/>
        <pt x="371" y="429" on="1"/>
        <pt x="371" y="465" on="0"/>
        <pt x="349" y="514" on="0"/>
        <pt x="313" y="542" on="0"/>
        <pt x="266" y="554" on="0"/>
      </contour>
    </TTGlyph>
    <TTGlyph name="S" xMin="55" yMin="-13" xMax="445" yMax="633">
      <contour>
        <pt x="234" y="58" on="1"/>
        <pt x="297" y="58" on="0"/>
        <pt x="363" y="106" on="0"/>
        <pt x="363" y="154" on="1"/>
        <pt x="363" y="183" on="0"/>
        <pt x="339" y="224" on="0"/>
        <pt x="299" y="255" on="0"/>
        <pt x="249" y="278" on="0"/>
        <pt x="223" y="288" on="1"/>
        <pt x="193" y="300" on="0"/>
        <pt x="138" y="330" on="0"/>
        <pt x="95" y="370" on="0"/>
        <pt x="70" y="424" on="0"/>
        <pt x="70" y="461" on="1"/>
        <pt x="70" y="542" on="0"/>
        <pt x="172" y="633" on="0"/>
        <pt x="263" y="633" on="1"/>
        <pt x="288" y="633" on="0"/>
        <pt x="337" y="626" on="0"/>
        <pt x="379" y="616" on="0"/>
        <pt x="412" y="602" on="0"/>
        <pt x="422" y="595" on="1"/>
        <pt x="396" y="526" on="1"/>
        <pt x="376" y="538" on="0"/>
        <pt x="306" y="562" on="0"/>
        <pt x="263" y="562" on="1"/>
        <pt x="218" y="562" on="0"/>
        <pt x="152" y="517" on="0"/>
        <pt x="152" y="472" on="1"/>
        <pt x="152" y="446" on="0"/>
        <pt x="171" y="410" on="0"/>
        <pt x="204" y="383" on="0"/>
        <pt x="248" y="361" on="0"/>
        <pt x="274" y="350" on="1"/>
        <pt x="312" y="334" on="0"/>
        <pt x="375" y="302" on="0"/>
        <pt x="420" y="258" on="0"/>
        <pt x="445" y="198" on="0"/>
        <pt x="445" y="155" on="1"/>
        <pt x="445" y="74" on="0"/>
        <pt x="336" y="-13" on="0"/>
        <pt x="234" y="-13" on="1"/>
        <pt x="201" y="-13" on="0"/>
        <pt x="143" y="-4" on="0"/>
        <pt x="98" y="10" on="0"/>
        <pt x="64" y="24" on="0"/>
        <pt x="55" y="30" on="1"/>
        <pt x="80" y="98" on="1"/>
        <pt x="100" y="87" on="0"/>
        <pt x="178" y="58" on="0"/>
      </contour>
    </TTGlyph>
    <TTGlyph name="SF010000.001" xMin="210" yMin="-170" xMax="500" yMax="370">
      <contour>
        <pt x="210" y="370" on="1"/>
        <pt x="500" y="370" on="1"/>
        <pt x="500" y="290" on="1"/>
        <pt x="290" y="290" on="1"/>
        <pt x="290" y="-170" on="1"/>
        <pt x="210" y="-170" on="1"/>
      </contour>
    </TTGlyph>
    <TTGlyph name="SF020000.001" xMin="210" yMin="290" xMax="500" yMax="830">
      <contour>
        <pt x="210" y="830" on="1"/>
        <pt x="290" y="830" on="1"/>
        <pt x="290" y="370" on="1"/>
        <pt x="500" y="370" on="1"/>
        <pt x="500" y="290" on="1"/>
        <pt x="210" y="290" on="1"/>
      </contour>
    </TTGlyph>
    <TTGlyph name="SF030000.001" xMin="0" yMin="-170" xMax="290" yMax="370">
      <contour>
        <pt x="0" y="370" on="1"/>
        <pt x="290" y="370" on="1"/>
        <pt x="290" y="-170" on="1"/>
        <pt x="210" y="-170" on="1"/>
        <pt x="210" y="290" on="1"/>
        <pt x="0" y="290" on="1"/>
      </contour>
    </TTGlyph>
    <TTGlyph name="SF040000.001" xMin="0" yMin="290" xMax="290" yMax="830">
      <contour>
        <pt x="0" y="370" on="1"/>
        <pt x="210" y="370" on="1"/>
        <pt x="210" y="830" on="1"/>
        <pt x="290" y="830" on="1"/>
        <pt x="290" y="290" on="1"/>
        <pt x="0" y="290" on="1"/>
      </contour>
    </TTGlyph>
    <TTGlyph name="SF050000.001" xMin="0" yMin="-170" xMax="500" yMax="830">
      <contour>
        <pt x="210" y="290" on="1"/>
        <pt x="0" y="290" on="1"/>
        <pt x="0" y="370" on="1"/>
        <pt x="210" y="370" on="1"/>
        <pt x="210" y="830" on="1"/>
        <pt x="290" y="830" on="1"/>
        <pt x="290" y="370" on="1"/>
        <pt x="500" y="370" on="1"/>
        <pt x="500" y="290" on="1"/>
        <pt x="290" y="290" on="1"/>
        <pt x="290" y="-170" on="1"/>
        <pt x="210" y="-170" on="1"/>
      </contour>
    </TTGlyph>
    <TTGlyph name="SF060000.001" xMin="0" yMin="-170" xMax="500" yMax="370">
      <contour>
        <pt x="500" y="370" on="1"/>
        <pt x="500" y="290" on="1"/>
        <pt x="290" y="290" on="1"/>
        <pt x="290" y="-170" on="1"/>
        <pt x="210" y="-170" on="1"/>
        <pt x="210" y="290" on="1"/>
        <pt x="0" y="290" on="1"/>
        <pt x="0" y="370" on="1"/>
      </contour>
    </TTGlyph>
    <TTGlyph name="SF070000.001" xMin="0" yMin="290" xMax="500" yMax="830">
      <contour>
        <pt x="0" y="290" on="1"/>
        <pt x="0" y="370" on="1"/>
        <pt x="210" y="370" on="1"/>
        <pt x="210" y="830" on="1"/>
        <pt x="290" y="830" on="1"/>
        <pt x="290" y="370" on="1"/>
        <pt x="500" y="370" on="1"/>
        <pt x="500" y="290" on="1"/>
      </contour>
    </TTGlyph>
    <TTGlyph name="SF080000.001" xMin="210" yMin="-170" xMax="500" yMax="830">
      <contour>
        <pt x="210" y="830" on="1"/>
        <pt x="290" y="830" on="1"/>
        <pt x="290" y="370" on="1"/>
        <pt x="500" y="370" on="1"/>
        <pt x="500" y="290" on="1"/>
        <pt x="290" y="290" on="1"/>
        <pt x="290" y="-170" on="1"/>
        <pt x="210" y="-170" on="1"/>
      </contour>
    </TTGlyph>
    <TTGlyph name="SF090000.001" xMin="0" yMin="-170" xMax="290" yMax="830">
      <contour>
        <pt x="290" y="-170" on="1"/>
        <pt x="210" y="-170" on="1"/>
        <pt x="210" y="290" on="1"/>
        <pt x="0" y="290" on="1"/>
        <pt x="0" y="370" on="1"/>
        <pt x="210" y="370" on="1"/>
        <pt x="210" y="830" on="1"/>
        <pt x="290" y="830" on="1"/>
      </contour>
    </TTGlyph>
    <TTGlyph name="SF100000.001" xMin="0" yMin="290" xMax="500" yMax="370">
      <contour>
        <pt x="0" y="290" on="1"/>
        <pt x="0" y="370" on="1"/>
        <pt x="500" y="370" on="1"/>
        <pt x="500" y="290" on="1"/>
      </contour>
    </TTGlyph>
    <TTGlyph name="SF110000.001" xMin="210" yMin="-170" xMax="290" yMax="830">
      <contour>
        <pt x="290" y="-170" on="1"/>
        <pt x="210" y="-170" on="1"/>
        <pt x="210" y="830" on="1"/>
        <pt x="290" y="830" on="1"/>
      </contour>
    </TTGlyph>
    <TTGlyph name="SF190000" xMin="0" yMin="-170" xMax="290" yMax="830">
      <contour>
        <pt x="0" y="450" on="1"/>
        <pt x="210" y="450" on="1"/>
        <pt x="210" y="830" on="1"/>
        <pt x="290" y="830" on="1"/>
        <pt x="290" y="370" on="1"/>
        <pt x="0" y="370" on="1"/>
      </contour>
      <contour>
        <pt x="0" y="290" on="1"/>
        <pt x="290" y="290" on="1"/>
        <pt x="290" y="-170" on="1"/>
        <pt x="210" y="-170" on="1"/>
        <pt x="210" y="210" on="1"/>
        <pt x="0" y="210" on="1"/>
      </contour>
    </TTGlyph>
    <TTGlyph name="SF200000" xMin="0" yMin="-170" xMax="370" yMax="830">
      <contour>
        <pt x="210" y="-170" on="1"/>
        <pt x="130" y="-170" on="1"/>
        <pt x="130" y="290" on="1"/>
        <pt x="0" y="290" on="1"/>
        <pt x="0" y="370" on="1"/>
        <pt x="130" y="370" on="1"/>
        <pt x="130" y="830" on="1"/>
        <pt x="210" y="830" on="1"/>
      </contour>
      <contour>
        <pt x="370" y="-170" on="1"/>
        <pt x="290" y="-170" on="1"/>
        <pt x="290" y="830" on="1"/>
        <pt x="370" y="830" on="1"/>
      </contour>
    </TTGlyph>
    <TTGlyph name="SF210000" xMin="0" yMin="-170" xMax="370" yMax="370">
      <contour>
        <pt x="0" y="370" on="1"/>
        <pt x="210" y="370" on="1"/>
        <pt x="210" y="-170" on="1"/>
        <pt x="130" y="-170" on="1"/>
        <pt x="130" y="290" on="1"/>
        <pt x="0" y="290" on="1"/>
      </contour>
      <contour>
        <pt x="290" y="370" on="1"/>
        <pt x="370" y="370" on="1"/>
        <pt x="370" y="-170" on="1"/>
        <pt x="290" y="-170" on="1"/>
      </contour>
    </TTGlyph>
    <TTGlyph name="SF220000" xMin="0" yMin="-170" xMax="290" yMax="450">
      <contour>
        <pt x="0" y="290" on="1"/>
        <pt x="290" y="290" on="1"/>
        <pt x="290" y="-170" on="1"/>
        <pt x="210" y="-170" on="1"/>
        <pt x="210" y="210" on="1"/>
        <pt x="0" y="210" on="1"/>
      </contour>
      <contour>
        <pt x="0" y="450" on="1"/>
        <pt x="290" y="450" on="1"/>
        <pt x="290" y="370" on="1"/>
        <pt x="0" y="370" on="1"/>
      </contour>
    </TTGlyph>
    <TTGlyph name="SF230000" xMin="0" yMin="-170" xMax="370" yMax="830">
      <contour>
        <pt x="290" y="830" on="1"/>
        <pt x="370" y="830" on="1"/>
        <pt x="370" y="-170" on="1"/>
        <pt x="290" y="-170" on="1"/>
      </contour>
      <contour>
        <pt x="0" y="450" on="1"/>
        <pt x="130" y="450" on="1"/>
        <pt x="130" y="830" on="1"/>
        <pt x="210" y="830" on="1"/>
        <pt x="210" y="370" on="1"/>
        <pt x="0" y="370" on="1"/>
      </contour>
      <contour>
        <pt x="0" y="290" on="1"/>
        <pt x="210" y="290" on="1"/>
        <pt x="210" y="-170" on="1"/>
        <pt x="130" y="-170" on="1"/>
        <pt x="130" y="210" on="1"/>
        <pt x="0" y="210" on="1"/>
      </contour>
    </TTGlyph>
    <TTGlyph name="SF240000" xMin="130" yMin="-170" xMax="370" yMax="830">
      <contour>
        <pt x="210" y="-170" on="1"/>
        <pt x="130" y="-170" on="1"/>
        <pt x="130" y="830" on="1"/>
        <pt x="210" y="830" on="1"/>
      </contour>
      <contour>
        <pt x="290" y="830" on="1"/>
        <pt x="370" y="830" on="1"/>
        <pt x="370" y="-170" on="1"/>
        <pt x="290" y="-170" on="1"/>
      </contour>
    </TTGlyph>
    <TTGlyph name="SF250000" xMin="0" yMin="-170" xMax="370" yMax="450">
      <contour>
        <pt x="0" y="290" on="1"/>
        <pt x="210" y="290" on="1"/>
        <pt x="210" y="-170" on="1"/>
        <pt x="130" y="-170" on="1"/>
        <pt x="130" y="210" on="1"/>
        <pt x="0" y="210" on="1"/>
      </contour>
      <contour>
        <pt x="0" y="450" on="1"/>
        <pt x="370" y="450" on="1"/>
        <pt x="370" y="-170" on="1"/>
        <pt x="290" y="-170" on="1"/>
        <pt x="290" y="370" on="1"/>
        <pt x="0" y="370" on="1"/>
      </contour>
    </TTGlyph>
    <TTGlyph name="SF260000" xMin="0" yMin="210" xMax="370" yMax="830">
      <contour>
        <pt x="0" y="450" on="1"/>
        <pt x="130" y="450" on="1"/>
        <pt x="130" y="830" on="1"/>
        <pt x="210" y="830" on="1"/>
        <pt x="210" y="370" on="1"/>
        <pt x="0" y="370" on="1"/>
      </contour>
      <contour>
        <pt x="0" y="290" on="1"/>
        <pt x="290" y="290" on="1"/>
        <pt x="290" y="830" on="1"/>
        <pt x="370" y="830" on="1"/>
        <pt x="370" y="210" on="1"/>
        <pt x="0" y="210" on="1"/>
      </contour>
    </TTGlyph>
    <TTGlyph name="SF270000" xMin="0" yMin="290" xMax="370" yMax="830">
      <contour>
        <pt x="0" y="370" on="1"/>
        <pt x="130" y="370" on="1"/>
        <pt x="130" y="830" on="1"/>
        <pt x="210" y="830" on="1"/>
        <pt x="210" y="290" on="1"/>
        <pt x="0" y="290" on="1"/>
      </contour>
      <contour>
        <pt x="290" y="830" on="1"/>
        <pt x="370" y="830" on="1"/>
        <pt x="370" y="290" on="1"/>
        <pt x="290" y="290" on="1"/>
      </contour>
    </TTGlyph>
    <TTGlyph name="SF280000" xMin="0" yMin="210" xMax="290" yMax="830">
      <contour>
        <pt x="0" y="450" on="1"/>
        <pt x="210" y="450" on="1"/>
        <pt x="210" y="830" on="1"/>
        <pt x="290" y="830" on="1"/>
        <pt x="290" y="370" on="1"/>
        <pt x="0" y="370" on="1"/>
      </contour>
      <contour>
        <pt x="0" y="290" on="1"/>
        <pt x="290" y="290" on="1"/>
        <pt x="290" y="210" on="1"/>
        <pt x="0" y="210" on="1"/>
      </contour>
    </TTGlyph>
    <TTGlyph name="SF360000" xMin="210" yMin="-170" xMax="500" yMax="830">
      <contour>
        <pt x="500" y="370" on="1"/>
        <pt x="210" y="370" on="1"/>
        <pt x="210" y="830" on="1"/>
        <pt x="290" y="830" on="1"/>
        <pt x="290" y="450" on="1"/>
        <pt x="500" y="450" on="1"/>
      </contour>
      <contour>
        <pt x="500" y="210" on="1"/>
        <pt x="290" y="210" on="1"/>
        <pt x="290" y="-170" on="1"/>
        <pt x="210" y="-170" on="1"/>
        <pt x="210" y="290" on="1"/>
        <pt x="500" y="290" on="1"/>
      </contour>
    </TTGlyph>
    <TTGlyph name="SF370000" xMin="130" yMin="-170" xMax="500" yMax="830">
      <contour>
        <pt x="290" y="830" on="1"/>
        <pt x="370" y="830" on="1"/>
        <pt x="370" y="370" on="1"/>
        <pt x="500" y="370" on="1"/>
        <pt x="500" y="290" on="1"/>
        <pt x="370" y="290" on="1"/>
        <pt x="370" y="-170" on="1"/>
        <pt x="290" y="-170" on="1"/>
      </contour>
      <contour>
        <pt x="130" y="830" on="1"/>
        <pt x="210" y="830" on="1"/>
        <pt x="210" y="-170" on="1"/>
        <pt x="130" y="-170" on="1"/>
      </contour>
    </TTGlyph>
    <TTGlyph name="SF380000" xMin="130" yMin="210" xMax="500" yMax="830">
      <contour>
        <pt x="500" y="370" on="1"/>
        <pt x="290" y="370" on="1"/>
        <pt x="290" y="830" on="1"/>
        <pt x="370" y="830" on="1"/>
        <pt x="370" y="450" on="1"/>
        <pt x="500" y="450" on="1"/>
      </contour>
      <contour>
        <pt x="500" y="210" on="1"/>
        <pt x="130" y="210" on="1"/>
        <pt x="130" y="830" on="1"/>
        <pt x="210" y="830" on="1"/>
        <pt x="210" y="290" on="1"/>
        <pt x="500" y="290" on="1"/>
      </contour>
    </TTGlyph>
    <TTGlyph name="SF390000" xMin="130" yMin="-170" xMax="500" yMax="450">
      <contour>
        <pt x="500" y="210" on="1"/>
        <pt x="370" y="210" on="1"/>
        <pt x="370" y="-170" on="1"/>
        <pt x="290" y="-170" on="1"/>
        <pt x="290" y="290" on="1"/>
        <pt x="500" y="290" on="1"/>
      </contour>
      <contour>
        <pt x="500" y="370" on="1"/>
        <pt x="210" y="370" on="1"/>
        <pt x="210" y="-170" on="1"/>
        <pt x="130" y="-170" on="1"/>
        <pt x="130" y="450" on="1"/>
        <pt x="500" y="450" on="1"/>
      </contour>
    </TTGlyph>
    <TTGlyph name="SF400000" xMin="0" yMin="210" xMax="500" yMax="830">
      <contour>
        <pt x="500" y="290" on="1"/>
        <pt x="500" y="210" on="1"/>
        <pt x="0" y="210" on="1"/>
        <pt x="0" y="290" on="1"/>
      </contour>
      <contour>
        <pt x="0" y="450" on="1"/>
        <pt x="130" y="450" on="1"/>
        <pt x="130" y="830" on="1"/>
        <pt x="210" y="830" on="1"/>
        <pt x="210" y="370" on="1"/>
        <pt x="0" y="370" on="1"/>
      </contour>
      <contour>
        <pt x="500" y="370" on="1"/>
        <pt x="290" y="370" on="1"/>
        <pt x="290" y="830" on="1"/>
        <pt x="370" y="830" on="1"/>
        <pt x="370" y="450" on="1"/>
        <pt x="500" y="450" on="1"/>
      </contour>
    </TTGlyph>
    <TTGlyph name="SF410000" xMin="0" yMin="-170" xMax="500" yMax="450">
      <contour>
        <pt x="0" y="370" on="1"/>
        <pt x="0" y="450" on="1"/>
        <pt x="500" y="450" on="1"/>
        <pt x="500" y="370" on="1"/>
      </contour>
      <contour>
        <pt x="500" y="210" on="1"/>
        <pt x="370" y="210" on="1"/>
        <pt x="370" y="-170" on="1"/>
        <pt x="290" y="-170" on="1"/>
        <pt x="290" y="290" on="1"/>
        <pt x="500" y="290" on="1"/>
      </contour>
      <contour>
        <pt x="0" y="290" on="1"/>
        <pt x="210" y="290" on="1"/>
        <pt x="210" y="-170" on="1"/>
        <pt x="130" y="-170" on="1"/>
        <pt x="130" y="210" on="1"/>
        <pt x="0" y="210" on="1"/>
      </contour>
    </TTGlyph>
    <TTGlyph name="SF420000" xMin="130" yMin="-170" xMax="500" yMax="830">
      <contour>
        <pt x="210" y="-170" on="1"/>
        <pt x="130" y="-170" on="1"/>
        <pt x="130" y="830" on="1"/>
        <pt x="210" y="830" on="1"/>
      </contour>
      <contour>
        <pt x="500" y="370" on="1"/>
        <pt x="290" y="370" on="1"/>
        <pt x="290" y="830" on="1"/>
        <pt x="370" y="830" on="1"/>
        <pt x="370" y="450" on="1"/>
        <pt x="500" y="450" on="1"/>
      </contour>
      <contour>
        <pt x="500" y="210" on="1"/>
        <pt x="370" y="210" on="1"/>
        <pt x="370" y="-170" on="1"/>
        <pt x="290" y="-170" on="1"/>
        <pt x="290" y="290" on="1"/>
        <pt x="500" y="290" on="1"/>
      </contour>
    </TTGlyph>
    <TTGlyph name="SF430000" xMin="0" yMin="210" xMax="500" yMax="450">
      <contour>
        <pt x="0" y="210" on="1"/>
        <pt x="0" y="290" on="1"/>
        <pt x="500" y="290" on="1"/>
        <pt x="500" y="210" on="1"/>
      </contour>
      <contour>
        <pt x="0" y="370" on="1"/>
        <pt x="0" y="450" on="1"/>
        <pt x="500" y="450" on="1"/>
        <pt x="500" y="370" on="1"/>
      </contour>
    </TTGlyph>
    <TTGlyph name="SF440000" xMin="0" yMin="-170" xMax="500" yMax="830">
      <contour>
        <pt x="0" y="450" on="1"/>
        <pt x="130" y="450" on="1"/>
        <pt x="130" y="830" on="1"/>
        <pt x="210" y="830" on="1"/>
        <pt x="210" y="370" on="1"/>
        <pt x="0" y="370" on="1"/>
      </contour>
      <contour>
        <pt x="500" y="210" on="1"/>
        <pt x="370" y="210" on="1"/>
        <pt x="370" y="-170" on="1"/>
        <pt x="290" y="-170" on="1"/>
        <pt x="290" y="290" on="1"/>
        <pt x="500" y="290" on="1"/>
      </contour>
      <contour>
        <pt x="500" y="370" on="1"/>
        <pt x="290" y="370" on="1"/>
        <pt x="290" y="830" on="1"/>
        <pt x="370" y="830" on="1"/>
        <pt x="370" y="450" on="1"/>
        <pt x="500" y="450" on="1"/>
      </contour>
      <contour>
        <pt x="0" y="290" on="1"/>
        <pt x="210" y="290" on="1"/>
        <pt x="210" y="-170" on="1"/>
        <pt x="130" y="-170" on="1"/>
        <pt x="130" y="210" on="1"/>
        <pt x="0" y="210" on="1"/>
      </contour>
    </TTGlyph>
    <TTGlyph name="SF450000" xMin="0" yMin="210" xMax="500" yMax="830">
      <contour>
        <pt x="0" y="370" on="1"/>
        <pt x="0" y="450" on="1"/>
        <pt x="210" y="450" on="1"/>
        <pt x="210" y="830" on="1"/>
        <pt x="290" y="830" on="1"/>
        <pt x="290" y="450" on="1"/>
        <pt x="500" y="450" on="1"/>
        <pt x="500" y="370" on="1"/>
      </contour>
      <contour>
        <pt x="500" y="290" on="1"/>
        <pt x="500" y="210" on="1"/>
        <pt x="0" y="210" on="1"/>
        <pt x="0" y="290" on="1"/>
      </contour>
    </TTGlyph>
    <TTGlyph name="SF460000" xMin="0" yMin="290" xMax="500" yMax="830">
      <contour>
        <pt x="500" y="370" on="1"/>
        <pt x="500" y="290" on="1"/>
        <pt x="0" y="290" on="1"/>
        <pt x="0" y="370" on="1"/>
        <pt x="130" y="370" on="1"/>
        <pt x="130" y="830" on="1"/>
        <pt x="210" y="830" on="1"/>
        <pt x="210" y="370" on="1"/>
        <pt x="290" y="370" on="1"/>
        <pt x="290" y="830" on="1"/>
        <pt x="370" y="830" on="1"/>
        <pt x="370" y="370" on="1"/>
      </contour>
    </TTGlyph>
    <TTGlyph name="SF470000" xMin="0" yMin="-170" xMax="500" yMax="450">
      <contour>
        <pt x="500" y="290" on="1"/>
        <pt x="500" y="210" on="1"/>
        <pt x="290" y="210" on="1"/>
        <pt x="290" y="-170" on="1"/>
        <pt x="210" y="-170" on="1"/>
        <pt x="210" y="210" on="1"/>
        <pt x="0" y="210" on="1"/>
        <pt x="0" y="290" on="1"/>
      </contour>
      <contour>
        <pt x="0" y="370" on="1"/>
        <pt x="0" y="450" on="1"/>
        <pt x="500" y="450" on="1"/>
        <pt x="500" y="370" on="1"/>
      </contour>
    </TTGlyph>
    <TTGlyph name="SF480000" xMin="0" yMin="-170" xMax="500" yMax="370">
      <contour>
        <pt x="0" y="290" on="1"/>
        <pt x="0" y="370" on="1"/>
        <pt x="500" y="370" on="1"/>
        <pt x="500" y="290" on="1"/>
        <pt x="370" y="290" on="1"/>
        <pt x="370" y="-170" on="1"/>
        <pt x="290" y="-170" on="1"/>
        <pt x="290" y="290" on="1"/>
        <pt x="210" y="290" on="1"/>
        <pt x="210" y="-170" on="1"/>
        <pt x="130" y="-170" on="1"/>
        <pt x="130" y="290" on="1"/>
      </contour>
    </TTGlyph>
    <TTGlyph name="SF490000" xMin="130" yMin="290" xMax="500" yMax="830">
      <contour>
        <pt x="500" y="290" on="1"/>
        <pt x="290" y="290" on="1"/>
        <pt x="290" y="830" on="1"/>
        <pt x="370" y="830" on="1"/>
        <pt x="370" y="370" on="1"/>
        <pt x="500" y="370" on="1"/>
      </contour>
      <contour>
        <pt x="210" y="290" on="1"/>
        <pt x="130" y="290" on="1"/>
        <pt x="130" y="830" on="1"/>
        <pt x="210" y="830" on="1"/>
      </contour>
    </TTGlyph>
    <TTGlyph name="SF500000" xMin="210" yMin="210" xMax="500" yMax="830">
      <contour>
        <pt x="500" y="370" on="1"/>
        <pt x="210" y="370" on="1"/>
        <pt x="210" y="830" on="1"/>
        <pt x="290" y="830" on="1"/>
        <pt x="290" y="450" on="1"/>
        <pt x="500" y="450" on="1"/>
      </contour>
      <contour>
        <pt x="210" y="290" on="1"/>
        <pt x="500" y="290" on="1"/>
        <pt x="500" y="210" on="1"/>
        <pt x="210" y="210" on="1"/>
      </contour>
    </TTGlyph>
    <TTGlyph name="SF510000" xMin="210" yMin="-170" xMax="500" yMax="450">
      <contour>
        <pt x="500" y="210" on="1"/>
        <pt x="290" y="210" on="1"/>
        <pt x="290" y="-170" on="1"/>
        <pt x="210" y="-170" on="1"/>
        <pt x="210" y="290" on="1"/>
        <pt x="500" y="290" on="1"/>
      </contour>
      <contour>
        <pt x="210" y="450" on="1"/>
        <pt x="500" y="450" on="1"/>
        <pt x="500" y="370" on="1"/>
        <pt x="210" y="370" on="1"/>
      </contour>
    </TTGlyph>
    <TTGlyph name="SF520000" xMin="130" yMin="-170" xMax="500" yMax="370">
      <contour>
        <pt x="500" y="290" on="1"/>
        <pt x="370" y="290" on="1"/>
        <pt x="370" y="-170" on="1"/>
        <pt x="290" y="-170" on="1"/>
        <pt x="290" y="370" on="1"/>
        <pt x="500" y="370" on="1"/>
      </contour>
      <contour>
        <pt x="210" y="-170" on="1"/>
        <pt x="130" y="-170" on="1"/>
        <pt x="130" y="370" on="1"/>
        <pt x="210" y="370" on="1"/>
      </contour>
    </TTGlyph>
    <TTGlyph name="SF530000" xMin="0" yMin="-170" xMax="500" yMax="830">
      <contour>
        <pt x="370" y="370" on="1"/>
        <pt x="500" y="370" on="1"/>
        <pt x="500" y="290" on="1"/>
        <pt x="370" y="290" on="1"/>
        <pt x="370" y="-170" on="1"/>
        <pt x="290" y="-170" on="1"/>
        <pt x="290" y="290" on="1"/>
        <pt x="210" y="290" on="1"/>
        <pt x="210" y="-170" on="1"/>
        <pt x="130" y="-170" on="1"/>
        <pt x="130" y="290" on="1"/>
        <pt x="0" y="290" on="1"/>
        <pt x="0" y="370" on="1"/>
        <pt x="130" y="370" on="1"/>
        <pt x="130" y="830" on="1"/>
        <pt x="210" y="830" on="1"/>
        <pt x="210" y="370" on="1"/>
        <pt x="290" y="370" on="1"/>
        <pt x="290" y="830" on="1"/>
        <pt x="370" y="830" on="1"/>
      </contour>
    </TTGlyph>
    <TTGlyph name="SF530000.001" xMin="0" yMin="-170" xMax="500" yMax="830">
      <contour>
        <pt x="210" y="-170" on="1"/>
        <pt x="130" y="-170" on="1"/>
        <pt x="130" y="290" on="1"/>
        <pt x="0" y="290" on="1"/>
        <pt x="0" y="370" on="1"/>
        <pt x="130" y="370" on="1"/>
        <pt x="130" y="830" on="1"/>
        <pt x="210" y="830" on="1"/>
      </contour>
      <contour>
        <pt x="290" y="830" on="1"/>
        <pt x="370" y="830" on="1"/>
        <pt x="370" y="370" on="1"/>
        <pt x="500" y="370" on="1"/>
        <pt x="500" y="290" on="1"/>
        <pt x="370" y="290" on="1"/>
        <pt x="370" y="-170" on="1"/>
        <pt x="290" y="-170" on="1"/>
      </contour>
    </TTGlyph>
    <TTGlyph name="SF540000" xMin="0" yMin="-170" xMax="500" yMax="830">
      <contour>
        <pt x="500" y="290" on="1"/>
        <pt x="500" y="210" on="1"/>
        <pt x="290" y="210" on="1"/>
        <pt x="290" y="-170" on="1"/>
        <pt x="210" y="-170" on="1"/>
        <pt x="210" y="210" on="1"/>
        <pt x="0" y="210" on="1"/>
        <pt x="0" y="290" on="1"/>
        <pt x="210" y="290" on="1"/>
        <pt x="210" y="370" on="1"/>
        <pt x="0" y="370" on="1"/>
        <pt x="0" y="450" on="1"/>
        <pt x="210" y="450" on="1"/>
        <pt x="210" y="830" on="1"/>
        <pt x="290" y="830" on="1"/>
        <pt x="290" y="450" on="1"/>
        <pt x="500" y="450" on="1"/>
        <pt x="500" y="370" on="1"/>
        <pt x="290" y="370" on="1"/>
        <pt x="290" y="290" on="1"/>
      </contour>
    </TTGlyph>
    <TTGlyph name="SF540000.001" xMin="0" yMin="-170" xMax="500" yMax="830">
      <contour>
        <pt x="0" y="370" on="1"/>
        <pt x="0" y="450" on="1"/>
        <pt x="210" y="450" on="1"/>
        <pt x="210" y="830" on="1"/>
        <pt x="290" y="830" on="1"/>
        <pt x="290" y="450" on="1"/>
        <pt x="500" y="450" on="1"/>
        <pt x="500" y="370" on="1"/>
      </contour>
      <contour>
        <pt x="500" y="290" on="1"/>
        <pt x="500" y="210" on="1"/>
        <pt x="290" y="210" on="1"/>
        <pt x="290" y="-170" on="1"/>
        <pt x="210" y="-170" on="1"/>
        <pt x="210" y="210" on="1"/>
        <pt x="0" y="210" on="1"/>
        <pt x="0" y="290" on="1"/>
      </contour>
    </TTGlyph>
    <TTGlyph name="Sacute" xMin="55" yMin="-13" xMax="445" yMax="830">
      <component glyphName="S" x="0" y="0" flags="0x204"/>
      <component glyphName="acute" x="18" y="137" flags="0x4"/>
    </TTGlyph>
    <TTGlyph name="Scaron" xMin="55" yMin="-13" xMax="445" yMax="829">
      <component glyphName="S" x="0" y="0" flags="0x204"/>
      <component glyphName="caron" x="18" y="139" flags="0x4"/>
    </TTGlyph>
    <TTGlyph name="Scedilla" xMin="55" yMin="-169" xMax="445" yMax="633">
      <contour>
        <pt x="263" y="-33" on="1"/>
        <pt x="289" y="-45" on="0"/>
        <pt x="312" y="-75" on="0"/>
        <pt x="312" y="-104" on="1"/>
        <pt x="312" y="-114" on="0"/>
        <pt x="303" y="-137" on="0"/>
        <pt x="282" y="-156" on="0"/>
        <pt x="247" y="-169" on="0"/>
        <pt x="221" y="-169" on="1"/>
        <pt x="198" y="-169" on="0"/>
        <pt x="158" y="-162" on="0"/>
        <pt x="147" y="-157" on="1"/>
        <pt x="157" y="-106" on="1"/>
        <pt x="168" y="-110" on="0"/>
        <pt x="192" y="-115" on="0"/>
        <pt x="207" y="-115" on="1"/>
        <pt x="239" y="-115" on="0"/>
        <pt x="239" y="-95" on="1"/>
        <pt x="239" y="-75" on="0"/>
        <pt x="202" y="-64" on="1"/>
        <pt x="195" y="-62" on="1"/>
        <pt x="199" y="-52" on="0"/>
        <pt x="210" y="-25" on="0"/>
        <pt x="216" y="-13" on="1"/>
        <pt x="156" y="-10" on="0"/>
        <pt x="72" y="19" on="0"/>
        <pt x="55" y="30" on="1"/>
        <pt x="80" y="98" on="1"/>
        <pt x="100" y="87" on="0"/>
        <pt x="178" y="58" on="0"/>
        <pt x="234" y="58" on="1"/>
        <pt x="297" y="58" on="0"/>
        <pt x="363" y="106" on="0"/>
        <pt x="363" y="154" on="1"/>
        <pt x="363" y="183" on="0"/>
        <pt x="339" y="224" on="0"/>
        <pt x="299" y="255" on="0"/>
        <pt x="249" y="278" on="0"/>
        <pt x="223" y="288" on="1"/>
        <pt x="193" y="300" on="0"/>
        <pt x="138" y="330" on="0"/>
        <pt x="95" y="370" on="0"/>
        <pt x="70" y="424" on="0"/>
        <pt x="70" y="461" on="1"/>
        <pt x="70" y="542" on="0"/>
        <pt x="172" y="633" on="0"/>
        <pt x="263" y="633" on="1"/>
        <pt x="288" y="633" on="0"/>
        <pt x="337" y="626" on="0"/>
        <pt x="379" y="616" on="0"/>
        <pt x="412" y="602" on="0"/>
        <pt x="422" y="595" on="1"/>
        <pt x="396" y="526" on="1"/>
        <pt x="376" y="538" on="0"/>
        <pt x="306" y="562" on="0"/>
        <pt x="263" y="562" on="1"/>
        <pt x="218" y="562" on="0"/>
        <pt x="152" y="517" on="0"/>
        <pt x="152" y="472" on="1"/>
        <pt x="152" y="446" on="0"/>
        <pt x="171" y="410" on="0"/>
        <pt x="204" y="383" on="0"/>
        <pt x="248" y="361" on="0"/>
        <pt x="274" y="350" on="1"/>
        <pt x="312" y="334" on="0"/>
        <pt x="375" y="302" on="0"/>
        <pt x="420" y="258" on="0"/>
        <pt x="445" y="198" on="0"/>
        <pt x="445" y="155" on="1"/>
        <pt x="445" y="83" on="0"/>
        <pt x="357" y="-3" on="0"/>
        <pt x="274" y="-11" on="1"/>
      </contour>
    </TTGlyph>
    <TTGlyph name="Scircumflex" xMin="55" yMin="-13" xMax="445" yMax="826">
      <component glyphName="S" x="0" y="0" flags="0x204"/>
      <component glyphName="circumflex" x="9" y="139" flags="0x4"/>
    </TTGlyph>
    <TTGlyph name="Scommaaccent" xMin="55" yMin="-170" xMax="445" yMax="633">
      <component glyphName="S" x="0" y="0" flags="0x204"/>
      <component glyphName="commaaccent" x="-35" y="0" flags="0x4"/>
    </TTGlyph>
    <TTGlyph name="Sigma" xMin="40" yMin="0" xMax="447" yMax="619">
      <contour>
        <pt x="325" y="322" on="1"/>
        <pt x="276" y="258" on="0"/>
        <pt x="170" y="130" on="0"/>
        <pt x="128" y="70" on="1"/>
        <pt x="447" y="70" on="1"/>
        <pt x="447" y="0" on="1"/>
        <pt x="40" y="0" on="1"/>
        <pt x="40" y="65" on="1"/>
        <pt x="74" y="120" on="0"/>
        <pt x="180" y="252" on="0"/>
        <pt x="234" y="321" on="1"/>
        <pt x="182" y="390" on="0"/>
        <pt x="83" y="519" on="0"/>
        <pt x="53" y="564" on="1"/>
        <pt x="53" y="619" on="1"/>
        <pt x="446" y="619" on="1"/>
        <pt x="446" y="549" on="1"/>
        <pt x="154" y="549" on="1"/>
        <pt x="167" y="530" on="0"/>
        <pt x="205" y="478" on="0"/>
        <pt x="251" y="418" on="0"/>
        <pt x="301" y="353" on="0"/>
      </contour>
    </TTGlyph>
    <TTGlyph name="Slash" xMin="69" yMin="-123" xMax="431" yMax="741">
      <component glyphName="slash" x="0" y="42" flags="0x204"/>
    </TTGlyph>
    <TTGlyph name="T" xMin="39" yMin="0" xMax="461" yMax="619">
      <contour>
        <pt x="461" y="619" on="1"/>
        <pt x="461" y="549" on="1"/>
        <pt x="291" y="549" on="1"/>
        <pt x="291" y="0" on="1"/>
        <pt x="209" y="0" on="1"/>
        <pt x="209" y="549" on="1"/>
        <pt x="39" y="549" on="1"/>
        <pt x="39" y="619" on="1"/>
      </contour>
    </TTGlyph>
    <TTGlyph name="Tau" xMin="36" yMin="0" xMax="464" yMax="619">
      <contour>
        <pt x="464" y="619" on="1"/>
        <pt x="464" y="549" on="1"/>
        <pt x="291" y="549" on="1"/>
        <pt x="291" y="0" on="1"/>
        <pt x="209" y="0" on="1"/>
        <pt x="209" y="549" on="1"/>
        <pt x="36" y="549" on="1"/>
        <pt x="36" y="619" on="1"/>
      </contour>
    </TTGlyph>
    <TTGlyph name="Tbar" xMin="39" yMin="0" xMax="461" yMax="619">
      <contour>
        <pt x="461" y="619" on="1"/>
        <pt x="461" y="549" on="1"/>
        <pt x="291" y="549" on="1"/>
        <pt x="291" y="349" on="1"/>
        <pt x="409" y="349" on="1"/>
        <pt x="409" y="285" on="1"/>
        <pt x="291" y="285" on="1"/>
        <pt x="291" y="0" on="1"/>
        <pt x="209" y="0" on="1"/>
        <pt x="209" y="285" on="1"/>
        <pt x="90" y="285" on="1"/>
        <pt x="90" y="349" on="1"/>
        <pt x="209" y="349" on="1"/>
        <pt x="209" y="549" on="1"/>
        <pt x="39" y="549" on="1"/>
        <pt x="39" y="619" on="1"/>
      </contour>
    </TTGlyph>
    <TTGlyph name="Tcaron" xMin="39" yMin="0" xMax="461" yMax="829">
      <component glyphName="T" x="0" y="0" flags="0x204"/>
      <component glyphName="caron" x="0" y="139" flags="0x4"/>
    </TTGlyph>
    <TTGlyph name="Theta" xMin="29" yMin="-13" xMax="472" yMax="633">
      <contour>
        <pt x="175" y="347" on="1"/>
        <pt x="327" y="347" on="1"/>
        <pt x="327" y="276" on="1"/>
        <pt x="175" y="276" on="1"/>
      </contour>
      <contour>
        <pt x="29" y="310" on="1"/>
        <pt x="29" y="393" on="0"/>
        <pt x="61" y="515" on="0"/>
        <pt x="119" y="594" on="0"/>
        <pt x="200" y="633" on="0"/>
        <pt x="250" y="633" on="1"/>
        <pt x="299" y="633" on="0"/>
        <pt x="381" y="594" on="0"/>
        <pt x="439" y="515" on="0"/>
        <pt x="472" y="393" on="0"/>
        <pt x="472" y="310" on="1"/>
        <pt x="472" y="227" on="0"/>
        <pt x="439" y="105" on="0"/>
        <pt x="381" y="25" on="0"/>
        <pt x="299" y="-13" on="0"/>
        <pt x="250" y="-13" on="1"/>
        <pt x="200" y="-13" on="0"/>
        <pt x="119" y="25" on="0"/>
        <pt x="61" y="105" on="0"/>
        <pt x="29" y="227" on="0"/>
      </contour>
      <contour>
        <pt x="113" y="310" on="1"/>
        <pt x="113" y="188" on="0"/>
        <pt x="179" y="58" on="0"/>
        <pt x="248" y="58" on="1"/>
        <pt x="318" y="58" on="0"/>
        <pt x="388" y="188" on="0"/>
        <pt x="388" y="310" on="1"/>
        <pt x="388" y="432" on="0"/>
        <pt x="318" y="562" on="0"/>
        <pt x="248" y="562" on="1"/>
        <pt x="179" y="562" on="0"/>
        <pt x="113" y="432" on="0"/>
      </contour>
    </TTGlyph>
    <TTGlyph name="Thorn" xMin="73" yMin="0" xMax="455" yMax="619">
      <contour>
        <pt x="73" y="619" on="1"/>
        <pt x="155" y="619" on="1"/>
        <pt x="155" y="516" on="1"/>
        <pt x="186" y="519" on="0"/>
        <pt x="216" y="519" on="1"/>
        <pt x="331" y="519" on="0"/>
        <pt x="455" y="428" on="0"/>
        <pt x="455" y="340" on="1"/>
        <pt x="455" y="281" on="0"/>
        <pt x="420" y="201" on="0"/>
        <pt x="356" y="150" on="0"/>
        <pt x="265" y="128" on="0"/>
        <pt x="210" y="128" on="1"/>
        <pt x="155" y="128" on="1"/>
        <pt x="155" y="0" on="1"/>
        <pt x="73" y="0" on="1"/>
      </contour>
      <contour>
        <pt x="229" y="447" on="1"/>
        <pt x="204" y="447" on="0"/>
        <pt x="169" y="447" on="0"/>
        <pt x="155" y="446" on="1"/>
        <pt x="155" y="197" on="1"/>
        <pt x="213" y="197" on="1"/>
        <pt x="248" y="197" on="0"/>
        <pt x="306" y="210" on="0"/>
        <pt x="348" y="242" on="0"/>
        <pt x="371" y="295" on="0"/>
        <pt x="371" y="336" on="1"/>
        <pt x="371" y="369" on="0"/>
        <pt x="346" y="412" on="0"/>
        <pt x="306" y="437" on="0"/>
        <pt x="255" y="447" on="0"/>
      </contour>
    </TTGlyph>
    <TTGlyph name="U" xMin="48" yMin="-13" xMax="452" yMax="619">
      <contour>
        <pt x="250" y="-13" on="1"/>
        <pt x="195" y="-13" on="0"/>
        <pt x="118" y="19" on="0"/>
        <pt x="70" y="77" on="0"/>
        <pt x="48" y="161" on="0"/>
        <pt x="48" y="213" on="1"/>
        <pt x="48" y="619" on="1"/>
        <pt x="130" y="619" on="1"/>
        <pt x="130" y="222" on="1"/>
        <pt x="130" y="175" on="0"/>
        <pt x="147" y="112" on="0"/>
        <pt x="178" y="74" on="0"/>
        <pt x="222" y="58" on="0"/>
        <pt x="250" y="58" on="1"/>
        <pt x="278" y="58" on="0"/>
        <pt x="322" y="74" on="0"/>
        <pt x="353" y="112" on="0"/>
        <pt x="370" y="175" on="0"/>
        <pt x="370" y="222" on="1"/>
        <pt x="370" y="619" on="1"/>
        <pt x="452" y="619" on="1"/>
        <pt x="452" y="213" on="1"/>
        <pt x="452" y="161" on="0"/>
        <pt x="430" y="77" on="0"/>
        <pt x="382" y="19" on="0"/>
        <pt x="305" y="-13" on="0"/>
      </contour>
    </TTGlyph>
    <TTGlyph name="Uacute" xMin="48" yMin="-13" xMax="452" yMax="830">
      <component glyphName="U" x="0" y="0" flags="0x204"/>
      <component glyphName="acute" x="9" y="137" flags="0x4"/>
    </TTGlyph>
    <TTGlyph name="Ubreve" xMin="48" yMin="-13" xMax="452" yMax="808">
      <component glyphName="U" x="0" y="0" flags="0x204"/>
      <component glyphName="breve" x="0" y="139" flags="0x4"/>
    </TTGlyph>
    <TTGlyph name="Ucircumflex" xMin="48" yMin="-13" xMax="452" yMax="826">
      <component glyphName="U" x="0" y="0" flags="0x204"/>
      <component glyphName="circumflex" x="0" y="139" flags="0x4"/>
    </TTGlyph>
    <TTGlyph name="Udieresis" xMin="48" yMin="-13" xMax="452" yMax="794">
      <component glyphName="U" x="0" y="0" flags="0x204"/>
      <component glyphName="dieresis" x="0" y="139" flags="0x4"/>
    </TTGlyph>
    <TTGlyph name="Ugrave" xMin="48" yMin="-13" xMax="452" yMax="830">
      <component glyphName="U" x="0" y="0" flags="0x204"/>
      <component glyphName="grave" x="0" y="137" flags="0x4"/>
    </TTGlyph>
    <TTGlyph name="Uhorn" xMin="48" yMin="-13" xMax="494" yMax="715">
      <contour>
        <pt x="223" y="-13" on="1"/>
        <pt x="173" y="-13" on="0"/>
        <pt x="106" y="18" on="0"/>
        <pt x="65" y="75" on="0"/>
        <pt x="48" y="155" on="0"/>
        <pt x="48" y="204" on="1"/>
        <pt x="48" y="619" on="1"/>
        <pt x="130" y="619" on="1"/>
        <pt x="130" y="213" on="1"/>
        <pt x="130" y="169" on="0"/>
        <pt x="141" y="110" on="0"/>
        <pt x="164" y="74" on="0"/>
        <pt x="199" y="58" on="0"/>
        <pt x="223" y="58" on="1"/>
        <pt x="247" y="58" on="0"/>
        <pt x="282" y="74" on="0"/>
        <pt x="305" y="110" on="0"/>
        <pt x="316" y="169" on="0"/>
        <pt x="316" y="213" on="1"/>
        <pt x="316" y="619" on="1"/>
        <pt x="380" y="619" on="1"/>
        <pt x="393" y="619" on="0"/>
        <pt x="413" y="650" on="0"/>
        <pt x="413" y="681" on="1"/>
        <pt x="413" y="690" on="0"/>
        <pt x="412" y="710" on="0"/>
        <pt x="411" y="715" on="1"/>
        <pt x="493" y="715" on="1"/>
        <pt x="494" y="705" on="0"/>
        <pt x="494" y="688" on="0"/>
        <pt x="494" y="683" on="1"/>
        <pt x="494" y="663" on="0"/>
        <pt x="485" y="622" on="0"/>
        <pt x="462" y="588" on="0"/>
        <pt x="425" y="563" on="0"/>
        <pt x="398" y="559" on="1"/>
        <pt x="398" y="204" on="1"/>
        <pt x="398" y="155" on="0"/>
        <pt x="381" y="75" on="0"/>
        <pt x="340" y="18" on="0"/>
        <pt x="273" y="-13" on="0"/>
      </contour>
    </TTGlyph>
    <TTGlyph name="Uhungarumlaut" xMin="48" yMin="-13" xMax="452" yMax="830">
      <component glyphName="U" x="0" y="0" flags="0x204"/>
      <component glyphName="hungarumlaut" x="27" y="137" flags="0x4"/>
    </TTGlyph>
    <TTGlyph name="Umacron" xMin="48" yMin="-13" xMax="452" yMax="774">
      <component glyphName="U" x="0" y="0" flags="0x204"/>
      <component glyphName="macron" x="0" y="139" flags="0x4"/>
    </TTGlyph>
    <TTGlyph name="Uogonek" xMin="48" yMin="-167" xMax="452" yMax="619">
      <contour>
        <pt x="240" y="-24" on="1"/>
        <pt x="185" y="-24" on="0"/>
        <pt x="112" y="11" on="0"/>
        <pt x="67" y="74" on="0"/>
        <pt x="48" y="161" on="0"/>
        <pt x="48" y="213" on="1"/>
        <pt x="48" y="619" on="1"/>
        <pt x="130" y="619" on="1"/>
        <pt x="130" y="222" on="1"/>
        <pt x="130" y="175" on="0"/>
        <pt x="147" y="112" on="0"/>
        <pt x="178" y="74" on="0"/>
        <pt x="222" y="58" on="0"/>
        <pt x="250" y="58" on="1"/>
        <pt x="278" y="58" on="0"/>
        <pt x="322" y="74" on="0"/>
        <pt x="353" y="112" on="0"/>
        <pt x="370" y="175" on="0"/>
        <pt x="370" y="222" on="1"/>
        <pt x="370" y="619" on="1"/>
        <pt x="452" y="619" on="1"/>
        <pt x="452" y="213" on="1"/>
        <pt x="452" y="144" on="0"/>
        <pt x="415" y="44" on="0"/>
        <pt x="372" y="17" on="1"/>
        <pt x="361" y="10" on="0"/>
        <pt x="323" y="-18" on="0"/>
        <pt x="309" y="-32" on="1"/>
        <pt x="295" y="-46" on="0"/>
        <pt x="280" y="-70" on="0"/>
        <pt x="280" y="-83" on="1"/>
        <pt x="280" y="-109" on="0"/>
        <pt x="316" y="-109" on="1"/>
        <pt x="322" y="-109" on="0"/>
        <pt x="342" y="-106" on="0"/>
        <pt x="353" y="-103" on="1"/>
        <pt x="359" y="-157" on="1"/>
        <pt x="337" y="-167" on="0"/>
        <pt x="300" y="-167" on="1"/>
        <pt x="249" y="-167" on="0"/>
        <pt x="202" y="-131" on="0"/>
        <pt x="202" y="-99" on="1"/>
        <pt x="202" y="-78" on="0"/>
        <pt x="216" y="-48" on="0"/>
      </contour>
    </TTGlyph>
    <TTGlyph name="Upsilon" xMin="13" yMin="0" xMax="488" yMax="619">
      <component glyphName="Y" x="0" y="0" flags="0x204"/>
    </TTGlyph>
    <TTGlyph name="Upsilondieresis" xMin="13" yMin="0" xMax="488" yMax="794">
      <component glyphName="Y" x="0" y="0" flags="0x204"/>
      <component glyphName="dieresis" x="0" y="139" flags="0x4"/>
    </TTGlyph>
    <TTGlyph name="Upsilontonos" xMin="-130" yMin="0" xMax="488" yMax="633">
      <component glyphName="tonos.cap" x="-336" y="0" flags="0x214"/>
      <component glyphName="Y" x="0" y="0" flags="0x4"/>
    </TTGlyph>
    <TTGlyph name="Uring" xMin="48" yMin="-13" xMax="452" yMax="830">
      <component glyphName="U" x="0" y="0" flags="0x204"/>
      <component glyphName="ring" x="0" y="134" flags="0x4"/>
    </TTGlyph>
    <TTGlyph name="Utilde" xMin="48" yMin="-13" xMax="452" yMax="796">
      <component glyphName="U" x="0" y="0" flags="0x204"/>
      <component glyphName="tilde" x="0" y="139" flags="0x4"/>
    </TTGlyph>
    <TTGlyph name="V" xMin="13" yMin="0" xMax="488" yMax="619">
      <contour>
        <pt x="102" y="619" on="1"/>
        <pt x="114" y="556" on="0"/>
        <pt x="151" y="407" on="0"/>
        <pt x="192" y="258" on="0"/>
        <pt x="234" y="122" on="0"/>
        <pt x="252" y="71" on="1"/>
        <pt x="268" y="122" on="0"/>
        <pt x="311" y="260" on="0"/>
        <pt x="353" y="409" on="0"/>
        <pt x="390" y="557" on="0"/>
        <pt x="402" y="619" on="1"/>
        <pt x="488" y="619" on="1"/>
        <pt x="480" y="579" on="0"/>
        <pt x="444" y="444" on="0"/>
        <pt x="394" y="277" on="0"/>
        <pt x="333" y="90" on="0"/>
        <pt x="300" y="0" on="1"/>
        <pt x="198" y="0" on="1"/>
        <pt x="167" y="90" on="0"/>
        <pt x="108" y="276" on="0"/>
        <pt x="58" y="443" on="0"/>
        <pt x="22" y="579" on="0"/>
        <pt x="13" y="619" on="1"/>
      </contour>
    </TTGlyph>
    <TTGlyph name="W" xMin="32" yMin="0" xMax="468" yMax="619">
      <contour>
        <pt x="153" y="0" on="1"/>
        <pt x="76" y="0" on="1"/>
        <pt x="67" y="61" on="0"/>
        <pt x="54" y="208" on="0"/>
        <pt x="43" y="368" on="0"/>
        <pt x="35" y="536" on="0"/>
        <pt x="32" y="619" on="1"/>
        <pt x="112" y="619" on="1"/>
        <pt x="123" y="102" on="1"/>
        <pt x="213" y="384" on="1"/>
        <pt x="285" y="384" on="1"/>
        <pt x="377" y="102" on="1"/>
        <pt x="388" y="619" on="1"/>
        <pt x="468" y="619" on="1"/>
        <pt x="465" y="535" on="0"/>
        <pt x="456" y="367" on="0"/>
        <pt x="444" y="208" on="0"/>
        <pt x="430" y="62" on="0"/>
        <pt x="422" y="0" on="1"/>
        <pt x="346" y="0" on="1"/>
        <pt x="249" y="308" on="1"/>
      </contour>
    </TTGlyph>
    <TTGlyph name="Wacute" xMin="32" yMin="0" xMax="468" yMax="830">
      <component glyphName="W" x="0" y="0" flags="0x204"/>
      <component glyphName="acute" x="0" y="137" flags="0x4"/>
    </TTGlyph>
    <TTGlyph name="Wcircumflex" xMin="32" yMin="0" xMax="468" yMax="826">
      <component glyphName="W" x="0" y="0" flags="0x204"/>
      <component glyphName="circumflex" x="0" y="139" flags="0x4"/>
    </TTGlyph>
    <TTGlyph name="Wdieresis" xMin="32" yMin="0" xMax="468" yMax="794">
      <component glyphName="W" x="0" y="0" flags="0x204"/>
      <component glyphName="dieresis" x="0" y="139" flags="0x4"/>
    </TTGlyph>
    <TTGlyph name="Wgrave" xMin="32" yMin="0" xMax="468" yMax="830">
      <component glyphName="W" x="0" y="0" flags="0x204"/>
      <component glyphName="grave" x="0" y="137" flags="0x4"/>
    </TTGlyph>
    <TTGlyph name="X" xMin="25" yMin="0" xMax="475" yMax="619">
      <contour>
        <pt x="384" y="0" on="1"/>
        <pt x="373" y="27" on="0"/>
        <pt x="343" y="95" on="0"/>
        <pt x="309" y="167" on="0"/>
        <pt x="270" y="239" on="0"/>
        <pt x="249" y="270" on="1"/>
        <pt x="214" y="214" on="0"/>
        <pt x="144" y="69" on="0"/>
        <pt x="114" y="0" on="1"/>
        <pt x="25" y="0" on="1"/>
        <pt x="58" y="74" on="0"/>
        <pt x="146" y="247" on="0"/>
        <pt x="196" y="327" on="1"/>
        <pt x="35" y="619" on="1"/>
        <pt x="126" y="619" on="1"/>
        <pt x="247" y="382" on="1"/>
        <pt x="377" y="619" on="1"/>
        <pt x="466" y="619" on="1"/>
        <pt x="302" y="330" on="1"/>
        <pt x="350" y="252" on="0"/>
        <pt x="440" y="84" on="0"/>
        <pt x="475" y="0" on="1"/>
      </contour>
    </TTGlyph>
    <TTGlyph name="Xi" xMin="37" yMin="0" xMax="463" yMax="619">
      <contour>
        <pt x="455" y="548" on="1"/>
        <pt x="46" y="548" on="1"/>
        <pt x="46" y="619" on="1"/>
        <pt x="455" y="619" on="1"/>
      </contour>
      <contour>
        <pt x="37" y="71" on="1"/>
        <pt x="463" y="71" on="1"/>
        <pt x="463" y="0" on="1"/>
        <pt x="37" y="0" on="1"/>
      </contour>
      <contour>
        <pt x="85" y="361" on="1"/>
        <pt x="415" y="361" on="1"/>
        <pt x="415" y="288" on="1"/>
        <pt x="85" y="288" on="1"/>
      </contour>
    </TTGlyph>
    <TTGlyph name="Y" xMin="13" yMin="0" xMax="488" yMax="619">
      <contour>
        <pt x="210" y="0" on="1"/>
        <pt x="210" y="230" on="1"/>
        <pt x="149" y="330" on="0"/>
        <pt x="50" y="520" on="0"/>
        <pt x="13" y="619" on="1"/>
        <pt x="105" y="619" on="1"/>
        <pt x="134" y="535" on="0"/>
        <pt x="209" y="382" on="0"/>
        <pt x="252" y="301" on="1"/>
        <pt x="298" y="386" on="0"/>
        <pt x="369" y="539" on="0"/>
        <pt x="398" y="619" on="1"/>
        <pt x="488" y="619" on="1"/>
        <pt x="450" y="521" on="0"/>
        <pt x="352" y="335" on="0"/>
        <pt x="292" y="232" on="1"/>
        <pt x="292" y="0" on="1"/>
      </contour>
    </TTGlyph>
    <TTGlyph name="Yacute" xMin="13" yMin="0" xMax="488" yMax="830">
      <component glyphName="Y" x="0" y="0" flags="0x204"/>
      <component glyphName="acute" x="9" y="137" flags="0x4"/>
    </TTGlyph>
    <TTGlyph name="Ycircumflex" xMin="13" yMin="0" xMax="488" yMax="826">
      <component glyphName="Y" x="0" y="0" flags="0x204"/>
      <component glyphName="circumflex" x="0" y="139" flags="0x4"/>
    </TTGlyph>
    <TTGlyph name="Ydieresis" xMin="13" yMin="0" xMax="488" yMax="794">
      <component glyphName="Y" x="0" y="0" flags="0x204"/>
      <component glyphName="dieresis" x="2" y="139" flags="0x4"/>
    </TTGlyph>
    <TTGlyph name="Ygrave" xMin="13" yMin="0" xMax="488" yMax="830">
      <component glyphName="Y" x="0" y="0" flags="0x204"/>
      <component glyphName="grave" x="0" y="137" flags="0x4"/>
    </TTGlyph>
    <TTGlyph name="Z" xMin="54" yMin="0" xMax="455" yMax="619">
      <contour>
        <pt x="447" y="555" on="1"/>
        <pt x="415" y="511" on="0"/>
        <pt x="336" y="390" on="0"/>
        <pt x="254" y="258" on="0"/>
        <pt x="177" y="125" on="0"/>
        <pt x="148" y="70" on="1"/>
        <pt x="455" y="70" on="1"/>
        <pt x="455" y="0" on="1"/>
        <pt x="54" y="0" on="1"/>
        <pt x="54" y="54" on="1"/>
        <pt x="85" y="117" on="0"/>
        <pt x="160" y="250" on="0"/>
        <pt x="238" y="378" on="0"/>
        <pt x="316" y="498" on="0"/>
        <pt x="352" y="549" on="1"/>
        <pt x="69" y="549" on="1"/>
        <pt x="69" y="619" on="1"/>
        <pt x="447" y="619" on="1"/>
      </contour>
    </TTGlyph>
    <TTGlyph name="Zacute" xMin="54" yMin="0" xMax="455" yMax="830">
      <component glyphName="Z" x="0" y="0" flags="0x204"/>
      <component glyphName="acute" x="9" y="137" flags="0x4"/>
    </TTGlyph>
    <TTGlyph name="Zcaron" xMin="54" yMin="0" xMax="455" yMax="829">
      <component glyphName="Z" x="0" y="0" flags="0x204"/>
      <component glyphName="caron" x="0" y="139" flags="0x4"/>
    </TTGlyph>
    <TTGlyph name="Zdotaccent" xMin="54" yMin="0" xMax="455" yMax="802">
      <component glyphName="Z" x="0" y="0" flags="0x204"/>
      <component glyphName="dotaccent" x="0" y="139" flags="0x4"/>
    </TTGlyph>
    <TTGlyph name="Zeta" xMin="54" yMin="0" xMax="455" yMax="619">
      <contour>
        <pt x="447" y="552" on="1"/>
        <pt x="415" y="508" on="0"/>
        <pt x="336" y="388" on="0"/>
        <pt x="254" y="257" on="0"/>
        <pt x="177" y="125" on="0"/>
        <pt x="148" y="70" on="1"/>
        <pt x="455" y="70" on="1"/>
        <pt x="455" y="0" on="1"/>
        <pt x="54" y="0" on="1"/>
        <pt x="54" y="67" on="1"/>
        <pt x="87" y="128" on="0"/>
        <pt x="162" y="255" on="0"/>
        <pt x="240" y="380" on="0"/>
        <pt x="317" y="498" on="0"/>
        <pt x="352" y="549" on="1"/>
        <pt x="69" y="549" on="1"/>
        <pt x="69" y="619" on="1"/>
        <pt x="447" y="619" on="1"/>
      </contour>
    </TTGlyph>
    <TTGlyph name="a" xMin="58" yMin="-11" xMax="432" yMax="475">
      <contour>
        <pt x="255" y="59" on="1"/>
        <pt x="286" y="59" on="0"/>
        <pt x="335" y="63" on="0"/>
        <pt x="351" y="66" on="1"/>
        <pt x="351" y="204" on="1"/>
        <pt x="335" y="209" on="0"/>
        <pt x="290" y="215" on="0"/>
        <pt x="265" y="215" on="1"/>
        <pt x="242" y="215" on="0"/>
        <pt x="198" y="208" on="0"/>
        <pt x="164" y="190" on="0"/>
        <pt x="142" y="161" on="0"/>
        <pt x="142" y="139" on="1"/>
        <pt x="142" y="94" on="0"/>
        <pt x="203" y="59" on="0"/>
      </contour>
      <contour>
        <pt x="247" y="475" on="1"/>
        <pt x="299" y="475" on="0"/>
        <pt x="370" y="449" on="0"/>
        <pt x="414" y="403" on="0"/>
        <pt x="432" y="337" on="0"/>
        <pt x="432" y="298" on="1"/>
        <pt x="432" y="8" on="1"/>
        <pt x="403" y="3" on="0"/>
        <pt x="308" y="-11" on="0"/>
        <pt x="258" y="-11" on="1"/>
        <pt x="220" y="-11" on="0"/>
        <pt x="148" y="2" on="0"/>
        <pt x="92" y="35" on="0"/>
        <pt x="58" y="93" on="0"/>
        <pt x="58" y="138" on="1"/>
        <pt x="58" y="178" on="0"/>
        <pt x="93" y="233" on="0"/>
        <pt x="148" y="267" on="0"/>
        <pt x="219" y="282" on="0"/>
        <pt x="255" y="282" on="1"/>
        <pt x="304" y="282" on="0"/>
        <pt x="351" y="271" on="1"/>
        <pt x="351" y="294" on="1"/>
        <pt x="351" y="315" on="0"/>
        <pt x="342" y="354" on="0"/>
        <pt x="317" y="386" on="0"/>
        <pt x="274" y="405" on="0"/>
        <pt x="240" y="405" on="1"/>
        <pt x="197" y="405" on="0"/>
        <pt x="133" y="393" on="0"/>
        <pt x="116" y="387" on="1"/>
        <pt x="106" y="455" on="1"/>
        <pt x="123" y="463" on="0"/>
        <pt x="202" y="475" on="0"/>
      </contour>
    </TTGlyph>
    <TTGlyph name="aacute" xMin="58" yMin="-11" xMax="432" yMax="693">
      <component glyphName="a" x="0" y="0" flags="0x204"/>
      <component glyphName="acute" x="18" y="0" flags="0x4"/>
    </TTGlyph>
    <TTGlyph name="abreve" xMin="58" yMin="-11" xMax="432" yMax="669">
      <component glyphName="a" x="0" y="0" flags="0x204"/>
      <component glyphName="breve" x="0" y="0" flags="0x4"/>
    </TTGlyph>
    <TTGlyph name="acircumflex" xMin="58" yMin="-11" xMax="432" yMax="687">
      <component glyphName="a" x="0" y="0" flags="0x204"/>
      <component glyphName="circumflex" x="9" y="0" flags="0x4"/>
    </TTGlyph>
    <TTGlyph name="acute" xMin="170" yMin="518" xMax="338" yMax="693">
      <contour>
        <pt x="338" y="640" on="1"/>
        <pt x="212" y="518" on="1"/>
        <pt x="170" y="555" on="1"/>
        <pt x="284" y="693" on="1"/>
      </contour>
    </TTGlyph>
    <TTGlyph name="acute.asc" xMin="156" yMin="711" xMax="325" yMax="830">
      <contour>
        <pt x="325" y="765" on="1"/>
        <pt x="175" y="711" on="1"/>
        <pt x="156" y="760" on="1"/>
        <pt x="300" y="830" on="1"/>
      </contour>
    </TTGlyph>
    <TTGlyph name="adieresis" xMin="58" yMin="-11" xMax="432" yMax="655">
      <component glyphName="a" x="0" y="0" flags="0x204"/>
      <component glyphName="dieresis" x="0" y="0" flags="0x4"/>
    </TTGlyph>
    <TTGlyph name="ae" xMin="31" yMin="-11" xMax="478" yMax="475">
      <contour>
        <pt x="150" y="475" on="1"/>
        <pt x="194" y="475" on="0"/>
        <pt x="250" y="441" on="0"/>
        <pt x="265" y="411" on="1"/>
        <pt x="281" y="441" on="0"/>
        <pt x="323" y="475" on="0"/>
        <pt x="349" y="475" on="1"/>
        <pt x="478" y="475" on="0"/>
        <pt x="478" y="239" on="1"/>
        <pt x="478" y="234" on="0"/>
        <pt x="478" y="217" on="0"/>
        <pt x="477" y="210" on="1"/>
        <pt x="292" y="210" on="1"/>
        <pt x="292" y="138" on="0"/>
        <pt x="344" y="63" on="0"/>
        <pt x="385" y="63" on="1"/>
        <pt x="417" y="63" on="0"/>
        <pt x="454" y="85" on="1"/>
        <pt x="465" y="15" on="1"/>
        <pt x="461" y="11" on="0"/>
        <pt x="442" y="2" on="0"/>
        <pt x="418" y="-6" on="0"/>
        <pt x="390" y="-11" on="0"/>
        <pt x="377" y="-11" on="1"/>
        <pt x="344" y="-11" on="0"/>
        <pt x="293" y="12" on="0"/>
        <pt x="274" y="32" on="1"/>
        <pt x="247" y="9" on="0"/>
        <pt x="191" y="-11" on="0"/>
        <pt x="162" y="-11" on="1"/>
        <pt x="129" y="-11" on="0"/>
        <pt x="80" y="14" on="0"/>
        <pt x="47" y="54" on="0"/>
        <pt x="31" y="105" on="0"/>
        <pt x="31" y="132" on="1"/>
        <pt x="31" y="163" on="0"/>
        <pt x="48" y="218" on="0"/>
        <pt x="82" y="259" on="0"/>
        <pt x="131" y="282" on="0"/>
        <pt x="164" y="282" on="1"/>
        <pt x="176" y="282" on="0"/>
        <pt x="205" y="277" on="0"/>
        <pt x="217" y="271" on="1"/>
        <pt x="217" y="294" on="1"/>
        <pt x="217" y="341" on="0"/>
        <pt x="181" y="405" on="0"/>
        <pt x="143" y="405" on="1"/>
        <pt x="121" y="405" on="0"/>
        <pt x="79" y="393" on="0"/>
        <pt x="71" y="387" on="1"/>
        <pt x="62" y="455" on="1"/>
        <pt x="71" y="463" on="0"/>
        <pt x="124" y="475" on="0"/>
      </contour>
      <contour>
        <pt x="172" y="215" on="1"/>
        <pt x="139" y="215" on="0"/>
        <pt x="106" y="173" on="0"/>
        <pt x="106" y="137" on="1"/>
        <pt x="106" y="107" on="0"/>
        <pt x="137" y="59" on="0"/>
        <pt x="169" y="59" on="1"/>
        <pt x="186" y="59" on="0"/>
        <pt x="225" y="75" on="0"/>
        <pt x="239" y="88" on="1"/>
        <pt x="228" y="113" on="0"/>
        <pt x="216" y="172" on="0"/>
        <pt x="214" y="204" on="1"/>
        <pt x="194" y="215" on="0"/>
      </contour>
      <contour>
        <pt x="403" y="277" on="1"/>
        <pt x="403" y="314" on="0"/>
        <pt x="394" y="363" on="0"/>
        <pt x="379" y="393" on="0"/>
        <pt x="361" y="405" on="0"/>
        <pt x="353" y="405" on="1"/>
        <pt x="330" y="405" on="0"/>
        <pt x="294" y="347" on="0"/>
        <pt x="294" y="277" on="1"/>
      </contour>
    </TTGlyph>
    <TTGlyph name="aeacute" xMin="31" yMin="-11" xMax="478" yMax="693">
      <component glyphName="ae" x="0" y="0" flags="0x204"/>
      <component glyphName="acute" x="34" y="0" flags="0x4"/>
    </TTGlyph>
    <TTGlyph name="afii00208" xMin="0" yMin="236" xMax="500" yMax="306">
      <contour>
        <pt x="0" y="306" on="1"/>
        <pt x="500" y="306" on="1"/>
        <pt x="500" y="236" on="1"/>
        <pt x="0" y="236" on="1"/>
      </contour>
    </TTGlyph>
    <TTGlyph name="afii10017" xMin="9" yMin="0" xMax="491" yMax="619">
      <component glyphName="A" x="0" y="0" flags="0x204"/>
    </TTGlyph>
    <TTGlyph name="afii10018" xMin="54" yMin="-5" xMax="451" yMax="619">
      <component glyphName="uni0182" x="0" y="0" flags="0x204"/>
    </TTGlyph>
    <TTGlyph name="afii10019" xMin="54" yMin="-5" xMax="451" yMax="625">
      <component glyphName="B" x="0" y="0" flags="0x204"/>
    </TTGlyph>
    <TTGlyph name="afii10020" xMin="54" yMin="0" xMax="460" yMax="619">
      <contour>
        <pt x="143" y="70" on="1"/>
        <pt x="143" y="619" on="1"/>
        <pt x="460" y="619" on="1"/>
        <pt x="460" y="549" on="1"/>
        <pt x="225" y="549" on="1"/>
        <pt x="225" y="70" on="1"/>
        <pt x="359" y="70" on="1"/>
        <pt x="359" y="0" on="1"/>
        <pt x="54" y="0" on="1"/>
        <pt x="54" y="70" on="1"/>
      </contour>
    </TTGlyph>
    <TTGlyph name="afii10021" xMin="18" yMin="-165" xMax="473" yMax="619">
      <contour>
        <pt x="96" y="0" on="1"/>
        <pt x="96" y="-165" on="1"/>
        <pt x="18" y="-165" on="1"/>
        <pt x="18" y="70" on="1"/>
        <pt x="54" y="70" on="1"/>
        <pt x="89" y="118" on="0"/>
        <pt x="125" y="227" on="0"/>
        <pt x="142" y="348" on="0"/>
        <pt x="147" y="480" on="0"/>
        <pt x="150" y="552" on="1"/>
        <pt x="153" y="619" on="1"/>
        <pt x="434" y="619" on="1"/>
        <pt x="434" y="70" on="1"/>
        <pt x="473" y="70" on="1"/>
        <pt x="473" y="-165" on="1"/>
        <pt x="395" y="-165" on="1"/>
        <pt x="395" y="0" on="1"/>
      </contour>
      <contour>
        <pt x="231" y="549" on="1"/>
        <pt x="229" y="482" on="1"/>
        <pt x="227" y="432" on="0"/>
        <pt x="221" y="324" on="0"/>
        <pt x="206" y="217" on="0"/>
        <pt x="176" y="115" on="0"/>
        <pt x="149" y="70" on="1"/>
        <pt x="352" y="70" on="1"/>
        <pt x="352" y="549" on="1"/>
      </contour>
    </TTGlyph>
    <TTGlyph name="afii10022" xMin="91" yMin="0" xMax="460" yMax="619">
      <component glyphName="E" x="0" y="0" flags="0x204"/>
    </TTGlyph>
    <TTGlyph name="afii10023" xMin="91" yMin="0" xMax="460" yMax="794">
      <component glyphName="E" x="0" y="0" flags="0x204"/>
      <component glyphName="dieresis" x="18" y="139" flags="0x4"/>
    </TTGlyph>
    <TTGlyph name="afii10024" xMin="4" yMin="0" xMax="497" yMax="619">
      <contour>
        <pt x="213" y="0" on="1"/>
        <pt x="213" y="301" on="1"/>
        <pt x="193" y="277" on="0"/>
        <pt x="158" y="207" on="0"/>
        <pt x="126" y="126" on="0"/>
        <pt x="98" y="40" on="0"/>
        <pt x="86" y="0" on="1"/>
        <pt x="4" y="0" on="1"/>
        <pt x="16" y="43" on="0"/>
        <pt x="50" y="137" on="0"/>
        <pt x="90" y="225" on="0"/>
        <pt x="133" y="303" on="0"/>
        <pt x="154" y="330" on="1"/>
        <pt x="136" y="364" on="0"/>
        <pt x="102" y="430" on="0"/>
        <pt x="67" y="499" on="0"/>
        <pt x="32" y="575" on="0"/>
        <pt x="14" y="619" on="1"/>
        <pt x="96" y="619" on="1"/>
        <pt x="125" y="542" on="0"/>
        <pt x="182" y="409" on="0"/>
        <pt x="213" y="352" on="1"/>
        <pt x="213" y="619" on="1"/>
        <pt x="287" y="619" on="1"/>
        <pt x="287" y="354" on="1"/>
        <pt x="317" y="411" on="0"/>
        <pt x="375" y="543" on="0"/>
        <pt x="404" y="619" on="1"/>
        <pt x="486" y="619" on="1"/>
        <pt x="468" y="575" on="0"/>
        <pt x="432" y="499" on="0"/>
        <pt x="398" y="430" on="0"/>
        <pt x="364" y="364" on="0"/>
        <pt x="346" y="330" on="1"/>
        <pt x="367" y="303" on="0"/>
        <pt x="410" y="225" on="0"/>
        <pt x="451" y="137" on="0"/>
        <pt x="485" y="43" on="0"/>
        <pt x="497" y="0" on="1"/>
        <pt x="414" y="0" on="1"/>
        <pt x="402" y="40" on="0"/>
        <pt x="374" y="125" on="0"/>
        <pt x="342" y="206" on="0"/>
        <pt x="306" y="276" on="0"/>
        <pt x="287" y="300" on="1"/>
        <pt x="287" y="0" on="1"/>
      </contour>
    </TTGlyph>
    <TTGlyph name="afii10025" xMin="38" yMin="-12" xMax="465" yMax="630">
      <contour>
        <pt x="141" y="362" on="1"/>
        <pt x="174" y="362" on="1"/>
        <pt x="204" y="362" on="0"/>
        <pt x="268" y="371" on="0"/>
        <pt x="321" y="395" on="0"/>
        <pt x="355" y="436" on="0"/>
        <pt x="355" y="468" on="1"/>
        <pt x="355" y="509" on="0"/>
        <pt x="288" y="560" on="0"/>
        <pt x="234" y="560" on="1"/>
        <pt x="186" y="560" on="0"/>
        <pt x="107" y="539" on="0"/>
        <pt x="87" y="528" on="1"/>
        <pt x="60" y="593" on="1"/>
        <pt x="83" y="608" on="0"/>
        <pt x="179" y="630" on="0"/>
        <pt x="235" y="630" on="1"/>
        <pt x="279" y="630" on="0"/>
        <pt x="354" y="611" on="0"/>
        <pt x="408" y="572" on="0"/>
        <pt x="438" y="511" on="0"/>
        <pt x="438" y="470" on="1"/>
        <pt x="438" y="427" on="0"/>
        <pt x="383" y="351" on="0"/>
        <pt x="329" y="334" on="1"/>
        <pt x="356" y="327" on="0"/>
        <pt x="405" y="301" on="0"/>
        <pt x="443" y="261" on="0"/>
        <pt x="465" y="207" on="0"/>
        <pt x="465" y="171" on="1"/>
        <pt x="465" y="121" on="0"/>
        <pt x="431" y="52" on="0"/>
        <pt x="368" y="8" on="0"/>
        <pt x="280" y="-12" on="0"/>
        <pt x="226" y="-12" on="1"/>
        <pt x="192" y="-12" on="0"/>
        <pt x="133" y="-2" on="0"/>
        <pt x="84" y="12" on="0"/>
        <pt x="48" y="27" on="0"/>
        <pt x="38" y="32" on="1"/>
        <pt x="63" y="98" on="1"/>
        <pt x="84" y="87" on="0"/>
        <pt x="168" y="58" on="0"/>
        <pt x="225" y="58" on="1"/>
        <pt x="297" y="58" on="0"/>
        <pt x="383" y="111" on="0"/>
        <pt x="383" y="173" on="1"/>
        <pt x="383" y="209" on="0"/>
        <pt x="351" y="256" on="0"/>
        <pt x="297" y="282" on="0"/>
        <pt x="224" y="292" on="0"/>
        <pt x="183" y="292" on="1"/>
        <pt x="141" y="292" on="1"/>
      </contour>
    </TTGlyph>
    <TTGlyph name="afii10026" xMin="55" yMin="0" xMax="445" yMax="619">
      <contour>
        <pt x="55" y="0" on="1"/>
        <pt x="55" y="619" on="1"/>
        <pt x="130" y="619" on="1"/>
        <pt x="130" y="143" on="1"/>
        <pt x="160" y="216" on="0"/>
        <pt x="208" y="327" on="0"/>
        <pt x="259" y="432" on="0"/>
        <pt x="320" y="544" on="0"/>
        <pt x="361" y="619" on="1"/>
        <pt x="445" y="619" on="1"/>
        <pt x="445" y="0" on="1"/>
        <pt x="370" y="0" on="1"/>
        <pt x="370" y="494" on="1"/>
        <pt x="342" y="441" on="0"/>
        <pt x="289" y="336" on="0"/>
        <pt x="233" y="218" on="0"/>
        <pt x="173" y="83" on="0"/>
        <pt x="139" y="0" on="1"/>
      </contour>
    </TTGlyph>
    <TTGlyph name="afii10027" xMin="55" yMin="0" xMax="445" yMax="803">
      <component glyphName="afii10026" x="0" y="0" flags="0x204"/>
      <component glyphName="kratka" x="0" y="139" flags="0x4"/>
    </TTGlyph>
    <TTGlyph name="afii10028" xMin="64" yMin="0" xMax="491" yMax="619">
      <component glyphName="K" x="0" y="0" flags="0x204"/>
    </TTGlyph>
    <TTGlyph name="afii10029" xMin="13" yMin="-9" xMax="455" yMax="619">
      <contour>
        <pt x="238" y="549" on="1"/>
        <pt x="235" y="447" on="0"/>
        <pt x="223" y="267" on="0"/>
        <pt x="201" y="186" on="1"/>
        <pt x="190" y="146" on="0"/>
        <pt x="160" y="76" on="0"/>
        <pt x="117" y="24" on="0"/>
        <pt x="60" y="-7" on="0"/>
        <pt x="22" y="-9" on="1"/>
        <pt x="13" y="63" on="1"/>
        <pt x="57" y="70" on="0"/>
        <pt x="105" y="135" on="0"/>
        <pt x="125" y="204" on="1"/>
        <pt x="135" y="240" on="0"/>
        <pt x="148" y="334" on="0"/>
        <pt x="155" y="442" on="0"/>
        <pt x="158" y="560" on="0"/>
        <pt x="158" y="619" on="1"/>
        <pt x="455" y="619" on="1"/>
        <pt x="455" y="0" on="1"/>
        <pt x="373" y="0" on="1"/>
        <pt x="373" y="549" on="1"/>
      </contour>
    </TTGlyph>
    <TTGlyph name="afii10030" xMin="32" yMin="0" xMax="468" yMax="619">
      <component glyphName="M" x="0" y="0" flags="0x204"/>
    </TTGlyph>
    <TTGlyph name="afii10031" xMin="45" yMin="0" xMax="455" yMax="619">
      <component glyphName="H" x="0" y="0" flags="0x204"/>
    </TTGlyph>
    <TTGlyph name="afii10032" xMin="29" yMin="-13" xMax="472" yMax="633">
      <component glyphName="O" x="0" y="0" flags="0x204"/>
    </TTGlyph>
    <TTGlyph name="afii10033" xMin="45" yMin="0" xMax="455" yMax="619">
      <contour>
        <pt x="373" y="0" on="1"/>
        <pt x="373" y="549" on="1"/>
        <pt x="127" y="549" on="1"/>
        <pt x="127" y="0" on="1"/>
        <pt x="45" y="0" on="1"/>
        <pt x="45" y="619" on="1"/>
        <pt x="455" y="619" on="1"/>
        <pt x="455" y="0" on="1"/>
      </contour>
    </TTGlyph>
    <TTGlyph name="afii10034" xMin="73" yMin="0" xMax="455" yMax="625">
      <component glyphName="P" x="0" y="0" flags="0x204"/>
    </TTGlyph>
    <TTGlyph name="afii10035" xMin="46" yMin="-13" xMax="460" yMax="633">
      <component glyphName="C" x="0" y="0" flags="0x204"/>
    </TTGlyph>
    <TTGlyph name="afii10036" xMin="39" yMin="0" xMax="461" yMax="619">
      <component glyphName="T" x="0" y="0" flags="0x204"/>
    </TTGlyph>
    <TTGlyph name="afii10037" xMin="9" yMin="-8" xMax="494" yMax="619">
      <contour>
        <pt x="113" y="63" on="1"/>
        <pt x="137" y="63" on="0"/>
        <pt x="173" y="76" on="0"/>
        <pt x="202" y="98" on="0"/>
        <pt x="225" y="130" on="0"/>
        <pt x="236" y="149" on="1"/>
        <pt x="244" y="163" on="1"/>
        <pt x="207" y="221" on="0"/>
        <pt x="137" y="348" on="0"/>
        <pt x="76" y="470" on="0"/>
        <pt x="26" y="579" on="0"/>
        <pt x="9" y="619" on="1"/>
        <pt x="99" y="619" on="1"/>
        <pt x="114" y="581" on="0"/>
        <pt x="155" y="489" on="0"/>
        <pt x="202" y="390" on="0"/>
        <pt x="253" y="291" on="0"/>
        <pt x="277" y="245" on="1"/>
        <pt x="314" y="334" on="0"/>
        <pt x="378" y="519" on="0"/>
        <pt x="405" y="619" on="1"/>
        <pt x="494" y="619" on="1"/>
        <pt x="474" y="556" on="0"/>
        <pt x="435" y="448" on="0"/>
        <pt x="396" y="349" on="0"/>
        <pt x="357" y="256" on="0"/>
        <pt x="337" y="208" on="1"/>
        <pt x="319" y="166" on="0"/>
        <pt x="281" y="88" on="0"/>
        <pt x="230" y="28" on="0"/>
        <pt x="159" y="-8" on="0"/>
        <pt x="110" y="-8" on="1"/>
        <pt x="90" y="-8" on="0"/>
        <pt x="45" y="1" on="0"/>
        <pt x="37" y="6" on="1"/>
        <pt x="52" y="76" on="1"/>
        <pt x="63" y="71" on="0"/>
        <pt x="95" y="63" on="0"/>
      </contour>
    </TTGlyph>
    <TTGlyph name="afii10038" xMin="42" yMin="0" xMax="468" yMax="659">
      <contour>
        <pt x="42" y="332" on="1"/>
        <pt x="42" y="450" on="0"/>
        <pt x="139" y="574" on="0"/>
        <pt x="219" y="585" on="1"/>
        <pt x="219" y="659" on="1"/>
        <pt x="292" y="659" on="1"/>
        <pt x="292" y="585" on="1"/>
        <pt x="371" y="574" on="0"/>
        <pt x="468" y="450" on="0"/>
        <pt x="468" y="332" on="1"/>
        <pt x="468" y="273" on="0"/>
        <pt x="443" y="183" on="0"/>
        <pt x="396" y="120" on="0"/>
        <pt x="331" y="84" on="0"/>
        <pt x="292" y="78" on="1"/>
        <pt x="292" y="0" on="1"/>
        <pt x="219" y="0" on="1"/>
        <pt x="219" y="78" on="1"/>
        <pt x="179" y="84" on="0"/>
        <pt x="114" y="120" on="0"/>
        <pt x="67" y="183" on="0"/>
        <pt x="42" y="273" on="0"/>
      </contour>
      <contour>
        <pt x="124" y="332" on="1"/>
        <pt x="124" y="250" on="0"/>
        <pt x="169" y="158" on="0"/>
        <pt x="219" y="147" on="1"/>
        <pt x="219" y="517" on="1"/>
        <pt x="169" y="506" on="0"/>
        <pt x="124" y="413" on="0"/>
      </contour>
      <contour>
        <pt x="386" y="332" on="1"/>
        <pt x="386" y="492" on="0"/>
        <pt x="292" y="516" on="1"/>
        <pt x="292" y="148" on="1"/>
        <pt x="386" y="171" on="0"/>
      </contour>
    </TTGlyph>
    <TTGlyph name="afii10039" xMin="25" yMin="0" xMax="475" yMax="619">
      <component glyphName="X" x="0" y="0" flags="0x204"/>
    </TTGlyph>
    <TTGlyph name="afii10040" xMin="45" yMin="-165" xMax="473" yMax="619">
      <contour>
        <pt x="45" y="619" on="1"/>
        <pt x="127" y="619" on="1"/>
        <pt x="127" y="70" on="1"/>
        <pt x="352" y="70" on="1"/>
        <pt x="352" y="619" on="1"/>
        <pt x="434" y="619" on="1"/>
        <pt x="434" y="70" on="1"/>
        <pt x="473" y="70" on="1"/>
        <pt x="473" y="-165" on="1"/>
        <pt x="395" y="-165" on="1"/>
        <pt x="395" y="0" on="1"/>
        <pt x="45" y="0" on="1"/>
      </contour>
    </TTGlyph>
    <TTGlyph name="afii10041" xMin="54" yMin="0" xMax="447" yMax="619">
      <contour>
        <pt x="137" y="440" on="1"/>
        <pt x="137" y="402" on="0"/>
        <pt x="148" y="345" on="0"/>
        <pt x="176" y="307" on="0"/>
        <pt x="224" y="289" on="0"/>
        <pt x="260" y="289" on="1"/>
        <pt x="292" y="289" on="0"/>
        <pt x="351" y="299" on="0"/>
        <pt x="365" y="303" on="1"/>
        <pt x="365" y="619" on="1"/>
        <pt x="447" y="619" on="1"/>
        <pt x="447" y="0" on="1"/>
        <pt x="365" y="0" on="1"/>
        <pt x="365" y="232" on="1"/>
        <pt x="350" y="227" on="0"/>
        <pt x="284" y="218" on="0"/>
        <pt x="249" y="218" on="1"/>
        <pt x="189" y="218" on="0"/>
        <pt x="113" y="249" on="0"/>
        <pt x="70" y="307" on="0"/>
        <pt x="54" y="389" on="0"/>
        <pt x="54" y="440" on="1"/>
        <pt x="54" y="619" on="1"/>
        <pt x="137" y="619" on="1"/>
      </contour>
    </TTGlyph>
    <TTGlyph name="afii10042" xMin="45" yMin="0" xMax="455" yMax="619">
      <contour>
        <pt x="45" y="619" on="1"/>
        <pt x="120" y="619" on="1"/>
        <pt x="120" y="70" on="1"/>
        <pt x="213" y="70" on="1"/>
        <pt x="213" y="384" on="1"/>
        <pt x="288" y="384" on="1"/>
        <pt x="288" y="70" on="1"/>
        <pt x="380" y="70" on="1"/>
        <pt x="380" y="619" on="1"/>
        <pt x="455" y="619" on="1"/>
        <pt x="455" y="0" on="1"/>
        <pt x="45" y="0" on="1"/>
      </contour>
    </TTGlyph>
    <TTGlyph name="afii10043" xMin="45" yMin="-165" xMax="473" yMax="619">
      <contour>
        <pt x="45" y="619" on="1"/>
        <pt x="120" y="619" on="1"/>
        <pt x="120" y="70" on="1"/>
        <pt x="202" y="70" on="1"/>
        <pt x="202" y="384" on="1"/>
        <pt x="277" y="384" on="1"/>
        <pt x="277" y="70" on="1"/>
        <pt x="359" y="70" on="1"/>
        <pt x="359" y="619" on="1"/>
        <pt x="434" y="619" on="1"/>
        <pt x="434" y="70" on="1"/>
        <pt x="473" y="70" on="1"/>
        <pt x="473" y="-165" on="1"/>
        <pt x="395" y="-165" on="1"/>
        <pt x="395" y="0" on="1"/>
        <pt x="45" y="0" on="1"/>
      </contour>
    </TTGlyph>
    <TTGlyph name="afii10044" xMin="18" yMin="-7" xMax="460" yMax="619">
      <contour>
        <pt x="460" y="194" on="1"/>
        <pt x="460" y="138" on="0"/>
        <pt x="426" y="61" on="0"/>
        <pt x="368" y="14" on="0"/>
        <pt x="289" y="-7" on="0"/>
        <pt x="243" y="-7" on="1"/>
        <pt x="212" y="-7" on="0"/>
        <pt x="146" y="1" on="0"/>
        <pt x="112" y="9" on="1"/>
        <pt x="112" y="549" on="1"/>
        <pt x="18" y="549" on="1"/>
        <pt x="18" y="619" on="1"/>
        <pt x="194" y="619" on="1"/>
        <pt x="194" y="393" on="1"/>
        <pt x="219" y="396" on="0"/>
        <pt x="244" y="396" on="1"/>
        <pt x="292" y="396" on="0"/>
        <pt x="371" y="373" on="0"/>
        <pt x="428" y="325" on="0"/>
        <pt x="460" y="248" on="0"/>
      </contour>
      <contour>
        <pt x="376" y="194" on="1"/>
        <pt x="376" y="232" on="0"/>
        <pt x="356" y="283" on="0"/>
        <pt x="318" y="313" on="0"/>
        <pt x="266" y="326" on="0"/>
        <pt x="233" y="326" on="1"/>
        <pt x="224" y="326" on="0"/>
        <pt x="204" y="325" on="0"/>
        <pt x="194" y="324" on="1"/>
        <pt x="194" y="66" on="1"/>
        <pt x="207" y="64" on="0"/>
        <pt x="231" y="63" on="0"/>
        <pt x="243" y="63" on="1"/>
        <pt x="271" y="63" on="0"/>
        <pt x="320" y="76" on="0"/>
        <pt x="356" y="106" on="0"/>
        <pt x="376" y="156" on="0"/>
      </contour>
    </TTGlyph>
    <TTGlyph name="afii10045" xMin="36" yMin="-6" xMax="464" yMax="619">
      <contour>
        <pt x="327" y="194" on="1"/>
        <pt x="327" y="94" on="0"/>
        <pt x="236" y="-6" on="0"/>
        <pt x="153" y="-6" on="1"/>
        <pt x="127" y="-6" on="0"/>
        <pt x="62" y="1" on="0"/>
        <pt x="36" y="9" on="1"/>
        <pt x="36" y="619" on="1"/>
        <pt x="114" y="619" on="1"/>
        <pt x="114" y="392" on="1"/>
        <pt x="125" y="394" on="0"/>
        <pt x="145" y="396" on="0"/>
        <pt x="155" y="396" on="1"/>
        <pt x="237" y="396" on="0"/>
        <pt x="327" y="293" on="0"/>
      </contour>
      <contour>
        <pt x="246" y="194" on="1"/>
        <pt x="246" y="224" on="0"/>
        <pt x="236" y="272" on="0"/>
        <pt x="214" y="307" on="0"/>
        <pt x="176" y="326" on="0"/>
        <pt x="148" y="326" on="1"/>
        <pt x="140" y="326" on="0"/>
        <pt x="124" y="324" on="0"/>
        <pt x="114" y="322" on="1"/>
        <pt x="114" y="68" on="1"/>
        <pt x="126" y="65" on="0"/>
        <pt x="147" y="63" on="0"/>
        <pt x="157" y="63" on="1"/>
        <pt x="205" y="63" on="0"/>
        <pt x="246" y="128" on="0"/>
      </contour>
      <contour>
        <pt x="386" y="619" on="1"/>
        <pt x="464" y="619" on="1"/>
        <pt x="464" y="0" on="1"/>
        <pt x="386" y="0" on="1"/>
      </contour>
    </TTGlyph>
    <TTGlyph name="afii10046" xMin="45" yMin="-6" xMax="460" yMax="619">
      <contour>
        <pt x="460" y="194" on="1"/>
        <pt x="460" y="94" on="0"/>
        <pt x="329" y="-6" on="0"/>
        <pt x="201" y="-6" on="1"/>
        <pt x="164" y="-6" on="0"/>
        <pt x="82" y="0" on="0"/>
        <pt x="45" y="9" on="1"/>
        <pt x="45" y="619" on="1"/>
        <pt x="127" y="619" on="1"/>
        <pt x="127" y="394" on="1"/>
        <pt x="144" y="396" on="0"/>
        <pt x="178" y="396" on="0"/>
        <pt x="196" y="396" on="1"/>
        <pt x="332" y="396" on="0"/>
        <pt x="460" y="296" on="0"/>
      </contour>
      <contour>
        <pt x="376" y="194" on="1"/>
        <pt x="376" y="232" on="0"/>
        <pt x="349" y="283" on="0"/>
        <pt x="301" y="314" on="0"/>
        <pt x="233" y="327" on="0"/>
        <pt x="193" y="327" on="1"/>
        <pt x="176" y="327" on="0"/>
        <pt x="144" y="327" on="0"/>
        <pt x="127" y="325" on="1"/>
        <pt x="127" y="66" on="1"/>
        <pt x="142" y="64" on="0"/>
        <pt x="180" y="63" on="0"/>
        <pt x="208" y="63" on="1"/>
        <pt x="241" y="63" on="0"/>
        <pt x="302" y="76" on="0"/>
        <pt x="348" y="107" on="0"/>
        <pt x="376" y="157" on="0"/>
      </contour>
    </TTGlyph>
    <TTGlyph name="afii10047" xMin="46" yMin="-13" xMax="469" yMax="633">
      <contour>
        <pt x="212" y="633" on="1"/>
        <pt x="270" y="633" on="0"/>
        <pt x="365" y="592" on="0"/>
        <pt x="432" y="510" on="0"/>
        <pt x="469" y="389" on="0"/>
        <pt x="469" y="310" on="1"/>
        <pt x="469" y="230" on="0"/>
        <pt x="430" y="109" on="0"/>
        <pt x="361" y="28" on="0"/>
        <pt x="265" y="-13" on="0"/>
        <pt x="208" y="-13" on="1"/>
        <pt x="175" y="-13" on="0"/>
        <pt x="122" y="-4" on="0"/>
        <pt x="81" y="10" on="0"/>
        <pt x="53" y="23" on="0"/>
        <pt x="46" y="28" on="1"/>
        <pt x="67" y="94" on="1"/>
        <pt x="75" y="88" on="0"/>
        <pt x="104" y="76" on="0"/>
        <pt x="140" y="65" on="0"/>
        <pt x="180" y="58" on="0"/>
        <pt x="199" y="58" on="1"/>
        <pt x="284" y="58" on="0"/>
        <pt x="381" y="173" on="0"/>
        <pt x="388" y="281" on="1"/>
        <pt x="158" y="281" on="1"/>
        <pt x="158" y="351" on="1"/>
        <pt x="387" y="351" on="1"/>
        <pt x="383" y="398" on="0"/>
        <pt x="357" y="476" on="0"/>
        <pt x="312" y="531" on="0"/>
        <pt x="247" y="562" on="0"/>
        <pt x="204" y="562" on="1"/>
        <pt x="155" y="562" on="0"/>
        <pt x="85" y="538" on="0"/>
        <pt x="68" y="529" on="1"/>
        <pt x="47" y="593" on="1"/>
        <pt x="65" y="604" on="0"/>
        <pt x="150" y="633" on="0"/>
      </contour>
    </TTGlyph>
    <TTGlyph name="afii10048" xMin="45" yMin="-13" xMax="473" yMax="633">
      <contour>
        <pt x="123" y="358" on="1"/>
        <pt x="184" y="358" on="1"/>
        <pt x="189" y="504" on="0"/>
        <pt x="263" y="633" on="0"/>
        <pt x="326" y="633" on="1"/>
        <pt x="362" y="633" on="0"/>
        <pt x="416" y="597" on="0"/>
        <pt x="454" y="519" on="0"/>
        <pt x="473" y="396" on="0"/>
        <pt x="473" y="310" on="1"/>
        <pt x="473" y="223" on="0"/>
        <pt x="453" y="101" on="0"/>
        <pt x="415" y="23" on="0"/>
        <pt x="360" y="-13" on="0"/>
        <pt x="326" y="-13" on="1"/>
        <pt x="292" y="-13" on="0"/>
        <pt x="240" y="21" on="0"/>
        <pt x="204" y="93" on="0"/>
        <pt x="184" y="207" on="0"/>
        <pt x="183" y="288" on="1"/>
        <pt x="123" y="288" on="1"/>
        <pt x="123" y="0" on="1"/>
        <pt x="45" y="0" on="1"/>
        <pt x="45" y="619" on="1"/>
        <pt x="123" y="619" on="1"/>
      </contour>
      <contour>
        <pt x="262" y="310" on="1"/>
        <pt x="262" y="255" on="0"/>
        <pt x="270" y="162" on="0"/>
        <pt x="286" y="94" on="0"/>
        <pt x="311" y="56" on="0"/>
        <pt x="328" y="56" on="1"/>
        <pt x="345" y="56" on="0"/>
        <pt x="370" y="94" on="0"/>
        <pt x="387" y="162" on="0"/>
        <pt x="395" y="255" on="0"/>
        <pt x="395" y="310" on="1"/>
        <pt x="395" y="367" on="0"/>
        <pt x="387" y="461" on="0"/>
        <pt x="370" y="527" on="0"/>
        <pt x="345" y="563" on="0"/>
        <pt x="328" y="563" on="1"/>
        <pt x="311" y="563" on="0"/>
        <pt x="286" y="527" on="0"/>
        <pt x="270" y="461" on="0"/>
        <pt x="262" y="367" on="0"/>
      </contour>
    </TTGlyph>
    <TTGlyph name="afii10049" xMin="57" yMin="0" xMax="458" yMax="625">
      <contour>
        <pt x="57" y="0" on="1"/>
        <pt x="72" y="36" on="0"/>
        <pt x="108" y="110" on="0"/>
        <pt x="144" y="178" on="0"/>
        <pt x="179" y="238" on="0"/>
        <pt x="194" y="261" on="1"/>
        <pt x="142" y="286" on="0"/>
        <pt x="82" y="372" on="0"/>
        <pt x="82" y="430" on="1"/>
        <pt x="82" y="527" on="0"/>
        <pt x="196" y="625" on="0"/>
        <pt x="307" y="625" on="1"/>
        <pt x="323" y="625" on="0"/>
        <pt x="363" y="623" on="0"/>
        <pt x="404" y="620" on="0"/>
        <pt x="443" y="614" on="0"/>
        <pt x="458" y="610" on="1"/>
        <pt x="458" y="0" on="1"/>
        <pt x="376" y="0" on="1"/>
        <pt x="376" y="243" on="1"/>
        <pt x="305" y="243" on="1"/>
        <pt x="302" y="243" on="0"/>
        <pt x="282" y="243" on="0"/>
        <pt x="275" y="244" on="1"/>
        <pt x="261" y="223" on="0"/>
        <pt x="228" y="166" on="0"/>
        <pt x="194" y="101" on="0"/>
        <pt x="160" y="33" on="0"/>
        <pt x="145" y="0" on="1"/>
      </contour>
      <contour>
        <pt x="301" y="555" on="1"/>
        <pt x="274" y="555" on="0"/>
        <pt x="225" y="543" on="0"/>
        <pt x="188" y="514" on="0"/>
        <pt x="166" y="466" on="0"/>
        <pt x="166" y="430" on="1"/>
        <pt x="166" y="392" on="0"/>
        <pt x="188" y="346" on="0"/>
        <pt x="229" y="320" on="0"/>
        <pt x="287" y="311" on="0"/>
        <pt x="322" y="311" on="1"/>
        <pt x="376" y="311" on="1"/>
        <pt x="376" y="550" on="1"/>
        <pt x="366" y="552" on="0"/>
        <pt x="324" y="555" on="0"/>
      </contour>
    </TTGlyph>
    <TTGlyph name="afii10050" xMin="54" yMin="0" xMax="460" yMax="737">
      <contour>
        <pt x="143" y="70" on="1"/>
        <pt x="143" y="619" on="1"/>
        <pt x="381" y="619" on="1"/>
        <pt x="381" y="737" on="1"/>
        <pt x="460" y="737" on="1"/>
        <pt x="460" y="549" on="1"/>
        <pt x="225" y="549" on="1"/>
        <pt x="225" y="70" on="1"/>
        <pt x="359" y="70" on="1"/>
        <pt x="359" y="0" on="1"/>
        <pt x="54" y="0" on="1"/>
        <pt x="54" y="70" on="1"/>
      </contour>
    </TTGlyph>
    <TTGlyph name="afii10051" xMin="18" yMin="-2" xMax="460" yMax="619">
      <contour>
        <pt x="185" y="376" on="1"/>
        <pt x="230" y="389" on="0"/>
        <pt x="273" y="389" on="1"/>
        <pt x="361" y="389" on="0"/>
        <pt x="460" y="281" on="0"/>
        <pt x="460" y="188" on="1"/>
        <pt x="460" y="149" on="0"/>
        <pt x="439" y="80" on="0"/>
        <pt x="397" y="28" on="0"/>
        <pt x="334" y="-2" on="0"/>
        <pt x="291" y="-2" on="1"/>
        <pt x="278" y="-2" on="0"/>
        <pt x="251" y="-1" on="0"/>
        <pt x="240" y="1" on="1"/>
        <pt x="243" y="66" on="1"/>
        <pt x="248" y="65" on="0"/>
        <pt x="263" y="64" on="0"/>
        <pt x="276" y="64" on="1"/>
        <pt x="325" y="64" on="0"/>
        <pt x="376" y="134" on="0"/>
        <pt x="376" y="186" on="1"/>
        <pt x="376" y="224" on="0"/>
        <pt x="359" y="275" on="0"/>
        <pt x="329" y="307" on="0"/>
        <pt x="288" y="320" on="0"/>
        <pt x="264" y="320" on="1"/>
        <pt x="245" y="320" on="0"/>
        <pt x="206" y="313" on="0"/>
        <pt x="185" y="307" on="1"/>
        <pt x="185" y="0" on="1"/>
        <pt x="103" y="0" on="1"/>
        <pt x="103" y="549" on="1"/>
        <pt x="18" y="549" on="1"/>
        <pt x="18" y="619" on="1"/>
        <pt x="375" y="619" on="1"/>
        <pt x="375" y="549" on="1"/>
        <pt x="185" y="549" on="1"/>
      </contour>
    </TTGlyph>
    <TTGlyph name="afii10052" xMin="54" yMin="0" xMax="460" yMax="830">
      <component glyphName="afii10020" x="0" y="0" flags="0x204"/>
      <component glyphName="acute" x="71" y="137" flags="0x4"/>
    </TTGlyph>
    <TTGlyph name="afii10053" xMin="38" yMin="-13" xMax="460" yMax="633">
      <contour>
        <pt x="295" y="633" on="1"/>
        <pt x="356" y="633" on="0"/>
        <pt x="441" y="604" on="0"/>
        <pt x="459" y="593" on="1"/>
        <pt x="438" y="529" on="1"/>
        <pt x="421" y="538" on="0"/>
        <pt x="351" y="562" on="0"/>
        <pt x="302" y="562" on="1"/>
        <pt x="259" y="562" on="0"/>
        <pt x="194" y="531" on="0"/>
        <pt x="149" y="476" on="0"/>
        <pt x="124" y="398" on="0"/>
        <pt x="120" y="351" on="1"/>
        <pt x="348" y="351" on="1"/>
        <pt x="348" y="281" on="1"/>
        <pt x="119" y="281" on="1"/>
        <pt x="126" y="178" on="0"/>
        <pt x="222" y="58" on="0"/>
        <pt x="307" y="58" on="1"/>
        <pt x="326" y="58" on="0"/>
        <pt x="366" y="65" on="0"/>
        <pt x="402" y="76" on="0"/>
        <pt x="431" y="88" on="0"/>
        <pt x="439" y="94" on="1"/>
        <pt x="460" y="28" on="1"/>
        <pt x="453" y="23" on="0"/>
        <pt x="426" y="10" on="0"/>
        <pt x="385" y="-4" on="0"/>
        <pt x="331" y="-13" on="0"/>
        <pt x="298" y="-13" on="1"/>
        <pt x="241" y="-13" on="0"/>
        <pt x="145" y="30" on="0"/>
        <pt x="76" y="112" on="0"/>
        <pt x="38" y="232" on="0"/>
        <pt x="38" y="310" on="1"/>
        <pt x="38" y="388" on="0"/>
        <pt x="74" y="508" on="0"/>
        <pt x="142" y="590" on="0"/>
        <pt x="236" y="633" on="0"/>
      </contour>
    </TTGlyph>
    <TTGlyph name="afii10054" xMin="55" yMin="-13" xMax="446" yMax="633">
      <contour>
        <pt x="234" y="58" on="1"/>
        <pt x="297" y="58" on="0"/>
        <pt x="363" y="106" on="0"/>
        <pt x="363" y="154" on="1"/>
        <pt x="363" y="183" on="0"/>
        <pt x="339" y="224" on="0"/>
        <pt x="299" y="255" on="0"/>
        <pt x="249" y="278" on="0"/>
        <pt x="223" y="288" on="1"/>
        <pt x="193" y="300" on="0"/>
        <pt x="138" y="330" on="0"/>
        <pt x="95" y="370" on="0"/>
        <pt x="70" y="424" on="0"/>
        <pt x="70" y="461" on="1"/>
        <pt x="70" y="542" on="0"/>
        <pt x="172" y="633" on="0"/>
        <pt x="263" y="633" on="1"/>
        <pt x="288" y="633" on="0"/>
        <pt x="337" y="626" on="0"/>
        <pt x="379" y="616" on="0"/>
        <pt x="412" y="602" on="0"/>
        <pt x="422" y="595" on="1"/>
        <pt x="397" y="525" on="1"/>
        <pt x="377" y="537" on="0"/>
        <pt x="306" y="562" on="0"/>
        <pt x="263" y="562" on="1"/>
        <pt x="218" y="562" on="0"/>
        <pt x="152" y="517" on="0"/>
        <pt x="152" y="472" on="1"/>
        <pt x="152" y="446" on="0"/>
        <pt x="171" y="410" on="0"/>
        <pt x="204" y="383" on="0"/>
        <pt x="248" y="361" on="0"/>
        <pt x="274" y="350" on="1"/>
        <pt x="312" y="334" on="0"/>
        <pt x="375" y="302" on="0"/>
        <pt x="421" y="258" on="0"/>
        <pt x="446" y="198" on="0"/>
        <pt x="446" y="155" on="1"/>
        <pt x="446" y="74" on="0"/>
        <pt x="336" y="-13" on="0"/>
        <pt x="234" y="-13" on="1"/>
        <pt x="201" y="-13" on="0"/>
        <pt x="143" y="-4" on="0"/>
        <pt x="98" y="10" on="0"/>
        <pt x="64" y="24" on="0"/>
        <pt x="55" y="30" on="1"/>
        <pt x="79" y="100" on="1"/>
        <pt x="99" y="89" on="0"/>
        <pt x="178" y="58" on="0"/>
      </contour>
    </TTGlyph>
    <TTGlyph name="afii10055" xMin="90" yMin="0" xMax="411" yMax="619">
      <contour>
        <pt x="291" y="549" on="1"/>
        <pt x="291" y="70" on="1"/>
        <pt x="411" y="70" on="1"/>
        <pt x="411" y="0" on="1"/>
        <pt x="90" y="0" on="1"/>
        <pt x="90" y="70" on="1"/>
        <pt x="209" y="70" on="1"/>
        <pt x="209" y="549" on="1"/>
        <pt x="90" y="549" on="1"/>
        <pt x="90" y="619" on="1"/>
        <pt x="411" y="619" on="1"/>
        <pt x="411" y="549" on="1"/>
      </contour>
    </TTGlyph>
    <TTGlyph name="afii10056" xMin="90" yMin="0" xMax="411" yMax="794">
      <component glyphName="afii10055" x="0" y="0" flags="0x204"/>
      <component glyphName="dieresis" x="0" y="139" flags="0x4"/>
    </TTGlyph>
    <TTGlyph name="afii10057" xMin="54" yMin="-13" xMax="420" yMax="619">
      <contour>
        <pt x="127" y="549" on="1"/>
        <pt x="127" y="619" on="1"/>
        <pt x="420" y="619" on="1"/>
        <pt x="420" y="199" on="1"/>
        <pt x="420" y="155" on="0"/>
        <pt x="401" y="77" on="0"/>
        <pt x="354" y="20" on="0"/>
        <pt x="275" y="-13" on="0"/>
        <pt x="215" y="-13" on="1"/>
        <pt x="155" y="-13" on="0"/>
        <pt x="73" y="21" on="0"/>
        <pt x="54" y="37" on="1"/>
        <pt x="87" y="104" on="1"/>
        <pt x="106" y="90" on="0"/>
        <pt x="169" y="58" on="0"/>
        <pt x="211" y="58" on="1"/>
        <pt x="275" y="58" on="0"/>
        <pt x="338" y="126" on="0"/>
        <pt x="338" y="207" on="1"/>
        <pt x="338" y="549" on="1"/>
      </contour>
    </TTGlyph>
    <TTGlyph name="afii10058" xMin="9" yMin="-9" xMax="478" yMax="619">
      <contour>
        <pt x="337" y="396" on="1"/>
        <pt x="406" y="396" on="0"/>
        <pt x="478" y="296" on="0"/>
        <pt x="478" y="199" on="1"/>
        <pt x="478" y="104" on="0"/>
        <pt x="405" y="-7" on="0"/>
        <pt x="328" y="-7" on="1"/>
        <pt x="305" y="-7" on="0"/>
        <pt x="257" y="1" on="0"/>
        <pt x="231" y="9" on="1"/>
        <pt x="231" y="549" on="1"/>
        <pt x="163" y="549" on="1"/>
        <pt x="163" y="389" on="0"/>
        <pt x="158" y="185" on="0"/>
        <pt x="131" y="63" on="0"/>
        <pt x="72" y="5" on="0"/>
        <pt x="18" y="-9" on="1"/>
        <pt x="9" y="64" on="1"/>
        <pt x="29" y="70" on="0"/>
        <pt x="56" y="94" on="0"/>
        <pt x="74" y="141" on="0"/>
        <pt x="84" y="217" on="0"/>
        <pt x="88" y="336" on="0"/>
        <pt x="89" y="504" on="0"/>
        <pt x="89" y="619" on="1"/>
        <pt x="305" y="619" on="1"/>
        <pt x="305" y="394" on="1"/>
        <pt x="313" y="395" on="0"/>
        <pt x="329" y="396" on="0"/>
      </contour>
      <contour>
        <pt x="335" y="63" on="1"/>
        <pt x="370" y="63" on="0"/>
        <pt x="401" y="123" on="0"/>
        <pt x="401" y="199" on="1"/>
        <pt x="401" y="262" on="0"/>
        <pt x="364" y="326" on="0"/>
        <pt x="330" y="326" on="1"/>
        <pt x="317" y="326" on="0"/>
        <pt x="305" y="323" on="1"/>
        <pt x="305" y="68" on="1"/>
        <pt x="313" y="65" on="0"/>
        <pt x="329" y="63" on="0"/>
      </contour>
    </TTGlyph>
    <TTGlyph name="afii10059" xMin="45" yMin="-7" xMax="478" yMax="619">
      <contour>
        <pt x="337" y="391" on="1"/>
        <pt x="406" y="391" on="0"/>
        <pt x="478" y="296" on="0"/>
        <pt x="478" y="199" on="1"/>
        <pt x="478" y="104" on="0"/>
        <pt x="405" y="-7" on="0"/>
        <pt x="328" y="-7" on="1"/>
        <pt x="305" y="-7" on="0"/>
        <pt x="257" y="1" on="0"/>
        <pt x="231" y="9" on="1"/>
        <pt x="231" y="309" on="1"/>
        <pt x="118" y="309" on="1"/>
        <pt x="118" y="0" on="1"/>
        <pt x="45" y="0" on="1"/>
        <pt x="45" y="619" on="1"/>
        <pt x="118" y="619" on="1"/>
        <pt x="118" y="379" on="1"/>
        <pt x="231" y="379" on="1"/>
        <pt x="231" y="619" on="1"/>
        <pt x="305" y="619" on="1"/>
        <pt x="305" y="389" on="1"/>
        <pt x="313" y="390" on="0"/>
        <pt x="329" y="391" on="0"/>
      </contour>
      <contour>
        <pt x="335" y="63" on="1"/>
        <pt x="370" y="63" on="0"/>
        <pt x="401" y="123" on="0"/>
        <pt x="401" y="199" on="1"/>
        <pt x="401" y="262" on="0"/>
        <pt x="364" y="321" on="0"/>
        <pt x="330" y="321" on="1"/>
        <pt x="324" y="321" on="0"/>
        <pt x="311" y="321" on="0"/>
        <pt x="305" y="319" on="1"/>
        <pt x="305" y="68" on="1"/>
        <pt x="313" y="65" on="0"/>
        <pt x="329" y="63" on="0"/>
      </contour>
    </TTGlyph>
    <TTGlyph name="afii10060" xMin="18" yMin="0" xMax="447" yMax="619">
      <contour>
        <pt x="364" y="167" on="1"/>
        <pt x="364" y="250" on="0"/>
        <pt x="324" y="320" on="0"/>
        <pt x="273" y="320" on="1"/>
        <pt x="247" y="320" on="0"/>
        <pt x="196" y="310" on="0"/>
        <pt x="185" y="306" on="1"/>
        <pt x="185" y="0" on="1"/>
        <pt x="103" y="0" on="1"/>
        <pt x="103" y="549" on="1"/>
        <pt x="18" y="549" on="1"/>
        <pt x="18" y="619" on="1"/>
        <pt x="375" y="619" on="1"/>
        <pt x="375" y="549" on="1"/>
        <pt x="185" y="549" on="1"/>
        <pt x="185" y="375" on="1"/>
        <pt x="199" y="380" on="0"/>
        <pt x="255" y="389" on="0"/>
        <pt x="284" y="389" on="1"/>
        <pt x="332" y="389" on="0"/>
        <pt x="395" y="361" on="0"/>
        <pt x="432" y="305" on="0"/>
        <pt x="447" y="222" on="0"/>
        <pt x="447" y="167" on="1"/>
        <pt x="447" y="0" on="1"/>
        <pt x="364" y="0" on="1"/>
      </contour>
    </TTGlyph>
    <TTGlyph name="afii10061" xMin="64" yMin="0" xMax="491" yMax="830">
      <component glyphName="K" x="0" y="0" flags="0x204"/>
      <component glyphName="acute" x="-1" y="137" flags="0x4"/>
    </TTGlyph>
    <TTGlyph name="afii10062" xMin="9" yMin="-8" xMax="494" yMax="803">
      <component glyphName="afii10037" x="0" y="0" flags="0x204"/>
      <component glyphName="kratka" x="0" y="139" flags="0x4"/>
    </TTGlyph>
    <TTGlyph name="afii10065" xMin="58" yMin="-11" xMax="432" yMax="475">
      <component glyphName="a" x="0" y="0" flags="0x204"/>
    </TTGlyph>
    <TTGlyph name="afii10066" xMin="45" yMin="-12" xMax="460" yMax="693">
      <contour>
        <pt x="134" y="411" on="1"/>
        <pt x="160" y="433" on="0"/>
        <pt x="228" y="457" on="0"/>
        <pt x="261" y="457" on="1"/>
        <pt x="360" y="457" on="0"/>
        <pt x="460" y="335" on="0"/>
        <pt x="460" y="226" on="1"/>
        <pt x="460" y="179" on="0"/>
        <pt x="435" y="93" on="0"/>
        <pt x="384" y="27" on="0"/>
        <pt x="304" y="-12" on="0"/>
        <pt x="250" y="-12" on="1"/>
        <pt x="188" y="-12" on="0"/>
        <pt x="109" y="35" on="0"/>
        <pt x="63" y="115" on="0"/>
        <pt x="45" y="222" on="0"/>
        <pt x="45" y="282" on="1"/>
        <pt x="45" y="360" on="0"/>
        <pt x="66" y="493" on="0"/>
        <pt x="124" y="595" on="0"/>
        <pt x="225" y="662" on="0"/>
        <pt x="305" y="674" on="1"/>
        <pt x="330" y="678" on="0"/>
        <pt x="365" y="683" on="0"/>
        <pt x="393" y="687" on="0"/>
        <pt x="415" y="690" on="0"/>
        <pt x="427" y="693" on="1"/>
        <pt x="436" y="621" on="1"/>
        <pt x="430" y="619" on="0"/>
        <pt x="416" y="616" on="0"/>
        <pt x="392" y="613" on="0"/>
        <pt x="353" y="608" on="0"/>
        <pt x="322" y="605" on="1"/>
        <pt x="236" y="594" on="0"/>
        <pt x="144" y="505" on="0"/>
      </contour>
      <contour>
        <pt x="129" y="269" on="1"/>
        <pt x="129" y="227" on="0"/>
        <pt x="139" y="151" on="0"/>
        <pt x="166" y="92" on="0"/>
        <pt x="213" y="58" on="0"/>
        <pt x="250" y="58" on="1"/>
        <pt x="283" y="58" on="0"/>
        <pt x="331" y="85" on="0"/>
        <pt x="361" y="131" on="0"/>
        <pt x="376" y="192" on="0"/>
        <pt x="376" y="226" on="1"/>
        <pt x="376" y="256" on="0"/>
        <pt x="364" y="315" on="0"/>
        <pt x="334" y="360" on="0"/>
        <pt x="284" y="388" on="0"/>
        <pt x="246" y="388" on="1"/>
        <pt x="210" y="388" on="0"/>
        <pt x="147" y="353" on="0"/>
        <pt x="129" y="330" on="1"/>
      </contour>
    </TTGlyph>
    <TTGlyph name="afii10066.locl" xMin="39" yMin="-12" xMax="460" yMax="693">
      <contour>
        <pt x="255" y="408" on="1"/>
        <pt x="191" y="390" on="0"/>
        <pt x="123" y="293" on="0"/>
        <pt x="123" y="226" on="1"/>
        <pt x="123" y="193" on="0"/>
        <pt x="137" y="133" on="0"/>
        <pt x="167" y="87" on="0"/>
        <pt x="215" y="60" on="0"/>
        <pt x="250" y="60" on="1"/>
        <pt x="282" y="60" on="0"/>
        <pt x="330" y="85" on="0"/>
        <pt x="361" y="129" on="0"/>
        <pt x="376" y="188" on="0"/>
        <pt x="376" y="221" on="1"/>
        <pt x="376" y="262" on="0"/>
        <pt x="354" y="321" on="0"/>
        <pt x="319" y="365" on="0"/>
        <pt x="276" y="396" on="0"/>
      </contour>
      <contour>
        <pt x="190" y="450" on="1"/>
        <pt x="156" y="474" on="0"/>
        <pt x="114" y="534" on="0"/>
        <pt x="114" y="568" on="1"/>
        <pt x="114" y="631" on="0"/>
        <pt x="204" y="689" on="0"/>
        <pt x="282" y="689" on="1"/>
        <pt x="306" y="689" on="0"/>
        <pt x="341" y="689" on="0"/>
        <pt x="368" y="690" on="0"/>
        <pt x="392" y="691" on="0"/>
        <pt x="406" y="693" on="1"/>
        <pt x="411" y="622" on="1"/>
        <pt x="397" y="620" on="0"/>
        <pt x="330" y="619" on="0"/>
        <pt x="286" y="619" on="1"/>
        <pt x="274" y="619" on="0"/>
        <pt x="243" y="618" on="0"/>
        <pt x="214" y="609" on="0"/>
        <pt x="195" y="591" on="0"/>
        <pt x="195" y="573" on="1"/>
        <pt x="195" y="559" on="0"/>
        <pt x="207" y="539" on="0"/>
        <pt x="230" y="519" on="0"/>
        <pt x="262" y="498" on="0"/>
        <pt x="282" y="484" on="1"/>
        <pt x="318" y="460" on="0"/>
        <pt x="382" y="411" on="0"/>
        <pt x="431" y="350" on="0"/>
        <pt x="460" y="271" on="0"/>
        <pt x="460" y="217" on="1"/>
        <pt x="460" y="175" on="0"/>
        <pt x="437" y="93" on="0"/>
        <pt x="387" y="28" on="0"/>
        <pt x="307" y="-12" on="0"/>
        <pt x="249" y="-12" on="1"/>
        <pt x="195" y="-12" on="0"/>
        <pt x="115" y="26" on="0"/>
        <pt x="64" y="90" on="0"/>
        <pt x="39" y="176" on="0"/>
        <pt x="39" y="224" on="1"/>
        <pt x="39" y="308" on="0"/>
        <pt x="122" y="423" on="0"/>
      </contour>
    </TTGlyph>
    <TTGlyph name="afii10067" xMin="71" yMin="-8" xMax="451" yMax="476">
      <contour>
        <pt x="152" y="63" on="1"/>
        <pt x="162" y="61" on="0"/>
        <pt x="214" y="58" on="0"/>
        <pt x="240" y="58" on="1"/>
        <pt x="266" y="58" on="0"/>
        <pt x="313" y="65" on="0"/>
        <pt x="348" y="83" on="0"/>
        <pt x="369" y="113" on="0"/>
        <pt x="369" y="136" on="1"/>
        <pt x="369" y="158" on="0"/>
        <pt x="350" y="188" on="0"/>
        <pt x="318" y="206" on="0"/>
        <pt x="274" y="213" on="0"/>
        <pt x="249" y="213" on="1"/>
        <pt x="152" y="213" on="1"/>
      </contour>
      <contour>
        <pt x="238" y="274" on="1"/>
        <pt x="286" y="274" on="0"/>
        <pt x="349" y="303" on="0"/>
        <pt x="349" y="344" on="1"/>
        <pt x="349" y="365" on="0"/>
        <pt x="328" y="390" on="0"/>
        <pt x="293" y="404" on="0"/>
        <pt x="249" y="408" on="0"/>
        <pt x="227" y="408" on="1"/>
        <pt x="206" y="408" on="0"/>
        <pt x="166" y="406" on="0"/>
        <pt x="152" y="405" on="1"/>
        <pt x="152" y="274" on="1"/>
      </contour>
      <contour>
        <pt x="237" y="-8" on="1"/>
        <pt x="183" y="-8" on="0"/>
        <pt x="97" y="2" on="0"/>
        <pt x="71" y="8" on="1"/>
        <pt x="71" y="460" on="1"/>
        <pt x="97" y="466" on="0"/>
        <pt x="183" y="476" on="0"/>
        <pt x="237" y="476" on="1"/>
        <pt x="273" y="476" on="0"/>
        <pt x="343" y="464" on="0"/>
        <pt x="397" y="434" on="0"/>
        <pt x="430" y="384" on="0"/>
        <pt x="430" y="346" on="1"/>
        <pt x="430" y="311" on="0"/>
        <pt x="396" y="264" on="0"/>
        <pt x="367" y="250" on="1"/>
        <pt x="405" y="236" on="0"/>
        <pt x="451" y="185" on="0"/>
        <pt x="451" y="137" on="1"/>
        <pt x="451" y="95" on="0"/>
        <pt x="418" y="39" on="0"/>
        <pt x="360" y="6" on="0"/>
        <pt x="282" y="-8" on="0"/>
      </contour>
    </TTGlyph>
    <TTGlyph name="afii10068" xMin="107" yMin="0" xMax="440" yMax="464">
      <contour>
        <pt x="107" y="0" on="1"/>
        <pt x="107" y="464" on="1"/>
        <pt x="440" y="464" on="1"/>
        <pt x="440" y="395" on="1"/>
        <pt x="189" y="395" on="1"/>
        <pt x="189" y="0" on="1"/>
      </contour>
    </TTGlyph>
    <TTGlyph name="afii10069" xMin="27" yMin="-129" xMax="464" yMax="464">
      <contour>
        <pt x="27" y="70" on="1"/>
        <pt x="63" y="70" on="1"/>
        <pt x="93" y="113" on="0"/>
        <pt x="127" y="203" on="0"/>
        <pt x="144" y="300" on="0"/>
        <pt x="150" y="405" on="0"/>
        <pt x="151" y="464" on="1"/>
        <pt x="425" y="464" on="1"/>
        <pt x="425" y="70" on="1"/>
        <pt x="464" y="70" on="1"/>
        <pt x="464" y="-129" on="1"/>
        <pt x="386" y="-129" on="1"/>
        <pt x="386" y="0" on="1"/>
        <pt x="105" y="0" on="1"/>
        <pt x="105" y="-129" on="1"/>
        <pt x="27" y="-129" on="1"/>
      </contour>
      <contour>
        <pt x="343" y="70" on="1"/>
        <pt x="343" y="395" on="1"/>
        <pt x="230" y="395" on="1"/>
        <pt x="230" y="355" on="0"/>
        <pt x="222" y="266" on="0"/>
        <pt x="203" y="180" on="0"/>
        <pt x="171" y="101" on="0"/>
        <pt x="148" y="70" on="1"/>
      </contour>
    </TTGlyph>
    <TTGlyph name="afii10070" xMin="40" yMin="-11" xMax="455" yMax="475">
      <component glyphName="e" x="0" y="0" flags="0x204"/>
    </TTGlyph>
    <TTGlyph name="afii10071" xMin="40" yMin="-11" xMax="455" yMax="655">
      <component glyphName="e" x="0" y="0" flags="0x204"/>
      <component glyphName="dieresis" x="13" y="0" flags="0x4"/>
    </TTGlyph>
    <TTGlyph name="afii10072" xMin="7" yMin="0" xMax="491" yMax="464">
      <contour>
        <pt x="286" y="269" on="1"/>
        <pt x="298" y="290" on="0"/>
        <pt x="326" y="341" on="0"/>
        <pt x="353" y="393" on="0"/>
        <pt x="379" y="443" on="0"/>
        <pt x="389" y="464" on="1"/>
        <pt x="472" y="464" on="1"/>
        <pt x="456" y="438" on="0"/>
        <pt x="421" y="381" on="0"/>
        <pt x="385" y="323" on="0"/>
        <pt x="349" y="268" on="0"/>
        <pt x="333" y="246" on="1"/>
        <pt x="354" y="226" on="0"/>
        <pt x="398" y="167" on="0"/>
        <pt x="440" y="101" on="0"/>
        <pt x="477" y="31" on="0"/>
        <pt x="491" y="0" on="1"/>
        <pt x="409" y="0" on="1"/>
        <pt x="399" y="26" on="0"/>
        <pt x="369" y="84" on="0"/>
        <pt x="336" y="141" on="0"/>
        <pt x="301" y="193" on="0"/>
        <pt x="286" y="213" on="1"/>
        <pt x="286" y="0" on="1"/>
        <pt x="213" y="0" on="1"/>
        <pt x="213" y="214" on="1"/>
        <pt x="197" y="194" on="0"/>
        <pt x="162" y="142" on="0"/>
        <pt x="129" y="85" on="0"/>
        <pt x="99" y="26" on="0"/>
        <pt x="89" y="0" on="1"/>
        <pt x="7" y="0" on="1"/>
        <pt x="21" y="31" on="0"/>
        <pt x="59" y="101" on="0"/>
        <pt x="101" y="167" on="0"/>
        <pt x="144" y="226" on="0"/>
        <pt x="165" y="246" on="1"/>
        <pt x="149" y="268" on="0"/>
        <pt x="113" y="323" on="0"/>
        <pt x="77" y="381" on="0"/>
        <pt x="42" y="439" on="0"/>
        <pt x="27" y="464" on="1"/>
        <pt x="109" y="464" on="1"/>
        <pt x="119" y="443" on="0"/>
        <pt x="145" y="392" on="0"/>
        <pt x="173" y="339" on="0"/>
        <pt x="201" y="288" on="0"/>
        <pt x="213" y="267" on="1"/>
        <pt x="213" y="464" on="1"/>
        <pt x="286" y="464" on="1"/>
      </contour>
    </TTGlyph>
    <TTGlyph name="afii10073" xMin="72" yMin="-11" xMax="447" yMax="476">
      <contour>
        <pt x="86" y="452" on="1"/>
        <pt x="119" y="463" on="0"/>
        <pt x="198" y="476" on="0"/>
        <pt x="237" y="476" on="1"/>
        <pt x="275" y="476" on="0"/>
        <pt x="345" y="463" on="0"/>
        <pt x="399" y="431" on="0"/>
        <pt x="431" y="380" on="0"/>
        <pt x="431" y="342" on="1"/>
        <pt x="431" y="324" on="0"/>
        <pt x="417" y="292" on="0"/>
        <pt x="395" y="266" on="0"/>
        <pt x="370" y="248" on="0"/>
        <pt x="358" y="244" on="1"/>
        <pt x="396" y="230" on="0"/>
        <pt x="447" y="177" on="0"/>
        <pt x="447" y="129" on="1"/>
        <pt x="447" y="62" on="0"/>
        <pt x="334" y="-11" on="0"/>
        <pt x="237" y="-11" on="1"/>
        <pt x="177" y="-11" on="0"/>
        <pt x="90" y="7" on="0"/>
        <pt x="72" y="15" on="1"/>
        <pt x="89" y="85" on="1"/>
        <pt x="104" y="80" on="0"/>
        <pt x="182" y="61" on="0"/>
        <pt x="237" y="61" on="1"/>
        <pt x="303" y="61" on="0"/>
        <pt x="363" y="99" on="0"/>
        <pt x="363" y="131" on="1"/>
        <pt x="363" y="167" on="0"/>
        <pt x="303" y="209" on="0"/>
        <pt x="252" y="209" on="1"/>
        <pt x="154" y="209" on="1"/>
        <pt x="154" y="275" on="1"/>
        <pt x="246" y="275" on="1"/>
        <pt x="297" y="275" on="0"/>
        <pt x="347" y="309" on="0"/>
        <pt x="347" y="338" on="1"/>
        <pt x="347" y="369" on="0"/>
        <pt x="291" y="405" on="0"/>
        <pt x="231" y="405" on="1"/>
        <pt x="203" y="405" on="0"/>
        <pt x="130" y="391" on="0"/>
        <pt x="104" y="379" on="1"/>
      </contour>
    </TTGlyph>
    <TTGlyph name="afii10074" xMin="63" yMin="0" xMax="438" yMax="464">
      <contour>
        <pt x="438" y="464" on="1"/>
        <pt x="438" y="0" on="1"/>
        <pt x="357" y="0" on="1"/>
        <pt x="357" y="354" on="1"/>
        <pt x="330" y="320" on="0"/>
        <pt x="271" y="228" on="0"/>
        <pt x="212" y="131" on="0"/>
        <pt x="158" y="37" on="0"/>
        <pt x="137" y="0" on="1"/>
        <pt x="63" y="0" on="1"/>
        <pt x="63" y="464" on="1"/>
        <pt x="143" y="464" on="1"/>
        <pt x="143" y="130" on="1"/>
        <pt x="166" y="169" on="0"/>
        <pt x="220" y="260" on="0"/>
        <pt x="278" y="351" on="0"/>
        <pt x="336" y="434" on="0"/>
        <pt x="364" y="464" on="1"/>
      </contour>
    </TTGlyph>
    <TTGlyph name="afii10075" xMin="63" yMin="0" xMax="438" yMax="664">
      <component glyphName="afii10074" x="0" y="0" flags="0x204"/>
      <component glyphName="kratka" x="12" y="0" flags="0x4"/>
    </TTGlyph>
    <TTGlyph name="afii10076" xMin="71" yMin="0" xMax="478" yMax="464">
      <component glyphName="kgreenlandic" x="0" y="0" flags="0x204"/>
    </TTGlyph>
    <TTGlyph name="afii10077" xMin="13" yMin="-9" xMax="429" yMax="464">
      <contour>
        <pt x="235" y="395" on="1"/>
        <pt x="235" y="365" on="0"/>
        <pt x="232" y="298" on="0"/>
        <pt x="225" y="231" on="0"/>
        <pt x="213" y="166" on="0"/>
        <pt x="203" y="138" on="1"/>
        <pt x="183" y="81" on="0"/>
        <pt x="101" y="-1" on="0"/>
        <pt x="25" y="-9" on="1"/>
        <pt x="13" y="61" on="1"/>
        <pt x="57" y="69" on="0"/>
        <pt x="108" y="118" on="0"/>
        <pt x="123" y="153" on="1"/>
        <pt x="136" y="183" on="0"/>
        <pt x="149" y="259" on="0"/>
        <pt x="155" y="343" on="0"/>
        <pt x="155" y="427" on="0"/>
        <pt x="155" y="464" on="1"/>
        <pt x="429" y="464" on="1"/>
        <pt x="429" y="0" on="1"/>
        <pt x="346" y="0" on="1"/>
        <pt x="346" y="395" on="1"/>
      </contour>
    </TTGlyph>
    <TTGlyph name="afii10078" xMin="27" yMin="0" xMax="473" yMax="464">
      <contour>
        <pt x="119" y="342" on="1"/>
        <pt x="111" y="251" on="0"/>
        <pt x="110" y="78" on="0"/>
        <pt x="107" y="0" on="1"/>
        <pt x="27" y="0" on="1"/>
        <pt x="28" y="55" on="0"/>
        <pt x="35" y="173" on="0"/>
        <pt x="44" y="293" on="0"/>
        <pt x="55" y="411" on="0"/>
        <pt x="61" y="464" on="1"/>
        <pt x="138" y="464" on="1"/>
        <pt x="157" y="416" on="0"/>
        <pt x="209" y="272" on="0"/>
        <pt x="249" y="172" on="1"/>
        <pt x="290" y="272" on="0"/>
        <pt x="343" y="416" on="0"/>
        <pt x="363" y="464" on="1"/>
        <pt x="439" y="464" on="1"/>
        <pt x="445" y="411" on="0"/>
        <pt x="456" y="293" on="0"/>
        <pt x="465" y="173" on="0"/>
        <pt x="471" y="55" on="0"/>
        <pt x="473" y="0" on="1"/>
        <pt x="393" y="0" on="1"/>
        <pt x="390" y="78" on="0"/>
        <pt x="387" y="258" on="0"/>
        <pt x="380" y="342" on="1"/>
        <pt x="367" y="311" on="0"/>
        <pt x="346" y="258" on="0"/>
        <pt x="327" y="202" on="0"/>
        <pt x="305" y="139" on="0"/>
        <pt x="290" y="97" on="1"/>
        <pt x="208" y="97" on="1"/>
        <pt x="194" y="139" on="0"/>
        <pt x="172" y="202" on="0"/>
        <pt x="153" y="258" on="0"/>
        <pt x="132" y="311" on="0"/>
      </contour>
    </TTGlyph>
    <TTGlyph name="afii10079" xMin="71" yMin="0" xMax="429" yMax="464">
      <contour>
        <pt x="429" y="0" on="1"/>
        <pt x="346" y="0" on="1"/>
        <pt x="346" y="205" on="1"/>
        <pt x="154" y="205" on="1"/>
        <pt x="154" y="0" on="1"/>
        <pt x="71" y="0" on="1"/>
        <pt x="71" y="464" on="1"/>
        <pt x="154" y="464" on="1"/>
        <pt x="154" y="275" on="1"/>
        <pt x="346" y="275" on="1"/>
        <pt x="346" y="464" on="1"/>
        <pt x="429" y="464" on="1"/>
      </contour>
    </TTGlyph>
    <TTGlyph name="afii10080" xMin="40" yMin="-11" xMax="460" yMax="475">
      <component glyphName="o" x="0" y="0" flags="0x204"/>
    </TTGlyph>
    <TTGlyph name="afii10081" xMin="71" yMin="0" xMax="429" yMax="464">
      <contour>
        <pt x="429" y="0" on="1"/>
        <pt x="346" y="0" on="1"/>
        <pt x="346" y="395" on="1"/>
        <pt x="154" y="395" on="1"/>
        <pt x="154" y="0" on="1"/>
        <pt x="71" y="0" on="1"/>
        <pt x="71" y="464" on="1"/>
        <pt x="429" y="464" on="1"/>
      </contour>
    </TTGlyph>
    <TTGlyph name="afii10082" xMin="71" yMin="-165" xMax="460" yMax="474">
      <component glyphName="p" x="0" y="0" flags="0x204"/>
    </TTGlyph>
    <TTGlyph name="afii10083" xMin="49" yMin="-11" xMax="451" yMax="475">
      <component glyphName="c" x="0" y="0" flags="0x204"/>
    </TTGlyph>
    <TTGlyph name="afii10084" xMin="58" yMin="0" xMax="442" yMax="464">
      <contour>
        <pt x="442" y="464" on="1"/>
        <pt x="442" y="395" on="1"/>
        <pt x="291" y="395" on="1"/>
        <pt x="291" y="0" on="1"/>
        <pt x="209" y="0" on="1"/>
        <pt x="209" y="395" on="1"/>
        <pt x="58" y="395" on="1"/>
        <pt x="58" y="464" on="1"/>
      </contour>
    </TTGlyph>
    <TTGlyph name="afii10085" xMin="36" yMin="-168" xMax="461" yMax="464">
      <component glyphName="y" x="0" y="0" flags="0x204"/>
    </TTGlyph>
    <TTGlyph name="afii10086" xMin="26" yMin="-165" xMax="474" yMax="693">
      <contour>
        <pt x="108" y="232" on="1"/>
        <pt x="108" y="154" on="0"/>
        <pt x="169" y="69" on="0"/>
        <pt x="213" y="67" on="1"/>
        <pt x="213" y="397" on="1"/>
        <pt x="169" y="395" on="0"/>
        <pt x="108" y="310" on="0"/>
      </contour>
      <contour>
        <pt x="286" y="67" on="1"/>
        <pt x="330" y="69" on="0"/>
        <pt x="392" y="154" on="0"/>
        <pt x="392" y="232" on="1"/>
        <pt x="392" y="310" on="0"/>
        <pt x="330" y="395" on="0"/>
        <pt x="286" y="397" on="1"/>
      </contour>
      <contour>
        <pt x="286" y="-165" on="1"/>
        <pt x="213" y="-165" on="1"/>
        <pt x="213" y="-3" on="1"/>
        <pt x="175" y="-2" on="0"/>
        <pt x="108" y="30" on="0"/>
        <pt x="56" y="90" on="0"/>
        <pt x="26" y="177" on="0"/>
        <pt x="26" y="232" on="1"/>
        <pt x="26" y="287" on="0"/>
        <pt x="56" y="374" on="0"/>
        <pt x="108" y="434" on="0"/>
        <pt x="175" y="466" on="0"/>
        <pt x="213" y="467" on="1"/>
        <pt x="213" y="679" on="1"/>
        <pt x="286" y="693" on="1"/>
        <pt x="286" y="467" on="1"/>
        <pt x="324" y="466" on="0"/>
        <pt x="392" y="434" on="0"/>
        <pt x="444" y="374" on="0"/>
        <pt x="474" y="287" on="0"/>
        <pt x="474" y="232" on="1"/>
        <pt x="474" y="177" on="0"/>
        <pt x="444" y="90" on="0"/>
        <pt x="392" y="30" on="0"/>
        <pt x="324" y="-2" on="0"/>
        <pt x="286" y="-3" on="1"/>
      </contour>
    </TTGlyph>
    <TTGlyph name="afii10087" xMin="29" yMin="0" xMax="472" yMax="464">
      <component glyphName="x" x="0" y="0" flags="0x204"/>
    </TTGlyph>
    <TTGlyph name="afii10088" xMin="71" yMin="-129" xMax="464" yMax="464">
      <contour>
        <pt x="425" y="70" on="1"/>
        <pt x="464" y="70" on="1"/>
        <pt x="464" y="-129" on="1"/>
        <pt x="386" y="-129" on="1"/>
        <pt x="386" y="0" on="1"/>
        <pt x="71" y="0" on="1"/>
        <pt x="71" y="464" on="1"/>
        <pt x="154" y="464" on="1"/>
        <pt x="154" y="70" on="1"/>
        <pt x="343" y="70" on="1"/>
        <pt x="343" y="464" on="1"/>
        <pt x="425" y="464" on="1"/>
      </contour>
    </TTGlyph>
    <TTGlyph name="afii10089" xMin="54" yMin="0" xMax="429" yMax="464">
      <contour>
        <pt x="136" y="464" on="1"/>
        <pt x="136" y="328" on="1"/>
        <pt x="136" y="275" on="0"/>
        <pt x="193" y="233" on="0"/>
        <pt x="243" y="233" on="1"/>
        <pt x="279" y="233" on="0"/>
        <pt x="327" y="240" on="0"/>
        <pt x="346" y="245" on="1"/>
        <pt x="346" y="464" on="1"/>
        <pt x="429" y="464" on="1"/>
        <pt x="429" y="0" on="1"/>
        <pt x="346" y="0" on="1"/>
        <pt x="346" y="179" on="1"/>
        <pt x="339" y="177" on="0"/>
        <pt x="314" y="172" on="0"/>
        <pt x="283" y="167" on="0"/>
        <pt x="249" y="163" on="0"/>
        <pt x="233" y="163" on="1"/>
        <pt x="193" y="163" on="0"/>
        <pt x="127" y="180" on="0"/>
        <pt x="80" y="218" on="0"/>
        <pt x="54" y="281" on="0"/>
        <pt x="54" y="327" on="1"/>
        <pt x="54" y="464" on="1"/>
      </contour>
    </TTGlyph>
    <TTGlyph name="afii10090" xMin="45" yMin="0" xMax="455" yMax="464">
      <contour>
        <pt x="45" y="0" on="1"/>
        <pt x="45" y="464" on="1"/>
        <pt x="120" y="464" on="1"/>
        <pt x="120" y="70" on="1"/>
        <pt x="213" y="70" on="1"/>
        <pt x="213" y="357" on="1"/>
        <pt x="288" y="357" on="1"/>
        <pt x="288" y="70" on="1"/>
        <pt x="380" y="70" on="1"/>
        <pt x="380" y="464" on="1"/>
        <pt x="455" y="464" on="1"/>
        <pt x="455" y="0" on="1"/>
      </contour>
    </TTGlyph>
    <TTGlyph name="afii10091" xMin="45" yMin="-129" xMax="464" yMax="464">
      <contour>
        <pt x="350" y="464" on="1"/>
        <pt x="425" y="464" on="1"/>
        <pt x="425" y="70" on="1"/>
        <pt x="464" y="70" on="1"/>
        <pt x="464" y="-129" on="1"/>
        <pt x="386" y="-129" on="1"/>
        <pt x="386" y="0" on="1"/>
        <pt x="45" y="0" on="1"/>
        <pt x="45" y="464" on="1"/>
        <pt x="120" y="464" on="1"/>
        <pt x="120" y="70" on="1"/>
        <pt x="197" y="70" on="1"/>
        <pt x="197" y="357" on="1"/>
        <pt x="272" y="357" on="1"/>
        <pt x="272" y="70" on="1"/>
        <pt x="350" y="70" on="1"/>
      </contour>
    </TTGlyph>
    <TTGlyph name="afii10092" xMin="18" yMin="-10" xMax="464" yMax="464">
      <contour>
        <pt x="109" y="395" on="1"/>
        <pt x="18" y="395" on="1"/>
        <pt x="18" y="464" on="1"/>
        <pt x="191" y="464" on="1"/>
        <pt x="191" y="287" on="1"/>
        <pt x="205" y="290" on="0"/>
        <pt x="263" y="297" on="0"/>
        <pt x="288" y="297" on="1"/>
        <pt x="324" y="297" on="0"/>
        <pt x="388" y="280" on="0"/>
        <pt x="436" y="244" on="0"/>
        <pt x="464" y="186" on="0"/>
        <pt x="464" y="146" on="1"/>
        <pt x="464" y="104" on="0"/>
        <pt x="437" y="45" on="0"/>
        <pt x="387" y="7" on="0"/>
        <pt x="316" y="-10" on="0"/>
        <pt x="273" y="-10" on="1"/>
        <pt x="230" y="-10" on="0"/>
        <pt x="148" y="-1" on="0"/>
        <pt x="109" y="10" on="1"/>
      </contour>
      <contour>
        <pt x="278" y="58" on="1"/>
        <pt x="326" y="58" on="0"/>
        <pt x="380" y="99" on="0"/>
        <pt x="380" y="145" on="1"/>
        <pt x="380" y="167" on="0"/>
        <pt x="364" y="199" on="0"/>
        <pt x="336" y="220" on="0"/>
        <pt x="299" y="230" on="0"/>
        <pt x="278" y="230" on="1"/>
        <pt x="255" y="230" on="0"/>
        <pt x="208" y="227" on="0"/>
        <pt x="191" y="222" on="1"/>
        <pt x="191" y="63" on="1"/>
        <pt x="196" y="62" on="0"/>
        <pt x="216" y="60" on="0"/>
        <pt x="240" y="59" on="0"/>
        <pt x="266" y="58" on="0"/>
      </contour>
    </TTGlyph>
    <TTGlyph name="afii10093" xMin="45" yMin="-10" xMax="455" yMax="464">
      <contour>
        <pt x="180" y="230" on="1"/>
        <pt x="164" y="230" on="0"/>
        <pt x="135" y="227" on="0"/>
        <pt x="123" y="222" on="1"/>
        <pt x="123" y="63" on="1"/>
        <pt x="131" y="61" on="0"/>
        <pt x="165" y="58" on="0"/>
        <pt x="178" y="58" on="1"/>
        <pt x="211" y="58" on="0"/>
        <pt x="252" y="99" on="0"/>
        <pt x="252" y="145" on="1"/>
        <pt x="252" y="190" on="0"/>
        <pt x="206" y="230" on="0"/>
      </contour>
      <contour>
        <pt x="45" y="464" on="1"/>
        <pt x="123" y="464" on="1"/>
        <pt x="123" y="287" on="1"/>
        <pt x="134" y="290" on="0"/>
        <pt x="171" y="297" on="0"/>
        <pt x="191" y="297" on="1"/>
        <pt x="219" y="297" on="0"/>
        <pt x="270" y="280" on="0"/>
        <pt x="309" y="244" on="0"/>
        <pt x="332" y="186" on="0"/>
        <pt x="332" y="146" on="1"/>
        <pt x="332" y="62" on="0"/>
        <pt x="245" y="-10" on="0"/>
        <pt x="176" y="-10" on="1"/>
        <pt x="141" y="-10" on="0"/>
        <pt x="78" y="-1" on="0"/>
        <pt x="45" y="10" on="1"/>
      </contour>
      <contour>
        <pt x="455" y="0" on="1"/>
        <pt x="377" y="0" on="1"/>
        <pt x="377" y="464" on="1"/>
        <pt x="455" y="464" on="1"/>
      </contour>
    </TTGlyph>
    <TTGlyph name="afii10094" xMin="71" yMin="-10" xMax="460" yMax="464">
      <contour>
        <pt x="254" y="58" on="1"/>
        <pt x="312" y="58" on="0"/>
        <pt x="376" y="99" on="0"/>
        <pt x="376" y="145" on="1"/>
        <pt x="376" y="167" on="0"/>
        <pt x="357" y="199" on="0"/>
        <pt x="324" y="220" on="0"/>
        <pt x="279" y="230" on="0"/>
        <pt x="254" y="230" on="1"/>
        <pt x="228" y="230" on="0"/>
        <pt x="173" y="227" on="0"/>
        <pt x="154" y="222" on="1"/>
        <pt x="154" y="63" on="1"/>
        <pt x="166" y="61" on="0"/>
        <pt x="227" y="58" on="0"/>
      </contour>
      <contour>
        <pt x="71" y="464" on="1"/>
        <pt x="154" y="464" on="1"/>
        <pt x="154" y="287" on="1"/>
        <pt x="170" y="290" on="0"/>
        <pt x="234" y="297" on="0"/>
        <pt x="263" y="297" on="1"/>
        <pt x="303" y="297" on="0"/>
        <pt x="375" y="280" on="0"/>
        <pt x="429" y="244" on="0"/>
        <pt x="460" y="186" on="0"/>
        <pt x="460" y="146" on="1"/>
        <pt x="460" y="62" on="0"/>
        <pt x="345" y="-10" on="0"/>
        <pt x="249" y="-10" on="1"/>
        <pt x="202" y="-10" on="0"/>
        <pt x="115" y="-1" on="0"/>
        <pt x="71" y="10" on="1"/>
      </contour>
    </TTGlyph>
    <TTGlyph name="afii10095" xMin="59" yMin="-11" xMax="460" yMax="475">
      <contour>
        <pt x="460" y="234" on="1"/>
        <pt x="460" y="176" on="0"/>
        <pt x="425" y="85" on="0"/>
        <pt x="360" y="22" on="0"/>
        <pt x="267" y="-11" on="0"/>
        <pt x="210" y="-11" on="1"/>
        <pt x="159" y="-11" on="0"/>
        <pt x="78" y="4" on="0"/>
        <pt x="59" y="13" on="1"/>
        <pt x="71" y="82" on="1"/>
        <pt x="91" y="73" on="0"/>
        <pt x="164" y="61" on="0"/>
        <pt x="202" y="61" on="1"/>
        <pt x="238" y="61" on="0"/>
        <pt x="299" y="81" on="0"/>
        <pt x="345" y="118" on="0"/>
        <pt x="373" y="172" on="0"/>
        <pt x="376" y="205" on="1"/>
        <pt x="163" y="205" on="1"/>
        <pt x="163" y="272" on="1"/>
        <pt x="374" y="272" on="1"/>
        <pt x="370" y="302" on="0"/>
        <pt x="342" y="351" on="0"/>
        <pt x="298" y="385" on="0"/>
        <pt x="240" y="404" on="0"/>
        <pt x="206" y="404" on="1"/>
        <pt x="167" y="404" on="0"/>
        <pt x="114" y="394" on="0"/>
        <pt x="85" y="383" on="1"/>
        <pt x="66" y="454" on="1"/>
        <pt x="90" y="462" on="0"/>
        <pt x="160" y="475" on="0"/>
        <pt x="210" y="475" on="1"/>
        <pt x="266" y="475" on="0"/>
        <pt x="358" y="441" on="0"/>
        <pt x="424" y="379" on="0"/>
        <pt x="460" y="289" on="0"/>
      </contour>
    </TTGlyph>
    <TTGlyph name="afii10096" xMin="54" yMin="-11" xMax="473" yMax="475">
      <contour>
        <pt x="336" y="-11" on="1"/>
        <pt x="311" y="-11" on="0"/>
        <pt x="264" y="9" on="0"/>
        <pt x="226" y="57" on="0"/>
        <pt x="200" y="136" on="0"/>
        <pt x="197" y="196" on="1"/>
        <pt x="132" y="196" on="1"/>
        <pt x="132" y="0" on="1"/>
        <pt x="54" y="0" on="1"/>
        <pt x="54" y="464" on="1"/>
        <pt x="132" y="464" on="1"/>
        <pt x="132" y="265" on="1"/>
        <pt x="196" y="265" on="1"/>
        <pt x="199" y="326" on="0"/>
        <pt x="225" y="407" on="0"/>
        <pt x="263" y="455" on="0"/>
        <pt x="310" y="475" on="0"/>
        <pt x="334" y="475" on="1"/>
        <pt x="360" y="475" on="0"/>
        <pt x="410" y="452" on="0"/>
        <pt x="449" y="397" on="0"/>
        <pt x="473" y="303" on="0"/>
        <pt x="473" y="232" on="1"/>
        <pt x="473" y="161" on="0"/>
        <pt x="450" y="67" on="0"/>
        <pt x="411" y="12" on="0"/>
        <pt x="362" y="-11" on="0"/>
      </contour>
      <contour>
        <pt x="275" y="232" on="1"/>
        <pt x="275" y="148" on="0"/>
        <pt x="301" y="59" on="0"/>
        <pt x="335" y="59" on="1"/>
        <pt x="369" y="59" on="0"/>
        <pt x="395" y="148" on="0"/>
        <pt x="395" y="232" on="1"/>
        <pt x="395" y="317" on="0"/>
        <pt x="369" y="405" on="0"/>
        <pt x="335" y="405" on="1"/>
        <pt x="301" y="405" on="0"/>
        <pt x="275" y="317" on="0"/>
      </contour>
    </TTGlyph>
    <TTGlyph name="afii10097" xMin="40" yMin="0" xMax="429" yMax="476">
      <contour>
        <pt x="276" y="180" on="1"/>
        <pt x="262" y="180" on="0"/>
        <pt x="237" y="181" on="0"/>
        <pt x="226" y="182" on="1"/>
        <pt x="197" y="139" on="0"/>
        <pt x="145" y="42" on="0"/>
        <pt x="124" y="0" on="1"/>
        <pt x="40" y="0" on="1"/>
        <pt x="51" y="26" on="0"/>
        <pt x="79" y="81" on="0"/>
        <pt x="109" y="132" on="0"/>
        <pt x="139" y="179" on="0"/>
        <pt x="153" y="197" on="1"/>
        <pt x="103" y="215" on="0"/>
        <pt x="68" y="282" on="0"/>
        <pt x="68" y="320" on="1"/>
        <pt x="68" y="359" on="0"/>
        <pt x="97" y="417" on="0"/>
        <pt x="149" y="456" on="0"/>
        <pt x="220" y="476" on="0"/>
        <pt x="262" y="476" on="1"/>
        <pt x="321" y="476" on="0"/>
        <pt x="401" y="466" on="0"/>
        <pt x="429" y="458" on="1"/>
        <pt x="429" y="0" on="1"/>
        <pt x="346" y="0" on="1"/>
        <pt x="346" y="180" on="1"/>
      </contour>
      <contour>
        <pt x="346" y="403" on="1"/>
        <pt x="336" y="405" on="0"/>
        <pt x="293" y="408" on="0"/>
        <pt x="263" y="408" on="1"/>
        <pt x="212" y="408" on="0"/>
        <pt x="150" y="366" on="0"/>
        <pt x="150" y="321" on="1"/>
        <pt x="150" y="276" on="0"/>
        <pt x="214" y="242" on="0"/>
        <pt x="265" y="242" on="1"/>
        <pt x="346" y="242" on="1"/>
      </contour>
    </TTGlyph>
    <TTGlyph name="afii10098" xMin="107" yMin="0" xMax="440" yMax="580">
      <contour>
        <pt x="107" y="0" on="1"/>
        <pt x="107" y="464" on="1"/>
        <pt x="365" y="464" on="1"/>
        <pt x="365" y="580" on="1"/>
        <pt x="440" y="580" on="1"/>
        <pt x="440" y="395" on="1"/>
        <pt x="189" y="395" on="1"/>
        <pt x="189" y="0" on="1"/>
      </contour>
    </TTGlyph>
</ttFont>
